%TF.GenerationSoftware,KiCad,Pcbnew,5.1.4-5.1.4*%
%TF.CreationDate,2019-08-21T12:35:07+10:00*%
%TF.ProjectId,8042board,38303432-626f-4617-9264-2e6b69636164,rev?*%
%TF.SameCoordinates,Original*%
%TF.FileFunction,Copper,L2,Bot*%
%TF.FilePolarity,Positive*%
%FSLAX46Y46*%
G04 Gerber Fmt 4.6, Leading zero omitted, Abs format (unit mm)*
G04 Created by KiCad (PCBNEW 5.1.4-5.1.4) date 2019-08-21 12:35:07*
%MOMM*%
%LPD*%
G04 APERTURE LIST*
%ADD10O,1.600000X1.600000*%
%ADD11R,1.600000X1.600000*%
%ADD12O,1.700000X1.700000*%
%ADD13R,1.700000X1.700000*%
%ADD14C,1.500000*%
%ADD15C,1.600000*%
%ADD16C,2.000000*%
%ADD17O,1.800000X1.800000*%
%ADD18R,1.800000X1.800000*%
%ADD19C,1.800000*%
%ADD20C,0.250000*%
%ADD21C,0.254000*%
G04 APERTURE END LIST*
D10*
X177800000Y-68580000D03*
X162560000Y-101600000D03*
X177800000Y-71120000D03*
X162560000Y-99060000D03*
X177800000Y-73660000D03*
X162560000Y-96520000D03*
X177800000Y-76200000D03*
X162560000Y-93980000D03*
X177800000Y-78740000D03*
X162560000Y-91440000D03*
X177800000Y-81280000D03*
X162560000Y-88900000D03*
X177800000Y-83820000D03*
X162560000Y-86360000D03*
X177800000Y-86360000D03*
X162560000Y-83820000D03*
X177800000Y-88900000D03*
X162560000Y-81280000D03*
X177800000Y-91440000D03*
X162560000Y-78740000D03*
X177800000Y-93980000D03*
X162560000Y-76200000D03*
X177800000Y-96520000D03*
X162560000Y-73660000D03*
X177800000Y-99060000D03*
X162560000Y-71120000D03*
X177800000Y-101600000D03*
D11*
X162560000Y-68580000D03*
D10*
X157480000Y-53340000D03*
X142240000Y-101600000D03*
X157480000Y-55880000D03*
X142240000Y-99060000D03*
X157480000Y-58420000D03*
X142240000Y-96520000D03*
X157480000Y-60960000D03*
X142240000Y-93980000D03*
X157480000Y-63500000D03*
X142240000Y-91440000D03*
X157480000Y-66040000D03*
X142240000Y-88900000D03*
X157480000Y-68580000D03*
X142240000Y-86360000D03*
X157480000Y-71120000D03*
X142240000Y-83820000D03*
X157480000Y-73660000D03*
X142240000Y-81280000D03*
X157480000Y-76200000D03*
X142240000Y-78740000D03*
X157480000Y-78740000D03*
X142240000Y-76200000D03*
X157480000Y-81280000D03*
X142240000Y-73660000D03*
X157480000Y-83820000D03*
X142240000Y-71120000D03*
X157480000Y-86360000D03*
X142240000Y-68580000D03*
X157480000Y-88900000D03*
X142240000Y-66040000D03*
X157480000Y-91440000D03*
X142240000Y-63500000D03*
X157480000Y-93980000D03*
X142240000Y-60960000D03*
X157480000Y-96520000D03*
X142240000Y-58420000D03*
X157480000Y-99060000D03*
X142240000Y-55880000D03*
X157480000Y-101600000D03*
D11*
X142240000Y-53340000D03*
D12*
X172720000Y-60960000D03*
D13*
X172720000Y-63500000D03*
D14*
X144780000Y-40460000D03*
X144780000Y-35560000D03*
D12*
X177800000Y-35560000D03*
D13*
X177800000Y-33020000D03*
D12*
X177800000Y-48260000D03*
X177800000Y-50800000D03*
X177800000Y-53340000D03*
X177800000Y-55880000D03*
X177800000Y-58420000D03*
X177800000Y-60960000D03*
D13*
X177800000Y-63500000D03*
D15*
X165100000Y-45760000D03*
D11*
X165100000Y-48260000D03*
D16*
X150980000Y-43180000D03*
X150980000Y-38680000D03*
X157480000Y-43180000D03*
X157480000Y-38680000D03*
X157630000Y-30480000D03*
X157630000Y-34980000D03*
X151130000Y-30480000D03*
X151130000Y-34980000D03*
D10*
X162560000Y-40640000D03*
D15*
X162560000Y-30480000D03*
D10*
X167640000Y-40640000D03*
D15*
X167640000Y-30480000D03*
D10*
X172720000Y-45720000D03*
D15*
X172720000Y-55880000D03*
D12*
X152400000Y-48260000D03*
X154940000Y-48260000D03*
D13*
X157480000Y-48260000D03*
D17*
X172720000Y-40640000D03*
D18*
X172720000Y-33020000D03*
D19*
X165100000Y-60960000D03*
D18*
X165100000Y-63500000D03*
D15*
X147400000Y-106680000D03*
X152400000Y-106680000D03*
X172640000Y-106680000D03*
X167640000Y-106680000D03*
X142240000Y-45760000D03*
X142240000Y-48260000D03*
X144780000Y-45760000D03*
X144780000Y-48260000D03*
X165100000Y-55840000D03*
D11*
X165100000Y-53340000D03*
D20*
X148724700Y-45760000D02*
X151224700Y-48260000D01*
X144780000Y-45760000D02*
X148724700Y-45760000D01*
X148724700Y-45760000D02*
X148724700Y-45435300D01*
X148724700Y-45435300D02*
X150980000Y-43180000D01*
X152400000Y-48260000D02*
X151224700Y-48260000D01*
X142240000Y-45760000D02*
X144780000Y-45760000D01*
X177800000Y-83820000D02*
X177800000Y-84945300D01*
X167560000Y-101600000D02*
X162560000Y-101600000D01*
X172640000Y-106680000D02*
X167560000Y-101600000D01*
X177800000Y-84945300D02*
X177518700Y-84945300D01*
X177518700Y-84945300D02*
X167560000Y-94904000D01*
X167560000Y-94904000D02*
X167560000Y-101600000D01*
X177800000Y-35560000D02*
X177800000Y-36735300D01*
X174510100Y-39405100D02*
X174510100Y-43794800D01*
X174510100Y-43794800D02*
X177800000Y-47084700D01*
X177800000Y-36735300D02*
X177179900Y-36735300D01*
X177179900Y-36735300D02*
X174510100Y-39405100D01*
X165100000Y-45760000D02*
X171454900Y-39405100D01*
X171454900Y-39405100D02*
X174510100Y-39405100D01*
X177800000Y-48260000D02*
X177800000Y-47084700D01*
X152336300Y-36186300D02*
X151130000Y-34980000D01*
X152336300Y-41823700D02*
X152336300Y-36186300D01*
X152336300Y-36186300D02*
X156423700Y-36186300D01*
X156423700Y-36186300D02*
X157630000Y-34980000D01*
X152336300Y-41823700D02*
X156123700Y-41823700D01*
X156123700Y-41823700D02*
X157480000Y-43180000D01*
X150980000Y-43180000D02*
X152336300Y-41823700D01*
X142240000Y-101600000D02*
X143365300Y-101600000D01*
X147400000Y-106680000D02*
X143365300Y-102645300D01*
X143365300Y-102645300D02*
X143365300Y-101600000D01*
X165100000Y-53340000D02*
X163974700Y-53340000D01*
X163974700Y-53340000D02*
X160164700Y-57150000D01*
X160164700Y-57150000D02*
X154894800Y-57150000D01*
X154894800Y-57150000D02*
X151084800Y-60960000D01*
X151084800Y-60960000D02*
X142240000Y-60960000D01*
X165100000Y-53340000D02*
X165100000Y-52214700D01*
X172720000Y-40640000D02*
X172720000Y-41865300D01*
X172720000Y-41865300D02*
X166225300Y-48360000D01*
X166225300Y-48360000D02*
X166225300Y-51089400D01*
X166225300Y-51089400D02*
X165100000Y-52214700D01*
X142240000Y-76200000D02*
X142240000Y-73660000D01*
X156354700Y-88900000D02*
X143654700Y-76200000D01*
X143654700Y-76200000D02*
X142240000Y-76200000D01*
X172720000Y-63500000D02*
X171544700Y-63500000D01*
X171544700Y-63500000D02*
X166464700Y-68580000D01*
X166464700Y-68580000D02*
X162560000Y-68580000D01*
X167640000Y-106680000D02*
X152400000Y-106680000D01*
X157480000Y-48260000D02*
X165100000Y-48260000D01*
X157480000Y-88900000D02*
X156354700Y-88900000D01*
X172720000Y-33020000D02*
X171494700Y-33020000D01*
X167640000Y-30480000D02*
X168954700Y-30480000D01*
X168954700Y-30480000D02*
X171494700Y-33020000D01*
X162560000Y-30480000D02*
X167640000Y-30480000D01*
X165100000Y-60960000D02*
X165868800Y-60960000D01*
X165868800Y-60960000D02*
X172218800Y-54610000D01*
X172218800Y-54610000D02*
X178214800Y-54610000D01*
X178214800Y-54610000D02*
X178988400Y-53836400D01*
X178988400Y-53836400D02*
X178988400Y-52848400D01*
X178988400Y-52848400D02*
X178210000Y-52070000D01*
X178210000Y-52070000D02*
X177318200Y-52070000D01*
X177318200Y-52070000D02*
X172720000Y-47471800D01*
X172720000Y-47471800D02*
X172720000Y-45720000D01*
X165100000Y-63500000D02*
X166325300Y-63500000D01*
X166325300Y-63500000D02*
X171405300Y-58420000D01*
X171405300Y-58420000D02*
X177800000Y-58420000D01*
X157480000Y-63500000D02*
X165100000Y-63500000D01*
X177800000Y-60960000D02*
X176624700Y-60960000D01*
X157480000Y-66040000D02*
X165966400Y-66040000D01*
X165966400Y-66040000D02*
X169871100Y-62135300D01*
X169871100Y-62135300D02*
X175449400Y-62135300D01*
X175449400Y-62135300D02*
X176624700Y-60960000D01*
X177800000Y-63500000D02*
X177800000Y-64675300D01*
X157480000Y-93980000D02*
X158605300Y-93980000D01*
X158605300Y-93980000D02*
X158605300Y-93698700D01*
X158605300Y-93698700D02*
X162134000Y-90170000D01*
X162134000Y-90170000D02*
X162897600Y-90170000D01*
X162897600Y-90170000D02*
X173895400Y-79172200D01*
X173895400Y-79172200D02*
X173895400Y-68579900D01*
X173895400Y-68579900D02*
X177800000Y-64675300D01*
X142240000Y-68580000D02*
X142240000Y-67454700D01*
X154940000Y-48260000D02*
X143510000Y-59690000D01*
X143510000Y-59690000D02*
X141865900Y-59690000D01*
X141865900Y-59690000D02*
X141114700Y-60441200D01*
X141114700Y-60441200D02*
X141114700Y-66610800D01*
X141114700Y-66610800D02*
X141958600Y-67454700D01*
X141958600Y-67454700D02*
X142240000Y-67454700D01*
X165975700Y-38825600D02*
X157630000Y-30480000D01*
X167640000Y-40077300D02*
X167227300Y-40077300D01*
X167227300Y-40077300D02*
X165975700Y-38825600D01*
X165975700Y-38825600D02*
X158309600Y-46491700D01*
X158309600Y-46491700D02*
X157015800Y-46491700D01*
X157015800Y-46491700D02*
X156304600Y-47202900D01*
X156304600Y-47202900D02*
X156304600Y-53860600D01*
X156304600Y-53860600D02*
X157198700Y-54754700D01*
X157198700Y-54754700D02*
X157480000Y-54754700D01*
X157480000Y-55880000D02*
X157480000Y-54754700D01*
X167640000Y-40640000D02*
X167640000Y-40077300D01*
X151130000Y-30480000D02*
X157630000Y-30480000D01*
X159440000Y-40640000D02*
X157480000Y-38680000D01*
X162560000Y-40640000D02*
X159440000Y-40640000D01*
X159440000Y-40640000D02*
X159440000Y-43117600D01*
X159440000Y-43117600D02*
X156610900Y-45946700D01*
X156610900Y-45946700D02*
X155558000Y-45946700D01*
X155558000Y-45946700D02*
X153670000Y-47834700D01*
X153670000Y-47834700D02*
X153670000Y-48668200D01*
X153670000Y-48668200D02*
X148998200Y-53340000D01*
X148998200Y-53340000D02*
X142240000Y-53340000D01*
X143365300Y-93980000D02*
X154575900Y-105190600D01*
X154575900Y-105190600D02*
X168026900Y-105190600D01*
X168026900Y-105190600D02*
X171548000Y-108711700D01*
X171548000Y-108711700D02*
X173589300Y-108711700D01*
X173589300Y-108711700D02*
X179376000Y-102925000D01*
X179376000Y-102925000D02*
X179376000Y-98940000D01*
X179376000Y-98940000D02*
X178081300Y-97645300D01*
X178081300Y-97645300D02*
X177800000Y-97645300D01*
X177800000Y-96520000D02*
X177800000Y-97645300D01*
X142240000Y-93980000D02*
X143365300Y-93980000D01*
X143365300Y-91440000D02*
X156665600Y-104740300D01*
X156665600Y-104740300D02*
X168417000Y-104740300D01*
X168417000Y-104740300D02*
X171938100Y-108261400D01*
X171938100Y-108261400D02*
X173323100Y-108261400D01*
X173323100Y-108261400D02*
X178925300Y-102659200D01*
X178925300Y-102659200D02*
X178925300Y-101029200D01*
X178925300Y-101029200D02*
X178081400Y-100185300D01*
X178081400Y-100185300D02*
X177800000Y-100185300D01*
X177800000Y-99060000D02*
X177800000Y-100185300D01*
X142240000Y-91440000D02*
X143365300Y-91440000D01*
X142240000Y-88900000D02*
X143365300Y-88900000D01*
X143365300Y-88900000D02*
X143365300Y-89744000D01*
X143365300Y-89744000D02*
X156798400Y-103177100D01*
X156798400Y-103177100D02*
X167490700Y-103177100D01*
X167490700Y-103177100D02*
X172124600Y-107811000D01*
X172124600Y-107811000D02*
X173136600Y-107811000D01*
X173136600Y-107811000D02*
X177800000Y-103147600D01*
X177800000Y-103147600D02*
X177800000Y-101600000D01*
X142240000Y-86360000D02*
X142240000Y-87485300D01*
X142240000Y-87485300D02*
X142662000Y-87485300D01*
X142662000Y-87485300D02*
X153445500Y-98268800D01*
X153445500Y-98268800D02*
X153445500Y-99187300D01*
X153445500Y-99187300D02*
X156984900Y-102726700D01*
X156984900Y-102726700D02*
X158893300Y-102726700D01*
X158893300Y-102726700D02*
X162560000Y-99060000D01*
X162560000Y-93980000D02*
X161434700Y-93980000D01*
X142240000Y-81280000D02*
X143365300Y-81280000D01*
X143365300Y-81280000D02*
X143365300Y-81561300D01*
X143365300Y-81561300D02*
X156909300Y-95105300D01*
X156909300Y-95105300D02*
X160309400Y-95105300D01*
X160309400Y-95105300D02*
X161434700Y-93980000D01*
X162560000Y-81280000D02*
X162560000Y-80154700D01*
X157480000Y-76200000D02*
X158605300Y-76200000D01*
X158605300Y-76200000D02*
X158605300Y-76481300D01*
X158605300Y-76481300D02*
X162278700Y-80154700D01*
X162278700Y-80154700D02*
X162560000Y-80154700D01*
X162560000Y-83820000D02*
X162560000Y-82694700D01*
X157480000Y-78740000D02*
X158605300Y-78740000D01*
X158605300Y-78740000D02*
X158605300Y-79021300D01*
X158605300Y-79021300D02*
X162278700Y-82694700D01*
X162278700Y-82694700D02*
X162560000Y-82694700D01*
X162560000Y-86360000D02*
X162560000Y-85234700D01*
X157480000Y-81280000D02*
X158605300Y-81280000D01*
X158605300Y-81280000D02*
X158605300Y-81561300D01*
X158605300Y-81561300D02*
X162278700Y-85234700D01*
X162278700Y-85234700D02*
X162560000Y-85234700D01*
X162560000Y-88900000D02*
X162560000Y-87774700D01*
X157480000Y-83820000D02*
X158605300Y-83820000D01*
X158605300Y-83820000D02*
X158605300Y-84101300D01*
X158605300Y-84101300D02*
X162278700Y-87774700D01*
X162278700Y-87774700D02*
X162560000Y-87774700D01*
X177800000Y-78740000D02*
X177800000Y-79865300D01*
X157480000Y-99060000D02*
X158605300Y-99060000D01*
X158605300Y-99060000D02*
X158605300Y-98778700D01*
X158605300Y-98778700D02*
X162134000Y-95250000D01*
X162134000Y-95250000D02*
X162950800Y-95250000D01*
X162950800Y-95250000D02*
X176674700Y-81526100D01*
X176674700Y-81526100D02*
X176674700Y-80709200D01*
X176674700Y-80709200D02*
X177518600Y-79865300D01*
X177518600Y-79865300D02*
X177800000Y-79865300D01*
X157480000Y-101600000D02*
X158605300Y-101600000D01*
X177800000Y-76200000D02*
X177800000Y-77325300D01*
X158605300Y-101600000D02*
X158605300Y-101318700D01*
X158605300Y-101318700D02*
X162134000Y-97790000D01*
X162134000Y-97790000D02*
X162902700Y-97790000D01*
X162902700Y-97790000D02*
X166048600Y-94644100D01*
X166048600Y-94644100D02*
X166048600Y-93973900D01*
X166048600Y-93973900D02*
X177472500Y-82550000D01*
X177472500Y-82550000D02*
X178199000Y-82550000D01*
X178199000Y-82550000D02*
X178925300Y-81823700D01*
X178925300Y-81823700D02*
X178925300Y-78169200D01*
X178925300Y-78169200D02*
X178081400Y-77325300D01*
X178081400Y-77325300D02*
X177800000Y-77325300D01*
X157480000Y-58420000D02*
X167771900Y-58420000D01*
X167771900Y-58420000D02*
X172851900Y-53340000D01*
X172851900Y-53340000D02*
X177800000Y-53340000D01*
X177800000Y-55880000D02*
X176624700Y-55880000D01*
X157480000Y-60960000D02*
X158605300Y-60960000D01*
X158605300Y-60960000D02*
X159837700Y-62192400D01*
X159837700Y-62192400D02*
X165909400Y-62192400D01*
X165909400Y-62192400D02*
X171046500Y-57055300D01*
X171046500Y-57055300D02*
X175449400Y-57055300D01*
X175449400Y-57055300D02*
X176624700Y-55880000D01*
D21*
G36*
X180213000Y-114173000D02*
G01*
X139827000Y-114173000D01*
X139827000Y-111525098D01*
X157635000Y-111525098D01*
X157635000Y-111994902D01*
X157726654Y-112455679D01*
X157906440Y-112889721D01*
X158167450Y-113280349D01*
X158499651Y-113612550D01*
X158890279Y-113873560D01*
X159324321Y-114053346D01*
X159785098Y-114145000D01*
X160254902Y-114145000D01*
X160715679Y-114053346D01*
X161149721Y-113873560D01*
X161540349Y-113612550D01*
X161872550Y-113280349D01*
X162133560Y-112889721D01*
X162313346Y-112455679D01*
X162405000Y-111994902D01*
X162405000Y-111525098D01*
X162313346Y-111064321D01*
X162133560Y-110630279D01*
X161872550Y-110239651D01*
X161540349Y-109907450D01*
X161149721Y-109646440D01*
X160715679Y-109466654D01*
X160254902Y-109375000D01*
X159785098Y-109375000D01*
X159324321Y-109466654D01*
X158890279Y-109646440D01*
X158499651Y-109907450D01*
X158167450Y-110239651D01*
X157906440Y-110630279D01*
X157726654Y-111064321D01*
X157635000Y-111525098D01*
X139827000Y-111525098D01*
X139827000Y-107672702D01*
X146586903Y-107672702D01*
X146658486Y-107916671D01*
X146913996Y-108037571D01*
X147188184Y-108106300D01*
X147470512Y-108120217D01*
X147750130Y-108078787D01*
X148016292Y-107983603D01*
X148141514Y-107916671D01*
X148213097Y-107672702D01*
X147400000Y-106859605D01*
X146586903Y-107672702D01*
X139827000Y-107672702D01*
X139827000Y-106750512D01*
X145959783Y-106750512D01*
X146001213Y-107030130D01*
X146096397Y-107296292D01*
X146163329Y-107421514D01*
X146407298Y-107493097D01*
X147220395Y-106680000D01*
X147579605Y-106680000D01*
X148392702Y-107493097D01*
X148636671Y-107421514D01*
X148757571Y-107166004D01*
X148826300Y-106891816D01*
X148840217Y-106609488D01*
X148798787Y-106329870D01*
X148703603Y-106063708D01*
X148636671Y-105938486D01*
X148392702Y-105866903D01*
X147579605Y-106680000D01*
X147220395Y-106680000D01*
X146407298Y-105866903D01*
X146163329Y-105938486D01*
X146042429Y-106193996D01*
X145973700Y-106468184D01*
X145959783Y-106750512D01*
X139827000Y-106750512D01*
X139827000Y-105687298D01*
X146586903Y-105687298D01*
X147400000Y-106500395D01*
X148213097Y-105687298D01*
X148141514Y-105443329D01*
X147886004Y-105322429D01*
X147611816Y-105253700D01*
X147329488Y-105239783D01*
X147049870Y-105281213D01*
X146783708Y-105376397D01*
X146658486Y-105443329D01*
X146586903Y-105687298D01*
X139827000Y-105687298D01*
X139827000Y-101949039D01*
X140848096Y-101949039D01*
X140888754Y-102083087D01*
X141008963Y-102337420D01*
X141176481Y-102563414D01*
X141384869Y-102752385D01*
X141626119Y-102897070D01*
X141890960Y-102991909D01*
X142113000Y-102870624D01*
X142113000Y-101727000D01*
X142367000Y-101727000D01*
X142367000Y-102870624D01*
X142589040Y-102991909D01*
X142853881Y-102897070D01*
X143095131Y-102752385D01*
X143303519Y-102563414D01*
X143471037Y-102337420D01*
X143591246Y-102083087D01*
X143631904Y-101949039D01*
X143509915Y-101727000D01*
X142367000Y-101727000D01*
X142113000Y-101727000D01*
X140970085Y-101727000D01*
X140848096Y-101949039D01*
X139827000Y-101949039D01*
X139827000Y-58547000D01*
X140810566Y-58547000D01*
X140825764Y-58701309D01*
X140907818Y-58971808D01*
X141041068Y-59221101D01*
X141139751Y-59341347D01*
X140603702Y-59877397D01*
X140574699Y-59901199D01*
X140519571Y-59968374D01*
X140479726Y-60016924D01*
X140418758Y-60130986D01*
X140409154Y-60148954D01*
X140365697Y-60292215D01*
X140354700Y-60403868D01*
X140354700Y-60403878D01*
X140351024Y-60441200D01*
X140354700Y-60478523D01*
X140354701Y-66573468D01*
X140351024Y-66610800D01*
X140354701Y-66648133D01*
X140365698Y-66759786D01*
X140374561Y-66789003D01*
X140409154Y-66903046D01*
X140479726Y-67035076D01*
X140550901Y-67121802D01*
X140574700Y-67150801D01*
X140603698Y-67174599D01*
X141116312Y-67687214D01*
X141041068Y-67778899D01*
X140907818Y-68028192D01*
X140825764Y-68298691D01*
X140798057Y-68580000D01*
X140825764Y-68861309D01*
X140907818Y-69131808D01*
X141041068Y-69381101D01*
X141220392Y-69599608D01*
X141438899Y-69778932D01*
X141571858Y-69850000D01*
X141438899Y-69921068D01*
X141220392Y-70100392D01*
X141041068Y-70318899D01*
X140907818Y-70568192D01*
X140825764Y-70838691D01*
X140798057Y-71120000D01*
X140825764Y-71401309D01*
X140907818Y-71671808D01*
X141041068Y-71921101D01*
X141220392Y-72139608D01*
X141438899Y-72318932D01*
X141571858Y-72390000D01*
X141438899Y-72461068D01*
X141220392Y-72640392D01*
X141041068Y-72858899D01*
X140907818Y-73108192D01*
X140825764Y-73378691D01*
X140798057Y-73660000D01*
X140825764Y-73941309D01*
X140907818Y-74211808D01*
X141041068Y-74461101D01*
X141220392Y-74679608D01*
X141438899Y-74858932D01*
X141480001Y-74880901D01*
X141480000Y-74979099D01*
X141438899Y-75001068D01*
X141220392Y-75180392D01*
X141041068Y-75398899D01*
X140907818Y-75648192D01*
X140825764Y-75918691D01*
X140798057Y-76200000D01*
X140825764Y-76481309D01*
X140907818Y-76751808D01*
X141041068Y-77001101D01*
X141220392Y-77219608D01*
X141438899Y-77398932D01*
X141571858Y-77470000D01*
X141438899Y-77541068D01*
X141220392Y-77720392D01*
X141041068Y-77938899D01*
X140907818Y-78188192D01*
X140825764Y-78458691D01*
X140798057Y-78740000D01*
X140825764Y-79021309D01*
X140907818Y-79291808D01*
X141041068Y-79541101D01*
X141220392Y-79759608D01*
X141438899Y-79938932D01*
X141571858Y-80010000D01*
X141438899Y-80081068D01*
X141220392Y-80260392D01*
X141041068Y-80478899D01*
X140907818Y-80728192D01*
X140825764Y-80998691D01*
X140798057Y-81280000D01*
X140825764Y-81561309D01*
X140907818Y-81831808D01*
X141041068Y-82081101D01*
X141220392Y-82299608D01*
X141438899Y-82478932D01*
X141571858Y-82550000D01*
X141438899Y-82621068D01*
X141220392Y-82800392D01*
X141041068Y-83018899D01*
X140907818Y-83268192D01*
X140825764Y-83538691D01*
X140798057Y-83820000D01*
X140825764Y-84101309D01*
X140907818Y-84371808D01*
X141041068Y-84621101D01*
X141220392Y-84839608D01*
X141438899Y-85018932D01*
X141571858Y-85090000D01*
X141438899Y-85161068D01*
X141220392Y-85340392D01*
X141041068Y-85558899D01*
X140907818Y-85808192D01*
X140825764Y-86078691D01*
X140798057Y-86360000D01*
X140825764Y-86641309D01*
X140907818Y-86911808D01*
X141041068Y-87161101D01*
X141220392Y-87379608D01*
X141438899Y-87558932D01*
X141486058Y-87584139D01*
X141490997Y-87634286D01*
X141501160Y-87667789D01*
X141438899Y-87701068D01*
X141220392Y-87880392D01*
X141041068Y-88098899D01*
X140907818Y-88348192D01*
X140825764Y-88618691D01*
X140798057Y-88900000D01*
X140825764Y-89181309D01*
X140907818Y-89451808D01*
X141041068Y-89701101D01*
X141220392Y-89919608D01*
X141438899Y-90098932D01*
X141571858Y-90170000D01*
X141438899Y-90241068D01*
X141220392Y-90420392D01*
X141041068Y-90638899D01*
X140907818Y-90888192D01*
X140825764Y-91158691D01*
X140798057Y-91440000D01*
X140825764Y-91721309D01*
X140907818Y-91991808D01*
X141041068Y-92241101D01*
X141220392Y-92459608D01*
X141438899Y-92638932D01*
X141571858Y-92710000D01*
X141438899Y-92781068D01*
X141220392Y-92960392D01*
X141041068Y-93178899D01*
X140907818Y-93428192D01*
X140825764Y-93698691D01*
X140798057Y-93980000D01*
X140825764Y-94261309D01*
X140907818Y-94531808D01*
X141041068Y-94781101D01*
X141220392Y-94999608D01*
X141438899Y-95178932D01*
X141571858Y-95250000D01*
X141438899Y-95321068D01*
X141220392Y-95500392D01*
X141041068Y-95718899D01*
X140907818Y-95968192D01*
X140825764Y-96238691D01*
X140798057Y-96520000D01*
X140825764Y-96801309D01*
X140907818Y-97071808D01*
X141041068Y-97321101D01*
X141220392Y-97539608D01*
X141438899Y-97718932D01*
X141571858Y-97790000D01*
X141438899Y-97861068D01*
X141220392Y-98040392D01*
X141041068Y-98258899D01*
X140907818Y-98508192D01*
X140825764Y-98778691D01*
X140798057Y-99060000D01*
X140825764Y-99341309D01*
X140907818Y-99611808D01*
X141041068Y-99861101D01*
X141220392Y-100079608D01*
X141438899Y-100258932D01*
X141576682Y-100332579D01*
X141384869Y-100447615D01*
X141176481Y-100636586D01*
X141008963Y-100862580D01*
X140888754Y-101116913D01*
X140848096Y-101250961D01*
X140970085Y-101473000D01*
X142113000Y-101473000D01*
X142113000Y-101453000D01*
X142367000Y-101453000D01*
X142367000Y-101473000D01*
X143509915Y-101473000D01*
X143631904Y-101250961D01*
X143591246Y-101116913D01*
X143471037Y-100862580D01*
X143303519Y-100636586D01*
X143095131Y-100447615D01*
X142903318Y-100332579D01*
X143041101Y-100258932D01*
X143259608Y-100079608D01*
X143438932Y-99861101D01*
X143572182Y-99611808D01*
X143654236Y-99341309D01*
X143681943Y-99060000D01*
X143654236Y-98778691D01*
X143572182Y-98508192D01*
X143438932Y-98258899D01*
X143259608Y-98040392D01*
X143041101Y-97861068D01*
X142908142Y-97790000D01*
X143041101Y-97718932D01*
X143259608Y-97539608D01*
X143438932Y-97321101D01*
X143572182Y-97071808D01*
X143654236Y-96801309D01*
X143681943Y-96520000D01*
X143654236Y-96238691D01*
X143572182Y-95968192D01*
X143438932Y-95718899D01*
X143259608Y-95500392D01*
X143041101Y-95321068D01*
X142908142Y-95250000D01*
X143041101Y-95178932D01*
X143259608Y-94999608D01*
X143282371Y-94971872D01*
X154012100Y-105701602D01*
X154035899Y-105730601D01*
X154064897Y-105754399D01*
X154151624Y-105825574D01*
X154283653Y-105896146D01*
X154362290Y-105920000D01*
X153618043Y-105920000D01*
X153514637Y-105765241D01*
X153314759Y-105565363D01*
X153079727Y-105408320D01*
X152818574Y-105300147D01*
X152541335Y-105245000D01*
X152258665Y-105245000D01*
X151981426Y-105300147D01*
X151720273Y-105408320D01*
X151485241Y-105565363D01*
X151285363Y-105765241D01*
X151128320Y-106000273D01*
X151020147Y-106261426D01*
X150965000Y-106538665D01*
X150965000Y-106821335D01*
X151020147Y-107098574D01*
X151128320Y-107359727D01*
X151285363Y-107594759D01*
X151485241Y-107794637D01*
X151720273Y-107951680D01*
X151981426Y-108059853D01*
X152258665Y-108115000D01*
X152541335Y-108115000D01*
X152818574Y-108059853D01*
X153079727Y-107951680D01*
X153314759Y-107794637D01*
X153514637Y-107594759D01*
X153618043Y-107440000D01*
X166421957Y-107440000D01*
X166525363Y-107594759D01*
X166725241Y-107794637D01*
X166960273Y-107951680D01*
X167221426Y-108059853D01*
X167498665Y-108115000D01*
X167781335Y-108115000D01*
X168058574Y-108059853D01*
X168319727Y-107951680D01*
X168554759Y-107794637D01*
X168754637Y-107594759D01*
X168911680Y-107359727D01*
X168973054Y-107211556D01*
X170984205Y-109222708D01*
X171007999Y-109251701D01*
X171036992Y-109275495D01*
X171036996Y-109275499D01*
X171107685Y-109333511D01*
X171123724Y-109346674D01*
X171255753Y-109417246D01*
X171399014Y-109460703D01*
X171510667Y-109471700D01*
X171510676Y-109471700D01*
X171547999Y-109475376D01*
X171585322Y-109471700D01*
X173551978Y-109471700D01*
X173589300Y-109475376D01*
X173626622Y-109471700D01*
X173626633Y-109471700D01*
X173738286Y-109460703D01*
X173881547Y-109417246D01*
X174013576Y-109346674D01*
X174129301Y-109251701D01*
X174153104Y-109222697D01*
X179887004Y-103488798D01*
X179916001Y-103465001D01*
X180010974Y-103349276D01*
X180081546Y-103217247D01*
X180125003Y-103073986D01*
X180136000Y-102962333D01*
X180136000Y-102962332D01*
X180139677Y-102925000D01*
X180136000Y-102887667D01*
X180136000Y-98977322D01*
X180139676Y-98939999D01*
X180136000Y-98902676D01*
X180136000Y-98902667D01*
X180125003Y-98791014D01*
X180081546Y-98647753D01*
X180010974Y-98515724D01*
X179916001Y-98399999D01*
X179887003Y-98376201D01*
X178923643Y-97412841D01*
X178998932Y-97321101D01*
X179132182Y-97071808D01*
X179214236Y-96801309D01*
X179241943Y-96520000D01*
X179214236Y-96238691D01*
X179132182Y-95968192D01*
X178998932Y-95718899D01*
X178819608Y-95500392D01*
X178601101Y-95321068D01*
X178468142Y-95250000D01*
X178601101Y-95178932D01*
X178819608Y-94999608D01*
X178998932Y-94781101D01*
X179132182Y-94531808D01*
X179214236Y-94261309D01*
X179241943Y-93980000D01*
X179214236Y-93698691D01*
X179132182Y-93428192D01*
X178998932Y-93178899D01*
X178819608Y-92960392D01*
X178601101Y-92781068D01*
X178468142Y-92710000D01*
X178601101Y-92638932D01*
X178819608Y-92459608D01*
X178998932Y-92241101D01*
X179132182Y-91991808D01*
X179214236Y-91721309D01*
X179241943Y-91440000D01*
X179214236Y-91158691D01*
X179132182Y-90888192D01*
X178998932Y-90638899D01*
X178819608Y-90420392D01*
X178601101Y-90241068D01*
X178468142Y-90170000D01*
X178601101Y-90098932D01*
X178819608Y-89919608D01*
X178998932Y-89701101D01*
X179132182Y-89451808D01*
X179214236Y-89181309D01*
X179241943Y-88900000D01*
X179214236Y-88618691D01*
X179132182Y-88348192D01*
X178998932Y-88098899D01*
X178819608Y-87880392D01*
X178601101Y-87701068D01*
X178468142Y-87630000D01*
X178601101Y-87558932D01*
X178819608Y-87379608D01*
X178998932Y-87161101D01*
X179132182Y-86911808D01*
X179214236Y-86641309D01*
X179241943Y-86360000D01*
X179214236Y-86078691D01*
X179132182Y-85808192D01*
X178998932Y-85558899D01*
X178819608Y-85340392D01*
X178601101Y-85161068D01*
X178463318Y-85087421D01*
X178655131Y-84972385D01*
X178863519Y-84783414D01*
X179031037Y-84557420D01*
X179151246Y-84303087D01*
X179191904Y-84169039D01*
X179069915Y-83947000D01*
X177927000Y-83947000D01*
X177927000Y-83967000D01*
X177673000Y-83967000D01*
X177673000Y-83947000D01*
X177653000Y-83947000D01*
X177653000Y-83693000D01*
X177673000Y-83693000D01*
X177673000Y-83673000D01*
X177927000Y-83673000D01*
X177927000Y-83693000D01*
X179069915Y-83693000D01*
X179191904Y-83470961D01*
X179151246Y-83336913D01*
X179031037Y-83082580D01*
X178907662Y-82916139D01*
X179436304Y-82387498D01*
X179465301Y-82363701D01*
X179560274Y-82247976D01*
X179630846Y-82115947D01*
X179674303Y-81972686D01*
X179685300Y-81861033D01*
X179685300Y-81861024D01*
X179688976Y-81823701D01*
X179685300Y-81786378D01*
X179685300Y-78206523D01*
X179688976Y-78169200D01*
X179685300Y-78131877D01*
X179685300Y-78131867D01*
X179674303Y-78020214D01*
X179630846Y-77876953D01*
X179560274Y-77744924D01*
X179465301Y-77629199D01*
X179436303Y-77605401D01*
X178923688Y-77092786D01*
X178998932Y-77001101D01*
X179132182Y-76751808D01*
X179214236Y-76481309D01*
X179241943Y-76200000D01*
X179214236Y-75918691D01*
X179132182Y-75648192D01*
X178998932Y-75398899D01*
X178819608Y-75180392D01*
X178601101Y-75001068D01*
X178463318Y-74927421D01*
X178655131Y-74812385D01*
X178863519Y-74623414D01*
X179031037Y-74397420D01*
X179151246Y-74143087D01*
X179191904Y-74009039D01*
X179069915Y-73787000D01*
X177927000Y-73787000D01*
X177927000Y-73807000D01*
X177673000Y-73807000D01*
X177673000Y-73787000D01*
X176530085Y-73787000D01*
X176408096Y-74009039D01*
X176448754Y-74143087D01*
X176568963Y-74397420D01*
X176736481Y-74623414D01*
X176944869Y-74812385D01*
X177136682Y-74927421D01*
X176998899Y-75001068D01*
X176780392Y-75180392D01*
X176601068Y-75398899D01*
X176467818Y-75648192D01*
X176385764Y-75918691D01*
X176358057Y-76200000D01*
X176385764Y-76481309D01*
X176467818Y-76751808D01*
X176601068Y-77001101D01*
X176780392Y-77219608D01*
X176998899Y-77398932D01*
X177046058Y-77424139D01*
X177050997Y-77474286D01*
X177061160Y-77507789D01*
X176998899Y-77541068D01*
X176780392Y-77720392D01*
X176601068Y-77938899D01*
X176467818Y-78188192D01*
X176385764Y-78458691D01*
X176358057Y-78740000D01*
X176385764Y-79021309D01*
X176467818Y-79291808D01*
X176601068Y-79541101D01*
X176676312Y-79632786D01*
X176163698Y-80145401D01*
X176134700Y-80169199D01*
X176110902Y-80198197D01*
X176110901Y-80198198D01*
X176039726Y-80284924D01*
X175969154Y-80416954D01*
X175950364Y-80478899D01*
X175925698Y-80560214D01*
X175914700Y-80671867D01*
X175914700Y-80671878D01*
X175911024Y-80709200D01*
X175914700Y-80746522D01*
X175914700Y-81211298D01*
X163824476Y-93301523D01*
X163758932Y-93178899D01*
X163579608Y-92960392D01*
X163361101Y-92781068D01*
X163228142Y-92710000D01*
X163361101Y-92638932D01*
X163579608Y-92459608D01*
X163758932Y-92241101D01*
X163892182Y-91991808D01*
X163974236Y-91721309D01*
X164001943Y-91440000D01*
X163974236Y-91158691D01*
X163892182Y-90888192D01*
X163758932Y-90638899D01*
X163643796Y-90498605D01*
X174406404Y-79735998D01*
X174435401Y-79712201D01*
X174515419Y-79614699D01*
X174530374Y-79596477D01*
X174600946Y-79464447D01*
X174622103Y-79394700D01*
X174644403Y-79321186D01*
X174655400Y-79209533D01*
X174655400Y-79209523D01*
X174659076Y-79172200D01*
X174655400Y-79134877D01*
X174655400Y-68894701D01*
X174970101Y-68580000D01*
X176358057Y-68580000D01*
X176385764Y-68861309D01*
X176467818Y-69131808D01*
X176601068Y-69381101D01*
X176780392Y-69599608D01*
X176998899Y-69778932D01*
X177131858Y-69850000D01*
X176998899Y-69921068D01*
X176780392Y-70100392D01*
X176601068Y-70318899D01*
X176467818Y-70568192D01*
X176385764Y-70838691D01*
X176358057Y-71120000D01*
X176385764Y-71401309D01*
X176467818Y-71671808D01*
X176601068Y-71921101D01*
X176780392Y-72139608D01*
X176998899Y-72318932D01*
X177136682Y-72392579D01*
X176944869Y-72507615D01*
X176736481Y-72696586D01*
X176568963Y-72922580D01*
X176448754Y-73176913D01*
X176408096Y-73310961D01*
X176530085Y-73533000D01*
X177673000Y-73533000D01*
X177673000Y-73513000D01*
X177927000Y-73513000D01*
X177927000Y-73533000D01*
X179069915Y-73533000D01*
X179191904Y-73310961D01*
X179151246Y-73176913D01*
X179031037Y-72922580D01*
X178863519Y-72696586D01*
X178655131Y-72507615D01*
X178463318Y-72392579D01*
X178601101Y-72318932D01*
X178819608Y-72139608D01*
X178998932Y-71921101D01*
X179132182Y-71671808D01*
X179214236Y-71401309D01*
X179241943Y-71120000D01*
X179214236Y-70838691D01*
X179132182Y-70568192D01*
X178998932Y-70318899D01*
X178819608Y-70100392D01*
X178601101Y-69921068D01*
X178468142Y-69850000D01*
X178601101Y-69778932D01*
X178819608Y-69599608D01*
X178998932Y-69381101D01*
X179132182Y-69131808D01*
X179214236Y-68861309D01*
X179241943Y-68580000D01*
X179214236Y-68298691D01*
X179132182Y-68028192D01*
X178998932Y-67778899D01*
X178819608Y-67560392D01*
X178601101Y-67381068D01*
X178351808Y-67247818D01*
X178081309Y-67165764D01*
X177870492Y-67145000D01*
X177729508Y-67145000D01*
X177518691Y-67165764D01*
X177248192Y-67247818D01*
X176998899Y-67381068D01*
X176780392Y-67560392D01*
X176601068Y-67778899D01*
X176467818Y-68028192D01*
X176385764Y-68298691D01*
X176358057Y-68580000D01*
X174970101Y-68580000D01*
X178311003Y-65239099D01*
X178340001Y-65215301D01*
X178434974Y-65099576D01*
X178494575Y-64988072D01*
X178650000Y-64988072D01*
X178774482Y-64975812D01*
X178894180Y-64939502D01*
X179004494Y-64880537D01*
X179101185Y-64801185D01*
X179180537Y-64704494D01*
X179239502Y-64594180D01*
X179275812Y-64474482D01*
X179288072Y-64350000D01*
X179288072Y-62650000D01*
X179275812Y-62525518D01*
X179239502Y-62405820D01*
X179180537Y-62295506D01*
X179101185Y-62198815D01*
X179004494Y-62119463D01*
X178894180Y-62060498D01*
X178825313Y-62039607D01*
X178855134Y-62015134D01*
X179040706Y-61789014D01*
X179178599Y-61531034D01*
X179263513Y-61251111D01*
X179292185Y-60960000D01*
X179263513Y-60668889D01*
X179178599Y-60388966D01*
X179040706Y-60130986D01*
X178855134Y-59904866D01*
X178629014Y-59719294D01*
X178574209Y-59690000D01*
X178629014Y-59660706D01*
X178855134Y-59475134D01*
X179040706Y-59249014D01*
X179178599Y-58991034D01*
X179263513Y-58711111D01*
X179292185Y-58420000D01*
X179263513Y-58128889D01*
X179178599Y-57848966D01*
X179040706Y-57590986D01*
X178855134Y-57364866D01*
X178629014Y-57179294D01*
X178574209Y-57150000D01*
X178629014Y-57120706D01*
X178855134Y-56935134D01*
X179040706Y-56709014D01*
X179178599Y-56451034D01*
X179263513Y-56171111D01*
X179292185Y-55880000D01*
X179263513Y-55588889D01*
X179178599Y-55308966D01*
X179040706Y-55050986D01*
X178954120Y-54945481D01*
X179499404Y-54400198D01*
X179528401Y-54376401D01*
X179623374Y-54260676D01*
X179693946Y-54128647D01*
X179737403Y-53985386D01*
X179748400Y-53873733D01*
X179748400Y-53873732D01*
X179752077Y-53836400D01*
X179748400Y-53799067D01*
X179748400Y-52885723D01*
X179752076Y-52848400D01*
X179748400Y-52811077D01*
X179748400Y-52811067D01*
X179737403Y-52699414D01*
X179693946Y-52556153D01*
X179623374Y-52424124D01*
X179528401Y-52308399D01*
X179499402Y-52284601D01*
X178951957Y-51737155D01*
X179040706Y-51629014D01*
X179178599Y-51371034D01*
X179263513Y-51091111D01*
X179292185Y-50800000D01*
X179263513Y-50508889D01*
X179178599Y-50228966D01*
X179040706Y-49970986D01*
X178855134Y-49744866D01*
X178629014Y-49559294D01*
X178564477Y-49524799D01*
X178681355Y-49455178D01*
X178897588Y-49260269D01*
X179071641Y-49026920D01*
X179196825Y-48764099D01*
X179241476Y-48616890D01*
X179120155Y-48387000D01*
X177927000Y-48387000D01*
X177927000Y-48407000D01*
X177673000Y-48407000D01*
X177673000Y-48387000D01*
X176479845Y-48387000D01*
X176358524Y-48616890D01*
X176403175Y-48764099D01*
X176528359Y-49026920D01*
X176702412Y-49260269D01*
X176918645Y-49455178D01*
X177035523Y-49524799D01*
X176970986Y-49559294D01*
X176744866Y-49744866D01*
X176559294Y-49970986D01*
X176466881Y-50143879D01*
X174226112Y-47903110D01*
X176358524Y-47903110D01*
X176479845Y-48133000D01*
X177673000Y-48133000D01*
X177673000Y-46939186D01*
X177927000Y-46939186D01*
X177927000Y-48133000D01*
X179120155Y-48133000D01*
X179241476Y-47903110D01*
X179196825Y-47755901D01*
X179071641Y-47493080D01*
X178897588Y-47259731D01*
X178681355Y-47064822D01*
X178431252Y-46915843D01*
X178156891Y-46818519D01*
X177927000Y-46939186D01*
X177673000Y-46939186D01*
X177443109Y-46818519D01*
X177168748Y-46915843D01*
X176918645Y-47064822D01*
X176702412Y-47259731D01*
X176528359Y-47493080D01*
X176403175Y-47755901D01*
X176358524Y-47903110D01*
X174226112Y-47903110D01*
X173480000Y-47156999D01*
X173480000Y-46940901D01*
X173521101Y-46918932D01*
X173739608Y-46739608D01*
X173918932Y-46521101D01*
X174052182Y-46271808D01*
X174134236Y-46001309D01*
X174161943Y-45720000D01*
X174134236Y-45438691D01*
X174052182Y-45168192D01*
X173918932Y-44918899D01*
X173739608Y-44700392D01*
X173521101Y-44521068D01*
X173271808Y-44387818D01*
X173001309Y-44305764D01*
X172790492Y-44285000D01*
X172649508Y-44285000D01*
X172438691Y-44305764D01*
X172168192Y-44387818D01*
X171918899Y-44521068D01*
X171700392Y-44700392D01*
X171521068Y-44918899D01*
X171387818Y-45168192D01*
X171305764Y-45438691D01*
X171278057Y-45720000D01*
X171305764Y-46001309D01*
X171387818Y-46271808D01*
X171521068Y-46521101D01*
X171700392Y-46739608D01*
X171918899Y-46918932D01*
X171960000Y-46940901D01*
X171960000Y-47434477D01*
X171956324Y-47471800D01*
X171960000Y-47509122D01*
X171960000Y-47509132D01*
X171970997Y-47620785D01*
X171993874Y-47696201D01*
X172014454Y-47764046D01*
X172085026Y-47896076D01*
X172124871Y-47944626D01*
X172179999Y-48011801D01*
X172209003Y-48035604D01*
X176615679Y-52442281D01*
X176559294Y-52510986D01*
X176522405Y-52580000D01*
X172889223Y-52580000D01*
X172851900Y-52576324D01*
X172814577Y-52580000D01*
X172814567Y-52580000D01*
X172702914Y-52590997D01*
X172561812Y-52633799D01*
X172559653Y-52634454D01*
X172427623Y-52705026D01*
X172367095Y-52754701D01*
X172311899Y-52799999D01*
X172288101Y-52828997D01*
X167457099Y-57660000D01*
X160729501Y-57660000D01*
X161556799Y-56832702D01*
X164286903Y-56832702D01*
X164358486Y-57076671D01*
X164613996Y-57197571D01*
X164888184Y-57266300D01*
X165170512Y-57280217D01*
X165450130Y-57238787D01*
X165716292Y-57143603D01*
X165841514Y-57076671D01*
X165913097Y-56832702D01*
X165100000Y-56019605D01*
X164286903Y-56832702D01*
X161556799Y-56832702D01*
X162478989Y-55910512D01*
X163659783Y-55910512D01*
X163701213Y-56190130D01*
X163796397Y-56456292D01*
X163863329Y-56581514D01*
X164107298Y-56653097D01*
X164920395Y-55840000D01*
X165279605Y-55840000D01*
X166092702Y-56653097D01*
X166336671Y-56581514D01*
X166457571Y-56326004D01*
X166526300Y-56051816D01*
X166540217Y-55769488D01*
X166498787Y-55489870D01*
X166403603Y-55223708D01*
X166336671Y-55098486D01*
X166092702Y-55026903D01*
X165279605Y-55840000D01*
X164920395Y-55840000D01*
X164107298Y-55026903D01*
X163863329Y-55098486D01*
X163742429Y-55353996D01*
X163673700Y-55628184D01*
X163659783Y-55910512D01*
X162478989Y-55910512D01*
X163826053Y-54563449D01*
X163848815Y-54591185D01*
X163945506Y-54670537D01*
X164055820Y-54729502D01*
X164175518Y-54765812D01*
X164300000Y-54778072D01*
X164307215Y-54778072D01*
X164286903Y-54847298D01*
X165100000Y-55660395D01*
X165913097Y-54847298D01*
X165892785Y-54778072D01*
X165900000Y-54778072D01*
X166024482Y-54765812D01*
X166144180Y-54729502D01*
X166254494Y-54670537D01*
X166351185Y-54591185D01*
X166430537Y-54494494D01*
X166489502Y-54384180D01*
X166525812Y-54264482D01*
X166538072Y-54140000D01*
X166538072Y-52540000D01*
X166525812Y-52415518D01*
X166489502Y-52295820D01*
X166430537Y-52185506D01*
X166351185Y-52088815D01*
X166323449Y-52066053D01*
X166736303Y-51653199D01*
X166765301Y-51629401D01*
X166860274Y-51513676D01*
X166930846Y-51381647D01*
X166974303Y-51238386D01*
X166985300Y-51126733D01*
X166988977Y-51089400D01*
X166985300Y-51052067D01*
X166985300Y-48674801D01*
X173231003Y-42429099D01*
X173260001Y-42405301D01*
X173354974Y-42289576D01*
X173425546Y-42157547D01*
X173469003Y-42014286D01*
X173472550Y-41978272D01*
X173576927Y-41922481D01*
X173810661Y-41730661D01*
X174002481Y-41496927D01*
X174145017Y-41230261D01*
X174232790Y-40940913D01*
X174262427Y-40640000D01*
X174232790Y-40339087D01*
X174145017Y-40049739D01*
X174002481Y-39783073D01*
X173810661Y-39549339D01*
X173576927Y-39357519D01*
X173310261Y-39214983D01*
X173020913Y-39127210D01*
X172795408Y-39105000D01*
X172644592Y-39105000D01*
X172419087Y-39127210D01*
X172129739Y-39214983D01*
X171863073Y-39357519D01*
X171629339Y-39549339D01*
X171437519Y-39783073D01*
X171294983Y-40049739D01*
X171207210Y-40339087D01*
X171177573Y-40640000D01*
X171207210Y-40940913D01*
X171294983Y-41230261D01*
X171437519Y-41496927D01*
X171629339Y-41730661D01*
X171712000Y-41798499D01*
X166419023Y-47091476D01*
X166351185Y-47008815D01*
X166254494Y-46929463D01*
X166144180Y-46870498D01*
X166024482Y-46834188D01*
X165900000Y-46821928D01*
X165892785Y-46821928D01*
X165913097Y-46752702D01*
X165100000Y-45939605D01*
X164286903Y-46752702D01*
X164307215Y-46821928D01*
X164300000Y-46821928D01*
X164175518Y-46834188D01*
X164055820Y-46870498D01*
X163945506Y-46929463D01*
X163848815Y-47008815D01*
X163769463Y-47105506D01*
X163710498Y-47215820D01*
X163674188Y-47335518D01*
X163661928Y-47460000D01*
X163661928Y-47500000D01*
X158968072Y-47500000D01*
X158968072Y-47410000D01*
X158955812Y-47285518D01*
X158919502Y-47165820D01*
X158860537Y-47055506D01*
X158844462Y-47035918D01*
X158849601Y-47031701D01*
X158873404Y-47002697D01*
X160045589Y-45830512D01*
X163659783Y-45830512D01*
X163701213Y-46110130D01*
X163796397Y-46376292D01*
X163863329Y-46501514D01*
X164107298Y-46573097D01*
X164920395Y-45760000D01*
X165279605Y-45760000D01*
X166092702Y-46573097D01*
X166336671Y-46501514D01*
X166457571Y-46246004D01*
X166526300Y-45971816D01*
X166540217Y-45689488D01*
X166498787Y-45409870D01*
X166403603Y-45143708D01*
X166336671Y-45018486D01*
X166092702Y-44946903D01*
X165279605Y-45760000D01*
X164920395Y-45760000D01*
X164107298Y-44946903D01*
X163863329Y-45018486D01*
X163742429Y-45273996D01*
X163673700Y-45548184D01*
X163659783Y-45830512D01*
X160045589Y-45830512D01*
X161108803Y-44767298D01*
X164286903Y-44767298D01*
X165100000Y-45580395D01*
X165913097Y-44767298D01*
X165841514Y-44523329D01*
X165586004Y-44402429D01*
X165311816Y-44333700D01*
X165029488Y-44319783D01*
X164749870Y-44361213D01*
X164483708Y-44456397D01*
X164358486Y-44523329D01*
X164286903Y-44767298D01*
X161108803Y-44767298D01*
X165975679Y-39900423D01*
X166274211Y-40198980D01*
X166225764Y-40358691D01*
X166198057Y-40640000D01*
X166225764Y-40921309D01*
X166307818Y-41191808D01*
X166441068Y-41441101D01*
X166620392Y-41659608D01*
X166838899Y-41838932D01*
X167088192Y-41972182D01*
X167358691Y-42054236D01*
X167569508Y-42075000D01*
X167710492Y-42075000D01*
X167921309Y-42054236D01*
X168191808Y-41972182D01*
X168441101Y-41838932D01*
X168659608Y-41659608D01*
X168838932Y-41441101D01*
X168972182Y-41191808D01*
X169054236Y-40921309D01*
X169081943Y-40640000D01*
X169054236Y-40358691D01*
X168972182Y-40088192D01*
X168838932Y-39838899D01*
X168659608Y-39620392D01*
X168441101Y-39441068D01*
X168191808Y-39307818D01*
X167921309Y-39225764D01*
X167710492Y-39205000D01*
X167569508Y-39205000D01*
X167442352Y-39217524D01*
X166539511Y-38314611D01*
X166539496Y-38314593D01*
X166539495Y-38314592D01*
X166515701Y-38285599D01*
X166486703Y-38261801D01*
X164141764Y-35916890D01*
X176358524Y-35916890D01*
X176403175Y-36064099D01*
X176528359Y-36326920D01*
X176702412Y-36560269D01*
X176918645Y-36755178D01*
X177168748Y-36904157D01*
X177443109Y-37001481D01*
X177673000Y-36880814D01*
X177673000Y-35687000D01*
X177927000Y-35687000D01*
X177927000Y-36880814D01*
X178156891Y-37001481D01*
X178431252Y-36904157D01*
X178681355Y-36755178D01*
X178897588Y-36560269D01*
X179071641Y-36326920D01*
X179196825Y-36064099D01*
X179241476Y-35916890D01*
X179120155Y-35687000D01*
X177927000Y-35687000D01*
X177673000Y-35687000D01*
X176479845Y-35687000D01*
X176358524Y-35916890D01*
X164141764Y-35916890D01*
X159196181Y-30971367D01*
X159202168Y-30956912D01*
X159265000Y-30641033D01*
X159265000Y-30338665D01*
X161125000Y-30338665D01*
X161125000Y-30621335D01*
X161180147Y-30898574D01*
X161288320Y-31159727D01*
X161445363Y-31394759D01*
X161645241Y-31594637D01*
X161880273Y-31751680D01*
X162141426Y-31859853D01*
X162418665Y-31915000D01*
X162701335Y-31915000D01*
X162978574Y-31859853D01*
X163239727Y-31751680D01*
X163474759Y-31594637D01*
X163674637Y-31394759D01*
X163778043Y-31240000D01*
X166421957Y-31240000D01*
X166525363Y-31394759D01*
X166725241Y-31594637D01*
X166960273Y-31751680D01*
X167221426Y-31859853D01*
X167498665Y-31915000D01*
X167781335Y-31915000D01*
X168058574Y-31859853D01*
X168319727Y-31751680D01*
X168554759Y-31594637D01*
X168754637Y-31394759D01*
X168770667Y-31370768D01*
X170930905Y-33531008D01*
X170954699Y-33560001D01*
X170983692Y-33583795D01*
X170983696Y-33583799D01*
X171054385Y-33641811D01*
X171070424Y-33654974D01*
X171181928Y-33714575D01*
X171181928Y-33920000D01*
X171194188Y-34044482D01*
X171230498Y-34164180D01*
X171289463Y-34274494D01*
X171368815Y-34371185D01*
X171465506Y-34450537D01*
X171575820Y-34509502D01*
X171695518Y-34545812D01*
X171820000Y-34558072D01*
X173620000Y-34558072D01*
X173744482Y-34545812D01*
X173864180Y-34509502D01*
X173974494Y-34450537D01*
X174071185Y-34371185D01*
X174150537Y-34274494D01*
X174209502Y-34164180D01*
X174245812Y-34044482D01*
X174258072Y-33920000D01*
X174258072Y-32170000D01*
X176311928Y-32170000D01*
X176311928Y-33870000D01*
X176324188Y-33994482D01*
X176360498Y-34114180D01*
X176419463Y-34224494D01*
X176498815Y-34321185D01*
X176595506Y-34400537D01*
X176705820Y-34459502D01*
X176786466Y-34483966D01*
X176702412Y-34559731D01*
X176528359Y-34793080D01*
X176403175Y-35055901D01*
X176358524Y-35203110D01*
X176479845Y-35433000D01*
X177673000Y-35433000D01*
X177673000Y-35413000D01*
X177927000Y-35413000D01*
X177927000Y-35433000D01*
X179120155Y-35433000D01*
X179241476Y-35203110D01*
X179196825Y-35055901D01*
X179071641Y-34793080D01*
X178897588Y-34559731D01*
X178813534Y-34483966D01*
X178894180Y-34459502D01*
X179004494Y-34400537D01*
X179101185Y-34321185D01*
X179180537Y-34224494D01*
X179239502Y-34114180D01*
X179275812Y-33994482D01*
X179288072Y-33870000D01*
X179288072Y-32170000D01*
X179275812Y-32045518D01*
X179239502Y-31925820D01*
X179180537Y-31815506D01*
X179101185Y-31718815D01*
X179004494Y-31639463D01*
X178894180Y-31580498D01*
X178774482Y-31544188D01*
X178650000Y-31531928D01*
X176950000Y-31531928D01*
X176825518Y-31544188D01*
X176705820Y-31580498D01*
X176595506Y-31639463D01*
X176498815Y-31718815D01*
X176419463Y-31815506D01*
X176360498Y-31925820D01*
X176324188Y-32045518D01*
X176311928Y-32170000D01*
X174258072Y-32170000D01*
X174258072Y-32120000D01*
X174245812Y-31995518D01*
X174209502Y-31875820D01*
X174150537Y-31765506D01*
X174071185Y-31668815D01*
X173974494Y-31589463D01*
X173864180Y-31530498D01*
X173744482Y-31494188D01*
X173620000Y-31481928D01*
X171820000Y-31481928D01*
X171695518Y-31494188D01*
X171575820Y-31530498D01*
X171465506Y-31589463D01*
X171368815Y-31668815D01*
X171300978Y-31751475D01*
X169518504Y-29969003D01*
X169494701Y-29939999D01*
X169378976Y-29845026D01*
X169246947Y-29774454D01*
X169103686Y-29730997D01*
X168992033Y-29720000D01*
X168992022Y-29720000D01*
X168954700Y-29716324D01*
X168917378Y-29720000D01*
X168858043Y-29720000D01*
X168754637Y-29565241D01*
X168554759Y-29365363D01*
X168319727Y-29208320D01*
X168058574Y-29100147D01*
X167781335Y-29045000D01*
X167498665Y-29045000D01*
X167221426Y-29100147D01*
X166960273Y-29208320D01*
X166725241Y-29365363D01*
X166525363Y-29565241D01*
X166421957Y-29720000D01*
X163778043Y-29720000D01*
X163674637Y-29565241D01*
X163474759Y-29365363D01*
X163239727Y-29208320D01*
X162978574Y-29100147D01*
X162701335Y-29045000D01*
X162418665Y-29045000D01*
X162141426Y-29100147D01*
X161880273Y-29208320D01*
X161645241Y-29365363D01*
X161445363Y-29565241D01*
X161288320Y-29800273D01*
X161180147Y-30061426D01*
X161125000Y-30338665D01*
X159265000Y-30338665D01*
X159265000Y-30318967D01*
X159202168Y-30003088D01*
X159078918Y-29705537D01*
X158899987Y-29437748D01*
X158672252Y-29210013D01*
X158404463Y-29031082D01*
X158106912Y-28907832D01*
X157791033Y-28845000D01*
X157468967Y-28845000D01*
X157153088Y-28907832D01*
X156855537Y-29031082D01*
X156587748Y-29210013D01*
X156360013Y-29437748D01*
X156181082Y-29705537D01*
X156175091Y-29720000D01*
X152584909Y-29720000D01*
X152578918Y-29705537D01*
X152399987Y-29437748D01*
X152172252Y-29210013D01*
X151904463Y-29031082D01*
X151606912Y-28907832D01*
X151291033Y-28845000D01*
X150968967Y-28845000D01*
X150653088Y-28907832D01*
X150355537Y-29031082D01*
X150087748Y-29210013D01*
X149860013Y-29437748D01*
X149681082Y-29705537D01*
X149557832Y-30003088D01*
X149495000Y-30318967D01*
X149495000Y-30641033D01*
X149557832Y-30956912D01*
X149681082Y-31254463D01*
X149860013Y-31522252D01*
X150087748Y-31749987D01*
X150355537Y-31928918D01*
X150653088Y-32052168D01*
X150968967Y-32115000D01*
X151291033Y-32115000D01*
X151606912Y-32052168D01*
X151904463Y-31928918D01*
X152172252Y-31749987D01*
X152399987Y-31522252D01*
X152578918Y-31254463D01*
X152584909Y-31240000D01*
X156175091Y-31240000D01*
X156181082Y-31254463D01*
X156360013Y-31522252D01*
X156587748Y-31749987D01*
X156855537Y-31928918D01*
X157153088Y-32052168D01*
X157468967Y-32115000D01*
X157791033Y-32115000D01*
X158106912Y-32052168D01*
X158121384Y-32046173D01*
X164900895Y-38825603D01*
X163803750Y-39922748D01*
X163758932Y-39838899D01*
X163579608Y-39620392D01*
X163361101Y-39441068D01*
X163111808Y-39307818D01*
X162841309Y-39225764D01*
X162630492Y-39205000D01*
X162489508Y-39205000D01*
X162278691Y-39225764D01*
X162008192Y-39307818D01*
X161758899Y-39441068D01*
X161540392Y-39620392D01*
X161361068Y-39838899D01*
X161339099Y-39880000D01*
X159754802Y-39880000D01*
X159046177Y-39171375D01*
X159052168Y-39156912D01*
X159115000Y-38841033D01*
X159115000Y-38518967D01*
X159052168Y-38203088D01*
X158928918Y-37905537D01*
X158749987Y-37637748D01*
X158522252Y-37410013D01*
X158254463Y-37231082D01*
X157956912Y-37107832D01*
X157641033Y-37045000D01*
X157318967Y-37045000D01*
X157003088Y-37107832D01*
X156705537Y-37231082D01*
X156437748Y-37410013D01*
X156210013Y-37637748D01*
X156031082Y-37905537D01*
X155907832Y-38203088D01*
X155845000Y-38518967D01*
X155845000Y-38841033D01*
X155907832Y-39156912D01*
X156031082Y-39454463D01*
X156210013Y-39722252D01*
X156437748Y-39949987D01*
X156705537Y-40128918D01*
X157003088Y-40252168D01*
X157318967Y-40315000D01*
X157641033Y-40315000D01*
X157956912Y-40252168D01*
X157971375Y-40246177D01*
X158680000Y-40954802D01*
X158680001Y-42247585D01*
X158615413Y-42224192D01*
X157659605Y-43180000D01*
X157673748Y-43194143D01*
X157494143Y-43373748D01*
X157480000Y-43359605D01*
X156524192Y-44315413D01*
X156619956Y-44579814D01*
X156810359Y-44672440D01*
X156296099Y-45186700D01*
X155595322Y-45186700D01*
X155557999Y-45183024D01*
X155520676Y-45186700D01*
X155520667Y-45186700D01*
X155409014Y-45197697D01*
X155265753Y-45241154D01*
X155133724Y-45311726D01*
X155017999Y-45406699D01*
X154994201Y-45435697D01*
X153324215Y-47105684D01*
X153166920Y-46988359D01*
X152904099Y-46863175D01*
X152756890Y-46818524D01*
X152527000Y-46939845D01*
X152527000Y-48133000D01*
X152547000Y-48133000D01*
X152547000Y-48387000D01*
X152527000Y-48387000D01*
X152527000Y-48407000D01*
X152273000Y-48407000D01*
X152273000Y-48387000D01*
X151079186Y-48387000D01*
X150958519Y-48616891D01*
X151055843Y-48891252D01*
X151204822Y-49141355D01*
X151399731Y-49357588D01*
X151633080Y-49531641D01*
X151699921Y-49563478D01*
X148683399Y-52580000D01*
X147447000Y-52580000D01*
X147447000Y-47903109D01*
X150958519Y-47903109D01*
X151079186Y-48133000D01*
X152273000Y-48133000D01*
X152273000Y-46939845D01*
X152043110Y-46818524D01*
X151895901Y-46863175D01*
X151633080Y-46988359D01*
X151399731Y-47162412D01*
X151204822Y-47378645D01*
X151055843Y-47628748D01*
X150958519Y-47903109D01*
X147447000Y-47903109D01*
X147447000Y-44315413D01*
X150024192Y-44315413D01*
X150119956Y-44579814D01*
X150409571Y-44720704D01*
X150721108Y-44802384D01*
X151042595Y-44821718D01*
X151361675Y-44777961D01*
X151666088Y-44672795D01*
X151840044Y-44579814D01*
X151935808Y-44315413D01*
X150980000Y-43359605D01*
X150024192Y-44315413D01*
X147447000Y-44315413D01*
X147447000Y-43242595D01*
X149338282Y-43242595D01*
X149382039Y-43561675D01*
X149487205Y-43866088D01*
X149580186Y-44040044D01*
X149844587Y-44135808D01*
X150800395Y-43180000D01*
X151159605Y-43180000D01*
X152115413Y-44135808D01*
X152379814Y-44040044D01*
X152520704Y-43750429D01*
X152602384Y-43438892D01*
X152614189Y-43242595D01*
X155838282Y-43242595D01*
X155882039Y-43561675D01*
X155987205Y-43866088D01*
X156080186Y-44040044D01*
X156344587Y-44135808D01*
X157300395Y-43180000D01*
X156344587Y-42224192D01*
X156080186Y-42319956D01*
X155939296Y-42609571D01*
X155857616Y-42921108D01*
X155838282Y-43242595D01*
X152614189Y-43242595D01*
X152621718Y-43117405D01*
X152577961Y-42798325D01*
X152472795Y-42493912D01*
X152379814Y-42319956D01*
X152115413Y-42224192D01*
X151159605Y-43180000D01*
X150800395Y-43180000D01*
X149844587Y-42224192D01*
X149580186Y-42319956D01*
X149439296Y-42609571D01*
X149357616Y-42921108D01*
X149338282Y-43242595D01*
X147447000Y-43242595D01*
X147447000Y-42044587D01*
X150024192Y-42044587D01*
X150980000Y-43000395D01*
X151935808Y-42044587D01*
X156524192Y-42044587D01*
X157480000Y-43000395D01*
X158435808Y-42044587D01*
X158340044Y-41780186D01*
X158050429Y-41639296D01*
X157738892Y-41557616D01*
X157417405Y-41538282D01*
X157098325Y-41582039D01*
X156793912Y-41687205D01*
X156619956Y-41780186D01*
X156524192Y-42044587D01*
X151935808Y-42044587D01*
X151840044Y-41780186D01*
X151550429Y-41639296D01*
X151238892Y-41557616D01*
X150917405Y-41538282D01*
X150598325Y-41582039D01*
X150293912Y-41687205D01*
X150119956Y-41780186D01*
X150024192Y-42044587D01*
X147447000Y-42044587D01*
X147447000Y-38518967D01*
X149345000Y-38518967D01*
X149345000Y-38841033D01*
X149407832Y-39156912D01*
X149531082Y-39454463D01*
X149710013Y-39722252D01*
X149937748Y-39949987D01*
X150205537Y-40128918D01*
X150503088Y-40252168D01*
X150818967Y-40315000D01*
X151141033Y-40315000D01*
X151456912Y-40252168D01*
X151754463Y-40128918D01*
X152022252Y-39949987D01*
X152249987Y-39722252D01*
X152428918Y-39454463D01*
X152552168Y-39156912D01*
X152615000Y-38841033D01*
X152615000Y-38518967D01*
X152552168Y-38203088D01*
X152428918Y-37905537D01*
X152249987Y-37637748D01*
X152022252Y-37410013D01*
X151754463Y-37231082D01*
X151456912Y-37107832D01*
X151141033Y-37045000D01*
X150818967Y-37045000D01*
X150503088Y-37107832D01*
X150205537Y-37231082D01*
X149937748Y-37410013D01*
X149710013Y-37637748D01*
X149531082Y-37905537D01*
X149407832Y-38203088D01*
X149345000Y-38518967D01*
X147447000Y-38518967D01*
X147447000Y-36115413D01*
X150174192Y-36115413D01*
X150269956Y-36379814D01*
X150559571Y-36520704D01*
X150871108Y-36602384D01*
X151192595Y-36621718D01*
X151511675Y-36577961D01*
X151816088Y-36472795D01*
X151990044Y-36379814D01*
X152085808Y-36115413D01*
X156674192Y-36115413D01*
X156769956Y-36379814D01*
X157059571Y-36520704D01*
X157371108Y-36602384D01*
X157692595Y-36621718D01*
X158011675Y-36577961D01*
X158316088Y-36472795D01*
X158490044Y-36379814D01*
X158585808Y-36115413D01*
X157630000Y-35159605D01*
X156674192Y-36115413D01*
X152085808Y-36115413D01*
X151130000Y-35159605D01*
X150174192Y-36115413D01*
X147447000Y-36115413D01*
X147447000Y-35042595D01*
X149488282Y-35042595D01*
X149532039Y-35361675D01*
X149637205Y-35666088D01*
X149730186Y-35840044D01*
X149994587Y-35935808D01*
X150950395Y-34980000D01*
X151309605Y-34980000D01*
X152265413Y-35935808D01*
X152529814Y-35840044D01*
X152670704Y-35550429D01*
X152752384Y-35238892D01*
X152764189Y-35042595D01*
X155988282Y-35042595D01*
X156032039Y-35361675D01*
X156137205Y-35666088D01*
X156230186Y-35840044D01*
X156494587Y-35935808D01*
X157450395Y-34980000D01*
X157809605Y-34980000D01*
X158765413Y-35935808D01*
X159029814Y-35840044D01*
X159170704Y-35550429D01*
X159252384Y-35238892D01*
X159271718Y-34917405D01*
X159227961Y-34598325D01*
X159122795Y-34293912D01*
X159029814Y-34119956D01*
X158765413Y-34024192D01*
X157809605Y-34980000D01*
X157450395Y-34980000D01*
X156494587Y-34024192D01*
X156230186Y-34119956D01*
X156089296Y-34409571D01*
X156007616Y-34721108D01*
X155988282Y-35042595D01*
X152764189Y-35042595D01*
X152771718Y-34917405D01*
X152727961Y-34598325D01*
X152622795Y-34293912D01*
X152529814Y-34119956D01*
X152265413Y-34024192D01*
X151309605Y-34980000D01*
X150950395Y-34980000D01*
X149994587Y-34024192D01*
X149730186Y-34119956D01*
X149589296Y-34409571D01*
X149507616Y-34721108D01*
X149488282Y-35042595D01*
X147447000Y-35042595D01*
X147447000Y-33844587D01*
X150174192Y-33844587D01*
X151130000Y-34800395D01*
X152085808Y-33844587D01*
X156674192Y-33844587D01*
X157630000Y-34800395D01*
X158585808Y-33844587D01*
X158490044Y-33580186D01*
X158200429Y-33439296D01*
X157888892Y-33357616D01*
X157567405Y-33338282D01*
X157248325Y-33382039D01*
X156943912Y-33487205D01*
X156769956Y-33580186D01*
X156674192Y-33844587D01*
X152085808Y-33844587D01*
X151990044Y-33580186D01*
X151700429Y-33439296D01*
X151388892Y-33357616D01*
X151067405Y-33338282D01*
X150748325Y-33382039D01*
X150443912Y-33487205D01*
X150269956Y-33580186D01*
X150174192Y-33844587D01*
X147447000Y-33844587D01*
X147447000Y-33020000D01*
X147444560Y-32995224D01*
X147437333Y-32971399D01*
X147425597Y-32949443D01*
X147409803Y-32930197D01*
X147390557Y-32914403D01*
X147368601Y-32902667D01*
X147344776Y-32895440D01*
X147320000Y-32893000D01*
X139827000Y-32893000D01*
X139827000Y-22625098D01*
X157635000Y-22625098D01*
X157635000Y-23094902D01*
X157726654Y-23555679D01*
X157906440Y-23989721D01*
X158167450Y-24380349D01*
X158499651Y-24712550D01*
X158890279Y-24973560D01*
X159324321Y-25153346D01*
X159785098Y-25245000D01*
X160254902Y-25245000D01*
X160715679Y-25153346D01*
X161149721Y-24973560D01*
X161540349Y-24712550D01*
X161872550Y-24380349D01*
X162133560Y-23989721D01*
X162313346Y-23555679D01*
X162405000Y-23094902D01*
X162405000Y-22625098D01*
X162313346Y-22164321D01*
X162133560Y-21730279D01*
X161872550Y-21339651D01*
X161540349Y-21007450D01*
X161149721Y-20746440D01*
X160715679Y-20566654D01*
X160254902Y-20475000D01*
X159785098Y-20475000D01*
X159324321Y-20566654D01*
X158890279Y-20746440D01*
X158499651Y-21007450D01*
X158167450Y-21339651D01*
X157906440Y-21730279D01*
X157726654Y-22164321D01*
X157635000Y-22625098D01*
X139827000Y-22625098D01*
X139827000Y-20447000D01*
X180213000Y-20447000D01*
X180213000Y-114173000D01*
X180213000Y-114173000D01*
G37*
X180213000Y-114173000D02*
X139827000Y-114173000D01*
X139827000Y-111525098D01*
X157635000Y-111525098D01*
X157635000Y-111994902D01*
X157726654Y-112455679D01*
X157906440Y-112889721D01*
X158167450Y-113280349D01*
X158499651Y-113612550D01*
X158890279Y-113873560D01*
X159324321Y-114053346D01*
X159785098Y-114145000D01*
X160254902Y-114145000D01*
X160715679Y-114053346D01*
X161149721Y-113873560D01*
X161540349Y-113612550D01*
X161872550Y-113280349D01*
X162133560Y-112889721D01*
X162313346Y-112455679D01*
X162405000Y-111994902D01*
X162405000Y-111525098D01*
X162313346Y-111064321D01*
X162133560Y-110630279D01*
X161872550Y-110239651D01*
X161540349Y-109907450D01*
X161149721Y-109646440D01*
X160715679Y-109466654D01*
X160254902Y-109375000D01*
X159785098Y-109375000D01*
X159324321Y-109466654D01*
X158890279Y-109646440D01*
X158499651Y-109907450D01*
X158167450Y-110239651D01*
X157906440Y-110630279D01*
X157726654Y-111064321D01*
X157635000Y-111525098D01*
X139827000Y-111525098D01*
X139827000Y-107672702D01*
X146586903Y-107672702D01*
X146658486Y-107916671D01*
X146913996Y-108037571D01*
X147188184Y-108106300D01*
X147470512Y-108120217D01*
X147750130Y-108078787D01*
X148016292Y-107983603D01*
X148141514Y-107916671D01*
X148213097Y-107672702D01*
X147400000Y-106859605D01*
X146586903Y-107672702D01*
X139827000Y-107672702D01*
X139827000Y-106750512D01*
X145959783Y-106750512D01*
X146001213Y-107030130D01*
X146096397Y-107296292D01*
X146163329Y-107421514D01*
X146407298Y-107493097D01*
X147220395Y-106680000D01*
X147579605Y-106680000D01*
X148392702Y-107493097D01*
X148636671Y-107421514D01*
X148757571Y-107166004D01*
X148826300Y-106891816D01*
X148840217Y-106609488D01*
X148798787Y-106329870D01*
X148703603Y-106063708D01*
X148636671Y-105938486D01*
X148392702Y-105866903D01*
X147579605Y-106680000D01*
X147220395Y-106680000D01*
X146407298Y-105866903D01*
X146163329Y-105938486D01*
X146042429Y-106193996D01*
X145973700Y-106468184D01*
X145959783Y-106750512D01*
X139827000Y-106750512D01*
X139827000Y-105687298D01*
X146586903Y-105687298D01*
X147400000Y-106500395D01*
X148213097Y-105687298D01*
X148141514Y-105443329D01*
X147886004Y-105322429D01*
X147611816Y-105253700D01*
X147329488Y-105239783D01*
X147049870Y-105281213D01*
X146783708Y-105376397D01*
X146658486Y-105443329D01*
X146586903Y-105687298D01*
X139827000Y-105687298D01*
X139827000Y-101949039D01*
X140848096Y-101949039D01*
X140888754Y-102083087D01*
X141008963Y-102337420D01*
X141176481Y-102563414D01*
X141384869Y-102752385D01*
X141626119Y-102897070D01*
X141890960Y-102991909D01*
X142113000Y-102870624D01*
X142113000Y-101727000D01*
X142367000Y-101727000D01*
X142367000Y-102870624D01*
X142589040Y-102991909D01*
X142853881Y-102897070D01*
X143095131Y-102752385D01*
X143303519Y-102563414D01*
X143471037Y-102337420D01*
X143591246Y-102083087D01*
X143631904Y-101949039D01*
X143509915Y-101727000D01*
X142367000Y-101727000D01*
X142113000Y-101727000D01*
X140970085Y-101727000D01*
X140848096Y-101949039D01*
X139827000Y-101949039D01*
X139827000Y-58547000D01*
X140810566Y-58547000D01*
X140825764Y-58701309D01*
X140907818Y-58971808D01*
X141041068Y-59221101D01*
X141139751Y-59341347D01*
X140603702Y-59877397D01*
X140574699Y-59901199D01*
X140519571Y-59968374D01*
X140479726Y-60016924D01*
X140418758Y-60130986D01*
X140409154Y-60148954D01*
X140365697Y-60292215D01*
X140354700Y-60403868D01*
X140354700Y-60403878D01*
X140351024Y-60441200D01*
X140354700Y-60478523D01*
X140354701Y-66573468D01*
X140351024Y-66610800D01*
X140354701Y-66648133D01*
X140365698Y-66759786D01*
X140374561Y-66789003D01*
X140409154Y-66903046D01*
X140479726Y-67035076D01*
X140550901Y-67121802D01*
X140574700Y-67150801D01*
X140603698Y-67174599D01*
X141116312Y-67687214D01*
X141041068Y-67778899D01*
X140907818Y-68028192D01*
X140825764Y-68298691D01*
X140798057Y-68580000D01*
X140825764Y-68861309D01*
X140907818Y-69131808D01*
X141041068Y-69381101D01*
X141220392Y-69599608D01*
X141438899Y-69778932D01*
X141571858Y-69850000D01*
X141438899Y-69921068D01*
X141220392Y-70100392D01*
X141041068Y-70318899D01*
X140907818Y-70568192D01*
X140825764Y-70838691D01*
X140798057Y-71120000D01*
X140825764Y-71401309D01*
X140907818Y-71671808D01*
X141041068Y-71921101D01*
X141220392Y-72139608D01*
X141438899Y-72318932D01*
X141571858Y-72390000D01*
X141438899Y-72461068D01*
X141220392Y-72640392D01*
X141041068Y-72858899D01*
X140907818Y-73108192D01*
X140825764Y-73378691D01*
X140798057Y-73660000D01*
X140825764Y-73941309D01*
X140907818Y-74211808D01*
X141041068Y-74461101D01*
X141220392Y-74679608D01*
X141438899Y-74858932D01*
X141480001Y-74880901D01*
X141480000Y-74979099D01*
X141438899Y-75001068D01*
X141220392Y-75180392D01*
X141041068Y-75398899D01*
X140907818Y-75648192D01*
X140825764Y-75918691D01*
X140798057Y-76200000D01*
X140825764Y-76481309D01*
X140907818Y-76751808D01*
X141041068Y-77001101D01*
X141220392Y-77219608D01*
X141438899Y-77398932D01*
X141571858Y-77470000D01*
X141438899Y-77541068D01*
X141220392Y-77720392D01*
X141041068Y-77938899D01*
X140907818Y-78188192D01*
X140825764Y-78458691D01*
X140798057Y-78740000D01*
X140825764Y-79021309D01*
X140907818Y-79291808D01*
X141041068Y-79541101D01*
X141220392Y-79759608D01*
X141438899Y-79938932D01*
X141571858Y-80010000D01*
X141438899Y-80081068D01*
X141220392Y-80260392D01*
X141041068Y-80478899D01*
X140907818Y-80728192D01*
X140825764Y-80998691D01*
X140798057Y-81280000D01*
X140825764Y-81561309D01*
X140907818Y-81831808D01*
X141041068Y-82081101D01*
X141220392Y-82299608D01*
X141438899Y-82478932D01*
X141571858Y-82550000D01*
X141438899Y-82621068D01*
X141220392Y-82800392D01*
X141041068Y-83018899D01*
X140907818Y-83268192D01*
X140825764Y-83538691D01*
X140798057Y-83820000D01*
X140825764Y-84101309D01*
X140907818Y-84371808D01*
X141041068Y-84621101D01*
X141220392Y-84839608D01*
X141438899Y-85018932D01*
X141571858Y-85090000D01*
X141438899Y-85161068D01*
X141220392Y-85340392D01*
X141041068Y-85558899D01*
X140907818Y-85808192D01*
X140825764Y-86078691D01*
X140798057Y-86360000D01*
X140825764Y-86641309D01*
X140907818Y-86911808D01*
X141041068Y-87161101D01*
X141220392Y-87379608D01*
X141438899Y-87558932D01*
X141486058Y-87584139D01*
X141490997Y-87634286D01*
X141501160Y-87667789D01*
X141438899Y-87701068D01*
X141220392Y-87880392D01*
X141041068Y-88098899D01*
X140907818Y-88348192D01*
X140825764Y-88618691D01*
X140798057Y-88900000D01*
X140825764Y-89181309D01*
X140907818Y-89451808D01*
X141041068Y-89701101D01*
X141220392Y-89919608D01*
X141438899Y-90098932D01*
X141571858Y-90170000D01*
X141438899Y-90241068D01*
X141220392Y-90420392D01*
X141041068Y-90638899D01*
X140907818Y-90888192D01*
X140825764Y-91158691D01*
X140798057Y-91440000D01*
X140825764Y-91721309D01*
X140907818Y-91991808D01*
X141041068Y-92241101D01*
X141220392Y-92459608D01*
X141438899Y-92638932D01*
X141571858Y-92710000D01*
X141438899Y-92781068D01*
X141220392Y-92960392D01*
X141041068Y-93178899D01*
X140907818Y-93428192D01*
X140825764Y-93698691D01*
X140798057Y-93980000D01*
X140825764Y-94261309D01*
X140907818Y-94531808D01*
X141041068Y-94781101D01*
X141220392Y-94999608D01*
X141438899Y-95178932D01*
X141571858Y-95250000D01*
X141438899Y-95321068D01*
X141220392Y-95500392D01*
X141041068Y-95718899D01*
X140907818Y-95968192D01*
X140825764Y-96238691D01*
X140798057Y-96520000D01*
X140825764Y-96801309D01*
X140907818Y-97071808D01*
X141041068Y-97321101D01*
X141220392Y-97539608D01*
X141438899Y-97718932D01*
X141571858Y-97790000D01*
X141438899Y-97861068D01*
X141220392Y-98040392D01*
X141041068Y-98258899D01*
X140907818Y-98508192D01*
X140825764Y-98778691D01*
X140798057Y-99060000D01*
X140825764Y-99341309D01*
X140907818Y-99611808D01*
X141041068Y-99861101D01*
X141220392Y-100079608D01*
X141438899Y-100258932D01*
X141576682Y-100332579D01*
X141384869Y-100447615D01*
X141176481Y-100636586D01*
X141008963Y-100862580D01*
X140888754Y-101116913D01*
X140848096Y-101250961D01*
X140970085Y-101473000D01*
X142113000Y-101473000D01*
X142113000Y-101453000D01*
X142367000Y-101453000D01*
X142367000Y-101473000D01*
X143509915Y-101473000D01*
X143631904Y-101250961D01*
X143591246Y-101116913D01*
X143471037Y-100862580D01*
X143303519Y-100636586D01*
X143095131Y-100447615D01*
X142903318Y-100332579D01*
X143041101Y-100258932D01*
X143259608Y-100079608D01*
X143438932Y-99861101D01*
X143572182Y-99611808D01*
X143654236Y-99341309D01*
X143681943Y-99060000D01*
X143654236Y-98778691D01*
X143572182Y-98508192D01*
X143438932Y-98258899D01*
X143259608Y-98040392D01*
X143041101Y-97861068D01*
X142908142Y-97790000D01*
X143041101Y-97718932D01*
X143259608Y-97539608D01*
X143438932Y-97321101D01*
X143572182Y-97071808D01*
X143654236Y-96801309D01*
X143681943Y-96520000D01*
X143654236Y-96238691D01*
X143572182Y-95968192D01*
X143438932Y-95718899D01*
X143259608Y-95500392D01*
X143041101Y-95321068D01*
X142908142Y-95250000D01*
X143041101Y-95178932D01*
X143259608Y-94999608D01*
X143282371Y-94971872D01*
X154012100Y-105701602D01*
X154035899Y-105730601D01*
X154064897Y-105754399D01*
X154151624Y-105825574D01*
X154283653Y-105896146D01*
X154362290Y-105920000D01*
X153618043Y-105920000D01*
X153514637Y-105765241D01*
X153314759Y-105565363D01*
X153079727Y-105408320D01*
X152818574Y-105300147D01*
X152541335Y-105245000D01*
X152258665Y-105245000D01*
X151981426Y-105300147D01*
X151720273Y-105408320D01*
X151485241Y-105565363D01*
X151285363Y-105765241D01*
X151128320Y-106000273D01*
X151020147Y-106261426D01*
X150965000Y-106538665D01*
X150965000Y-106821335D01*
X151020147Y-107098574D01*
X151128320Y-107359727D01*
X151285363Y-107594759D01*
X151485241Y-107794637D01*
X151720273Y-107951680D01*
X151981426Y-108059853D01*
X152258665Y-108115000D01*
X152541335Y-108115000D01*
X152818574Y-108059853D01*
X153079727Y-107951680D01*
X153314759Y-107794637D01*
X153514637Y-107594759D01*
X153618043Y-107440000D01*
X166421957Y-107440000D01*
X166525363Y-107594759D01*
X166725241Y-107794637D01*
X166960273Y-107951680D01*
X167221426Y-108059853D01*
X167498665Y-108115000D01*
X167781335Y-108115000D01*
X168058574Y-108059853D01*
X168319727Y-107951680D01*
X168554759Y-107794637D01*
X168754637Y-107594759D01*
X168911680Y-107359727D01*
X168973054Y-107211556D01*
X170984205Y-109222708D01*
X171007999Y-109251701D01*
X171036992Y-109275495D01*
X171036996Y-109275499D01*
X171107685Y-109333511D01*
X171123724Y-109346674D01*
X171255753Y-109417246D01*
X171399014Y-109460703D01*
X171510667Y-109471700D01*
X171510676Y-109471700D01*
X171547999Y-109475376D01*
X171585322Y-109471700D01*
X173551978Y-109471700D01*
X173589300Y-109475376D01*
X173626622Y-109471700D01*
X173626633Y-109471700D01*
X173738286Y-109460703D01*
X173881547Y-109417246D01*
X174013576Y-109346674D01*
X174129301Y-109251701D01*
X174153104Y-109222697D01*
X179887004Y-103488798D01*
X179916001Y-103465001D01*
X180010974Y-103349276D01*
X180081546Y-103217247D01*
X180125003Y-103073986D01*
X180136000Y-102962333D01*
X180136000Y-102962332D01*
X180139677Y-102925000D01*
X180136000Y-102887667D01*
X180136000Y-98977322D01*
X180139676Y-98939999D01*
X180136000Y-98902676D01*
X180136000Y-98902667D01*
X180125003Y-98791014D01*
X180081546Y-98647753D01*
X180010974Y-98515724D01*
X179916001Y-98399999D01*
X179887003Y-98376201D01*
X178923643Y-97412841D01*
X178998932Y-97321101D01*
X179132182Y-97071808D01*
X179214236Y-96801309D01*
X179241943Y-96520000D01*
X179214236Y-96238691D01*
X179132182Y-95968192D01*
X178998932Y-95718899D01*
X178819608Y-95500392D01*
X178601101Y-95321068D01*
X178468142Y-95250000D01*
X178601101Y-95178932D01*
X178819608Y-94999608D01*
X178998932Y-94781101D01*
X179132182Y-94531808D01*
X179214236Y-94261309D01*
X179241943Y-93980000D01*
X179214236Y-93698691D01*
X179132182Y-93428192D01*
X178998932Y-93178899D01*
X178819608Y-92960392D01*
X178601101Y-92781068D01*
X178468142Y-92710000D01*
X178601101Y-92638932D01*
X178819608Y-92459608D01*
X178998932Y-92241101D01*
X179132182Y-91991808D01*
X179214236Y-91721309D01*
X179241943Y-91440000D01*
X179214236Y-91158691D01*
X179132182Y-90888192D01*
X178998932Y-90638899D01*
X178819608Y-90420392D01*
X178601101Y-90241068D01*
X178468142Y-90170000D01*
X178601101Y-90098932D01*
X178819608Y-89919608D01*
X178998932Y-89701101D01*
X179132182Y-89451808D01*
X179214236Y-89181309D01*
X179241943Y-88900000D01*
X179214236Y-88618691D01*
X179132182Y-88348192D01*
X178998932Y-88098899D01*
X178819608Y-87880392D01*
X178601101Y-87701068D01*
X178468142Y-87630000D01*
X178601101Y-87558932D01*
X178819608Y-87379608D01*
X178998932Y-87161101D01*
X179132182Y-86911808D01*
X179214236Y-86641309D01*
X179241943Y-86360000D01*
X179214236Y-86078691D01*
X179132182Y-85808192D01*
X178998932Y-85558899D01*
X178819608Y-85340392D01*
X178601101Y-85161068D01*
X178463318Y-85087421D01*
X178655131Y-84972385D01*
X178863519Y-84783414D01*
X179031037Y-84557420D01*
X179151246Y-84303087D01*
X179191904Y-84169039D01*
X179069915Y-83947000D01*
X177927000Y-83947000D01*
X177927000Y-83967000D01*
X177673000Y-83967000D01*
X177673000Y-83947000D01*
X177653000Y-83947000D01*
X177653000Y-83693000D01*
X177673000Y-83693000D01*
X177673000Y-83673000D01*
X177927000Y-83673000D01*
X177927000Y-83693000D01*
X179069915Y-83693000D01*
X179191904Y-83470961D01*
X179151246Y-83336913D01*
X179031037Y-83082580D01*
X178907662Y-82916139D01*
X179436304Y-82387498D01*
X179465301Y-82363701D01*
X179560274Y-82247976D01*
X179630846Y-82115947D01*
X179674303Y-81972686D01*
X179685300Y-81861033D01*
X179685300Y-81861024D01*
X179688976Y-81823701D01*
X179685300Y-81786378D01*
X179685300Y-78206523D01*
X179688976Y-78169200D01*
X179685300Y-78131877D01*
X179685300Y-78131867D01*
X179674303Y-78020214D01*
X179630846Y-77876953D01*
X179560274Y-77744924D01*
X179465301Y-77629199D01*
X179436303Y-77605401D01*
X178923688Y-77092786D01*
X178998932Y-77001101D01*
X179132182Y-76751808D01*
X179214236Y-76481309D01*
X179241943Y-76200000D01*
X179214236Y-75918691D01*
X179132182Y-75648192D01*
X178998932Y-75398899D01*
X178819608Y-75180392D01*
X178601101Y-75001068D01*
X178463318Y-74927421D01*
X178655131Y-74812385D01*
X178863519Y-74623414D01*
X179031037Y-74397420D01*
X179151246Y-74143087D01*
X179191904Y-74009039D01*
X179069915Y-73787000D01*
X177927000Y-73787000D01*
X177927000Y-73807000D01*
X177673000Y-73807000D01*
X177673000Y-73787000D01*
X176530085Y-73787000D01*
X176408096Y-74009039D01*
X176448754Y-74143087D01*
X176568963Y-74397420D01*
X176736481Y-74623414D01*
X176944869Y-74812385D01*
X177136682Y-74927421D01*
X176998899Y-75001068D01*
X176780392Y-75180392D01*
X176601068Y-75398899D01*
X176467818Y-75648192D01*
X176385764Y-75918691D01*
X176358057Y-76200000D01*
X176385764Y-76481309D01*
X176467818Y-76751808D01*
X176601068Y-77001101D01*
X176780392Y-77219608D01*
X176998899Y-77398932D01*
X177046058Y-77424139D01*
X177050997Y-77474286D01*
X177061160Y-77507789D01*
X176998899Y-77541068D01*
X176780392Y-77720392D01*
X176601068Y-77938899D01*
X176467818Y-78188192D01*
X176385764Y-78458691D01*
X176358057Y-78740000D01*
X176385764Y-79021309D01*
X176467818Y-79291808D01*
X176601068Y-79541101D01*
X176676312Y-79632786D01*
X176163698Y-80145401D01*
X176134700Y-80169199D01*
X176110902Y-80198197D01*
X176110901Y-80198198D01*
X176039726Y-80284924D01*
X175969154Y-80416954D01*
X175950364Y-80478899D01*
X175925698Y-80560214D01*
X175914700Y-80671867D01*
X175914700Y-80671878D01*
X175911024Y-80709200D01*
X175914700Y-80746522D01*
X175914700Y-81211298D01*
X163824476Y-93301523D01*
X163758932Y-93178899D01*
X163579608Y-92960392D01*
X163361101Y-92781068D01*
X163228142Y-92710000D01*
X163361101Y-92638932D01*
X163579608Y-92459608D01*
X163758932Y-92241101D01*
X163892182Y-91991808D01*
X163974236Y-91721309D01*
X164001943Y-91440000D01*
X163974236Y-91158691D01*
X163892182Y-90888192D01*
X163758932Y-90638899D01*
X163643796Y-90498605D01*
X174406404Y-79735998D01*
X174435401Y-79712201D01*
X174515419Y-79614699D01*
X174530374Y-79596477D01*
X174600946Y-79464447D01*
X174622103Y-79394700D01*
X174644403Y-79321186D01*
X174655400Y-79209533D01*
X174655400Y-79209523D01*
X174659076Y-79172200D01*
X174655400Y-79134877D01*
X174655400Y-68894701D01*
X174970101Y-68580000D01*
X176358057Y-68580000D01*
X176385764Y-68861309D01*
X176467818Y-69131808D01*
X176601068Y-69381101D01*
X176780392Y-69599608D01*
X176998899Y-69778932D01*
X177131858Y-69850000D01*
X176998899Y-69921068D01*
X176780392Y-70100392D01*
X176601068Y-70318899D01*
X176467818Y-70568192D01*
X176385764Y-70838691D01*
X176358057Y-71120000D01*
X176385764Y-71401309D01*
X176467818Y-71671808D01*
X176601068Y-71921101D01*
X176780392Y-72139608D01*
X176998899Y-72318932D01*
X177136682Y-72392579D01*
X176944869Y-72507615D01*
X176736481Y-72696586D01*
X176568963Y-72922580D01*
X176448754Y-73176913D01*
X176408096Y-73310961D01*
X176530085Y-73533000D01*
X177673000Y-73533000D01*
X177673000Y-73513000D01*
X177927000Y-73513000D01*
X177927000Y-73533000D01*
X179069915Y-73533000D01*
X179191904Y-73310961D01*
X179151246Y-73176913D01*
X179031037Y-72922580D01*
X178863519Y-72696586D01*
X178655131Y-72507615D01*
X178463318Y-72392579D01*
X178601101Y-72318932D01*
X178819608Y-72139608D01*
X178998932Y-71921101D01*
X179132182Y-71671808D01*
X179214236Y-71401309D01*
X179241943Y-71120000D01*
X179214236Y-70838691D01*
X179132182Y-70568192D01*
X178998932Y-70318899D01*
X178819608Y-70100392D01*
X178601101Y-69921068D01*
X178468142Y-69850000D01*
X178601101Y-69778932D01*
X178819608Y-69599608D01*
X178998932Y-69381101D01*
X179132182Y-69131808D01*
X179214236Y-68861309D01*
X179241943Y-68580000D01*
X179214236Y-68298691D01*
X179132182Y-68028192D01*
X178998932Y-67778899D01*
X178819608Y-67560392D01*
X178601101Y-67381068D01*
X178351808Y-67247818D01*
X178081309Y-67165764D01*
X177870492Y-67145000D01*
X177729508Y-67145000D01*
X177518691Y-67165764D01*
X177248192Y-67247818D01*
X176998899Y-67381068D01*
X176780392Y-67560392D01*
X176601068Y-67778899D01*
X176467818Y-68028192D01*
X176385764Y-68298691D01*
X176358057Y-68580000D01*
X174970101Y-68580000D01*
X178311003Y-65239099D01*
X178340001Y-65215301D01*
X178434974Y-65099576D01*
X178494575Y-64988072D01*
X178650000Y-64988072D01*
X178774482Y-64975812D01*
X178894180Y-64939502D01*
X179004494Y-64880537D01*
X179101185Y-64801185D01*
X179180537Y-64704494D01*
X179239502Y-64594180D01*
X179275812Y-64474482D01*
X179288072Y-64350000D01*
X179288072Y-62650000D01*
X179275812Y-62525518D01*
X179239502Y-62405820D01*
X179180537Y-62295506D01*
X179101185Y-62198815D01*
X179004494Y-62119463D01*
X178894180Y-62060498D01*
X178825313Y-62039607D01*
X178855134Y-62015134D01*
X179040706Y-61789014D01*
X179178599Y-61531034D01*
X179263513Y-61251111D01*
X179292185Y-60960000D01*
X179263513Y-60668889D01*
X179178599Y-60388966D01*
X179040706Y-60130986D01*
X178855134Y-59904866D01*
X178629014Y-59719294D01*
X178574209Y-59690000D01*
X178629014Y-59660706D01*
X178855134Y-59475134D01*
X179040706Y-59249014D01*
X179178599Y-58991034D01*
X179263513Y-58711111D01*
X179292185Y-58420000D01*
X179263513Y-58128889D01*
X179178599Y-57848966D01*
X179040706Y-57590986D01*
X178855134Y-57364866D01*
X178629014Y-57179294D01*
X178574209Y-57150000D01*
X178629014Y-57120706D01*
X178855134Y-56935134D01*
X179040706Y-56709014D01*
X179178599Y-56451034D01*
X179263513Y-56171111D01*
X179292185Y-55880000D01*
X179263513Y-55588889D01*
X179178599Y-55308966D01*
X179040706Y-55050986D01*
X178954120Y-54945481D01*
X179499404Y-54400198D01*
X179528401Y-54376401D01*
X179623374Y-54260676D01*
X179693946Y-54128647D01*
X179737403Y-53985386D01*
X179748400Y-53873733D01*
X179748400Y-53873732D01*
X179752077Y-53836400D01*
X179748400Y-53799067D01*
X179748400Y-52885723D01*
X179752076Y-52848400D01*
X179748400Y-52811077D01*
X179748400Y-52811067D01*
X179737403Y-52699414D01*
X179693946Y-52556153D01*
X179623374Y-52424124D01*
X179528401Y-52308399D01*
X179499402Y-52284601D01*
X178951957Y-51737155D01*
X179040706Y-51629014D01*
X179178599Y-51371034D01*
X179263513Y-51091111D01*
X179292185Y-50800000D01*
X179263513Y-50508889D01*
X179178599Y-50228966D01*
X179040706Y-49970986D01*
X178855134Y-49744866D01*
X178629014Y-49559294D01*
X178564477Y-49524799D01*
X178681355Y-49455178D01*
X178897588Y-49260269D01*
X179071641Y-49026920D01*
X179196825Y-48764099D01*
X179241476Y-48616890D01*
X179120155Y-48387000D01*
X177927000Y-48387000D01*
X177927000Y-48407000D01*
X177673000Y-48407000D01*
X177673000Y-48387000D01*
X176479845Y-48387000D01*
X176358524Y-48616890D01*
X176403175Y-48764099D01*
X176528359Y-49026920D01*
X176702412Y-49260269D01*
X176918645Y-49455178D01*
X177035523Y-49524799D01*
X176970986Y-49559294D01*
X176744866Y-49744866D01*
X176559294Y-49970986D01*
X176466881Y-50143879D01*
X174226112Y-47903110D01*
X176358524Y-47903110D01*
X176479845Y-48133000D01*
X177673000Y-48133000D01*
X177673000Y-46939186D01*
X177927000Y-46939186D01*
X177927000Y-48133000D01*
X179120155Y-48133000D01*
X179241476Y-47903110D01*
X179196825Y-47755901D01*
X179071641Y-47493080D01*
X178897588Y-47259731D01*
X178681355Y-47064822D01*
X178431252Y-46915843D01*
X178156891Y-46818519D01*
X177927000Y-46939186D01*
X177673000Y-46939186D01*
X177443109Y-46818519D01*
X177168748Y-46915843D01*
X176918645Y-47064822D01*
X176702412Y-47259731D01*
X176528359Y-47493080D01*
X176403175Y-47755901D01*
X176358524Y-47903110D01*
X174226112Y-47903110D01*
X173480000Y-47156999D01*
X173480000Y-46940901D01*
X173521101Y-46918932D01*
X173739608Y-46739608D01*
X173918932Y-46521101D01*
X174052182Y-46271808D01*
X174134236Y-46001309D01*
X174161943Y-45720000D01*
X174134236Y-45438691D01*
X174052182Y-45168192D01*
X173918932Y-44918899D01*
X173739608Y-44700392D01*
X173521101Y-44521068D01*
X173271808Y-44387818D01*
X173001309Y-44305764D01*
X172790492Y-44285000D01*
X172649508Y-44285000D01*
X172438691Y-44305764D01*
X172168192Y-44387818D01*
X171918899Y-44521068D01*
X171700392Y-44700392D01*
X171521068Y-44918899D01*
X171387818Y-45168192D01*
X171305764Y-45438691D01*
X171278057Y-45720000D01*
X171305764Y-46001309D01*
X171387818Y-46271808D01*
X171521068Y-46521101D01*
X171700392Y-46739608D01*
X171918899Y-46918932D01*
X171960000Y-46940901D01*
X171960000Y-47434477D01*
X171956324Y-47471800D01*
X171960000Y-47509122D01*
X171960000Y-47509132D01*
X171970997Y-47620785D01*
X171993874Y-47696201D01*
X172014454Y-47764046D01*
X172085026Y-47896076D01*
X172124871Y-47944626D01*
X172179999Y-48011801D01*
X172209003Y-48035604D01*
X176615679Y-52442281D01*
X176559294Y-52510986D01*
X176522405Y-52580000D01*
X172889223Y-52580000D01*
X172851900Y-52576324D01*
X172814577Y-52580000D01*
X172814567Y-52580000D01*
X172702914Y-52590997D01*
X172561812Y-52633799D01*
X172559653Y-52634454D01*
X172427623Y-52705026D01*
X172367095Y-52754701D01*
X172311899Y-52799999D01*
X172288101Y-52828997D01*
X167457099Y-57660000D01*
X160729501Y-57660000D01*
X161556799Y-56832702D01*
X164286903Y-56832702D01*
X164358486Y-57076671D01*
X164613996Y-57197571D01*
X164888184Y-57266300D01*
X165170512Y-57280217D01*
X165450130Y-57238787D01*
X165716292Y-57143603D01*
X165841514Y-57076671D01*
X165913097Y-56832702D01*
X165100000Y-56019605D01*
X164286903Y-56832702D01*
X161556799Y-56832702D01*
X162478989Y-55910512D01*
X163659783Y-55910512D01*
X163701213Y-56190130D01*
X163796397Y-56456292D01*
X163863329Y-56581514D01*
X164107298Y-56653097D01*
X164920395Y-55840000D01*
X165279605Y-55840000D01*
X166092702Y-56653097D01*
X166336671Y-56581514D01*
X166457571Y-56326004D01*
X166526300Y-56051816D01*
X166540217Y-55769488D01*
X166498787Y-55489870D01*
X166403603Y-55223708D01*
X166336671Y-55098486D01*
X166092702Y-55026903D01*
X165279605Y-55840000D01*
X164920395Y-55840000D01*
X164107298Y-55026903D01*
X163863329Y-55098486D01*
X163742429Y-55353996D01*
X163673700Y-55628184D01*
X163659783Y-55910512D01*
X162478989Y-55910512D01*
X163826053Y-54563449D01*
X163848815Y-54591185D01*
X163945506Y-54670537D01*
X164055820Y-54729502D01*
X164175518Y-54765812D01*
X164300000Y-54778072D01*
X164307215Y-54778072D01*
X164286903Y-54847298D01*
X165100000Y-55660395D01*
X165913097Y-54847298D01*
X165892785Y-54778072D01*
X165900000Y-54778072D01*
X166024482Y-54765812D01*
X166144180Y-54729502D01*
X166254494Y-54670537D01*
X166351185Y-54591185D01*
X166430537Y-54494494D01*
X166489502Y-54384180D01*
X166525812Y-54264482D01*
X166538072Y-54140000D01*
X166538072Y-52540000D01*
X166525812Y-52415518D01*
X166489502Y-52295820D01*
X166430537Y-52185506D01*
X166351185Y-52088815D01*
X166323449Y-52066053D01*
X166736303Y-51653199D01*
X166765301Y-51629401D01*
X166860274Y-51513676D01*
X166930846Y-51381647D01*
X166974303Y-51238386D01*
X166985300Y-51126733D01*
X166988977Y-51089400D01*
X166985300Y-51052067D01*
X166985300Y-48674801D01*
X173231003Y-42429099D01*
X173260001Y-42405301D01*
X173354974Y-42289576D01*
X173425546Y-42157547D01*
X173469003Y-42014286D01*
X173472550Y-41978272D01*
X173576927Y-41922481D01*
X173810661Y-41730661D01*
X174002481Y-41496927D01*
X174145017Y-41230261D01*
X174232790Y-40940913D01*
X174262427Y-40640000D01*
X174232790Y-40339087D01*
X174145017Y-40049739D01*
X174002481Y-39783073D01*
X173810661Y-39549339D01*
X173576927Y-39357519D01*
X173310261Y-39214983D01*
X173020913Y-39127210D01*
X172795408Y-39105000D01*
X172644592Y-39105000D01*
X172419087Y-39127210D01*
X172129739Y-39214983D01*
X171863073Y-39357519D01*
X171629339Y-39549339D01*
X171437519Y-39783073D01*
X171294983Y-40049739D01*
X171207210Y-40339087D01*
X171177573Y-40640000D01*
X171207210Y-40940913D01*
X171294983Y-41230261D01*
X171437519Y-41496927D01*
X171629339Y-41730661D01*
X171712000Y-41798499D01*
X166419023Y-47091476D01*
X166351185Y-47008815D01*
X166254494Y-46929463D01*
X166144180Y-46870498D01*
X166024482Y-46834188D01*
X165900000Y-46821928D01*
X165892785Y-46821928D01*
X165913097Y-46752702D01*
X165100000Y-45939605D01*
X164286903Y-46752702D01*
X164307215Y-46821928D01*
X164300000Y-46821928D01*
X164175518Y-46834188D01*
X164055820Y-46870498D01*
X163945506Y-46929463D01*
X163848815Y-47008815D01*
X163769463Y-47105506D01*
X163710498Y-47215820D01*
X163674188Y-47335518D01*
X163661928Y-47460000D01*
X163661928Y-47500000D01*
X158968072Y-47500000D01*
X158968072Y-47410000D01*
X158955812Y-47285518D01*
X158919502Y-47165820D01*
X158860537Y-47055506D01*
X158844462Y-47035918D01*
X158849601Y-47031701D01*
X158873404Y-47002697D01*
X160045589Y-45830512D01*
X163659783Y-45830512D01*
X163701213Y-46110130D01*
X163796397Y-46376292D01*
X163863329Y-46501514D01*
X164107298Y-46573097D01*
X164920395Y-45760000D01*
X165279605Y-45760000D01*
X166092702Y-46573097D01*
X166336671Y-46501514D01*
X166457571Y-46246004D01*
X166526300Y-45971816D01*
X166540217Y-45689488D01*
X166498787Y-45409870D01*
X166403603Y-45143708D01*
X166336671Y-45018486D01*
X166092702Y-44946903D01*
X165279605Y-45760000D01*
X164920395Y-45760000D01*
X164107298Y-44946903D01*
X163863329Y-45018486D01*
X163742429Y-45273996D01*
X163673700Y-45548184D01*
X163659783Y-45830512D01*
X160045589Y-45830512D01*
X161108803Y-44767298D01*
X164286903Y-44767298D01*
X165100000Y-45580395D01*
X165913097Y-44767298D01*
X165841514Y-44523329D01*
X165586004Y-44402429D01*
X165311816Y-44333700D01*
X165029488Y-44319783D01*
X164749870Y-44361213D01*
X164483708Y-44456397D01*
X164358486Y-44523329D01*
X164286903Y-44767298D01*
X161108803Y-44767298D01*
X165975679Y-39900423D01*
X166274211Y-40198980D01*
X166225764Y-40358691D01*
X166198057Y-40640000D01*
X166225764Y-40921309D01*
X166307818Y-41191808D01*
X166441068Y-41441101D01*
X166620392Y-41659608D01*
X166838899Y-41838932D01*
X167088192Y-41972182D01*
X167358691Y-42054236D01*
X167569508Y-42075000D01*
X167710492Y-42075000D01*
X167921309Y-42054236D01*
X168191808Y-41972182D01*
X168441101Y-41838932D01*
X168659608Y-41659608D01*
X168838932Y-41441101D01*
X168972182Y-41191808D01*
X169054236Y-40921309D01*
X169081943Y-40640000D01*
X169054236Y-40358691D01*
X168972182Y-40088192D01*
X168838932Y-39838899D01*
X168659608Y-39620392D01*
X168441101Y-39441068D01*
X168191808Y-39307818D01*
X167921309Y-39225764D01*
X167710492Y-39205000D01*
X167569508Y-39205000D01*
X167442352Y-39217524D01*
X166539511Y-38314611D01*
X166539496Y-38314593D01*
X166539495Y-38314592D01*
X166515701Y-38285599D01*
X166486703Y-38261801D01*
X164141764Y-35916890D01*
X176358524Y-35916890D01*
X176403175Y-36064099D01*
X176528359Y-36326920D01*
X176702412Y-36560269D01*
X176918645Y-36755178D01*
X177168748Y-36904157D01*
X177443109Y-37001481D01*
X177673000Y-36880814D01*
X177673000Y-35687000D01*
X177927000Y-35687000D01*
X177927000Y-36880814D01*
X178156891Y-37001481D01*
X178431252Y-36904157D01*
X178681355Y-36755178D01*
X178897588Y-36560269D01*
X179071641Y-36326920D01*
X179196825Y-36064099D01*
X179241476Y-35916890D01*
X179120155Y-35687000D01*
X177927000Y-35687000D01*
X177673000Y-35687000D01*
X176479845Y-35687000D01*
X176358524Y-35916890D01*
X164141764Y-35916890D01*
X159196181Y-30971367D01*
X159202168Y-30956912D01*
X159265000Y-30641033D01*
X159265000Y-30338665D01*
X161125000Y-30338665D01*
X161125000Y-30621335D01*
X161180147Y-30898574D01*
X161288320Y-31159727D01*
X161445363Y-31394759D01*
X161645241Y-31594637D01*
X161880273Y-31751680D01*
X162141426Y-31859853D01*
X162418665Y-31915000D01*
X162701335Y-31915000D01*
X162978574Y-31859853D01*
X163239727Y-31751680D01*
X163474759Y-31594637D01*
X163674637Y-31394759D01*
X163778043Y-31240000D01*
X166421957Y-31240000D01*
X166525363Y-31394759D01*
X166725241Y-31594637D01*
X166960273Y-31751680D01*
X167221426Y-31859853D01*
X167498665Y-31915000D01*
X167781335Y-31915000D01*
X168058574Y-31859853D01*
X168319727Y-31751680D01*
X168554759Y-31594637D01*
X168754637Y-31394759D01*
X168770667Y-31370768D01*
X170930905Y-33531008D01*
X170954699Y-33560001D01*
X170983692Y-33583795D01*
X170983696Y-33583799D01*
X171054385Y-33641811D01*
X171070424Y-33654974D01*
X171181928Y-33714575D01*
X171181928Y-33920000D01*
X171194188Y-34044482D01*
X171230498Y-34164180D01*
X171289463Y-34274494D01*
X171368815Y-34371185D01*
X171465506Y-34450537D01*
X171575820Y-34509502D01*
X171695518Y-34545812D01*
X171820000Y-34558072D01*
X173620000Y-34558072D01*
X173744482Y-34545812D01*
X173864180Y-34509502D01*
X173974494Y-34450537D01*
X174071185Y-34371185D01*
X174150537Y-34274494D01*
X174209502Y-34164180D01*
X174245812Y-34044482D01*
X174258072Y-33920000D01*
X174258072Y-32170000D01*
X176311928Y-32170000D01*
X176311928Y-33870000D01*
X176324188Y-33994482D01*
X176360498Y-34114180D01*
X176419463Y-34224494D01*
X176498815Y-34321185D01*
X176595506Y-34400537D01*
X176705820Y-34459502D01*
X176786466Y-34483966D01*
X176702412Y-34559731D01*
X176528359Y-34793080D01*
X176403175Y-35055901D01*
X176358524Y-35203110D01*
X176479845Y-35433000D01*
X177673000Y-35433000D01*
X177673000Y-35413000D01*
X177927000Y-35413000D01*
X177927000Y-35433000D01*
X179120155Y-35433000D01*
X179241476Y-35203110D01*
X179196825Y-35055901D01*
X179071641Y-34793080D01*
X178897588Y-34559731D01*
X178813534Y-34483966D01*
X178894180Y-34459502D01*
X179004494Y-34400537D01*
X179101185Y-34321185D01*
X179180537Y-34224494D01*
X179239502Y-34114180D01*
X179275812Y-33994482D01*
X179288072Y-33870000D01*
X179288072Y-32170000D01*
X179275812Y-32045518D01*
X179239502Y-31925820D01*
X179180537Y-31815506D01*
X179101185Y-31718815D01*
X179004494Y-31639463D01*
X178894180Y-31580498D01*
X178774482Y-31544188D01*
X178650000Y-31531928D01*
X176950000Y-31531928D01*
X176825518Y-31544188D01*
X176705820Y-31580498D01*
X176595506Y-31639463D01*
X176498815Y-31718815D01*
X176419463Y-31815506D01*
X176360498Y-31925820D01*
X176324188Y-32045518D01*
X176311928Y-32170000D01*
X174258072Y-32170000D01*
X174258072Y-32120000D01*
X174245812Y-31995518D01*
X174209502Y-31875820D01*
X174150537Y-31765506D01*
X174071185Y-31668815D01*
X173974494Y-31589463D01*
X173864180Y-31530498D01*
X173744482Y-31494188D01*
X173620000Y-31481928D01*
X171820000Y-31481928D01*
X171695518Y-31494188D01*
X171575820Y-31530498D01*
X171465506Y-31589463D01*
X171368815Y-31668815D01*
X171300978Y-31751475D01*
X169518504Y-29969003D01*
X169494701Y-29939999D01*
X169378976Y-29845026D01*
X169246947Y-29774454D01*
X169103686Y-29730997D01*
X168992033Y-29720000D01*
X168992022Y-29720000D01*
X168954700Y-29716324D01*
X168917378Y-29720000D01*
X168858043Y-29720000D01*
X168754637Y-29565241D01*
X168554759Y-29365363D01*
X168319727Y-29208320D01*
X168058574Y-29100147D01*
X167781335Y-29045000D01*
X167498665Y-29045000D01*
X167221426Y-29100147D01*
X166960273Y-29208320D01*
X166725241Y-29365363D01*
X166525363Y-29565241D01*
X166421957Y-29720000D01*
X163778043Y-29720000D01*
X163674637Y-29565241D01*
X163474759Y-29365363D01*
X163239727Y-29208320D01*
X162978574Y-29100147D01*
X162701335Y-29045000D01*
X162418665Y-29045000D01*
X162141426Y-29100147D01*
X161880273Y-29208320D01*
X161645241Y-29365363D01*
X161445363Y-29565241D01*
X161288320Y-29800273D01*
X161180147Y-30061426D01*
X161125000Y-30338665D01*
X159265000Y-30338665D01*
X159265000Y-30318967D01*
X159202168Y-30003088D01*
X159078918Y-29705537D01*
X158899987Y-29437748D01*
X158672252Y-29210013D01*
X158404463Y-29031082D01*
X158106912Y-28907832D01*
X157791033Y-28845000D01*
X157468967Y-28845000D01*
X157153088Y-28907832D01*
X156855537Y-29031082D01*
X156587748Y-29210013D01*
X156360013Y-29437748D01*
X156181082Y-29705537D01*
X156175091Y-29720000D01*
X152584909Y-29720000D01*
X152578918Y-29705537D01*
X152399987Y-29437748D01*
X152172252Y-29210013D01*
X151904463Y-29031082D01*
X151606912Y-28907832D01*
X151291033Y-28845000D01*
X150968967Y-28845000D01*
X150653088Y-28907832D01*
X150355537Y-29031082D01*
X150087748Y-29210013D01*
X149860013Y-29437748D01*
X149681082Y-29705537D01*
X149557832Y-30003088D01*
X149495000Y-30318967D01*
X149495000Y-30641033D01*
X149557832Y-30956912D01*
X149681082Y-31254463D01*
X149860013Y-31522252D01*
X150087748Y-31749987D01*
X150355537Y-31928918D01*
X150653088Y-32052168D01*
X150968967Y-32115000D01*
X151291033Y-32115000D01*
X151606912Y-32052168D01*
X151904463Y-31928918D01*
X152172252Y-31749987D01*
X152399987Y-31522252D01*
X152578918Y-31254463D01*
X152584909Y-31240000D01*
X156175091Y-31240000D01*
X156181082Y-31254463D01*
X156360013Y-31522252D01*
X156587748Y-31749987D01*
X156855537Y-31928918D01*
X157153088Y-32052168D01*
X157468967Y-32115000D01*
X157791033Y-32115000D01*
X158106912Y-32052168D01*
X158121384Y-32046173D01*
X164900895Y-38825603D01*
X163803750Y-39922748D01*
X163758932Y-39838899D01*
X163579608Y-39620392D01*
X163361101Y-39441068D01*
X163111808Y-39307818D01*
X162841309Y-39225764D01*
X162630492Y-39205000D01*
X162489508Y-39205000D01*
X162278691Y-39225764D01*
X162008192Y-39307818D01*
X161758899Y-39441068D01*
X161540392Y-39620392D01*
X161361068Y-39838899D01*
X161339099Y-39880000D01*
X159754802Y-39880000D01*
X159046177Y-39171375D01*
X159052168Y-39156912D01*
X159115000Y-38841033D01*
X159115000Y-38518967D01*
X159052168Y-38203088D01*
X158928918Y-37905537D01*
X158749987Y-37637748D01*
X158522252Y-37410013D01*
X158254463Y-37231082D01*
X157956912Y-37107832D01*
X157641033Y-37045000D01*
X157318967Y-37045000D01*
X157003088Y-37107832D01*
X156705537Y-37231082D01*
X156437748Y-37410013D01*
X156210013Y-37637748D01*
X156031082Y-37905537D01*
X155907832Y-38203088D01*
X155845000Y-38518967D01*
X155845000Y-38841033D01*
X155907832Y-39156912D01*
X156031082Y-39454463D01*
X156210013Y-39722252D01*
X156437748Y-39949987D01*
X156705537Y-40128918D01*
X157003088Y-40252168D01*
X157318967Y-40315000D01*
X157641033Y-40315000D01*
X157956912Y-40252168D01*
X157971375Y-40246177D01*
X158680000Y-40954802D01*
X158680001Y-42247585D01*
X158615413Y-42224192D01*
X157659605Y-43180000D01*
X157673748Y-43194143D01*
X157494143Y-43373748D01*
X157480000Y-43359605D01*
X156524192Y-44315413D01*
X156619956Y-44579814D01*
X156810359Y-44672440D01*
X156296099Y-45186700D01*
X155595322Y-45186700D01*
X155557999Y-45183024D01*
X155520676Y-45186700D01*
X155520667Y-45186700D01*
X155409014Y-45197697D01*
X155265753Y-45241154D01*
X155133724Y-45311726D01*
X155017999Y-45406699D01*
X154994201Y-45435697D01*
X153324215Y-47105684D01*
X153166920Y-46988359D01*
X152904099Y-46863175D01*
X152756890Y-46818524D01*
X152527000Y-46939845D01*
X152527000Y-48133000D01*
X152547000Y-48133000D01*
X152547000Y-48387000D01*
X152527000Y-48387000D01*
X152527000Y-48407000D01*
X152273000Y-48407000D01*
X152273000Y-48387000D01*
X151079186Y-48387000D01*
X150958519Y-48616891D01*
X151055843Y-48891252D01*
X151204822Y-49141355D01*
X151399731Y-49357588D01*
X151633080Y-49531641D01*
X151699921Y-49563478D01*
X148683399Y-52580000D01*
X147447000Y-52580000D01*
X147447000Y-47903109D01*
X150958519Y-47903109D01*
X151079186Y-48133000D01*
X152273000Y-48133000D01*
X152273000Y-46939845D01*
X152043110Y-46818524D01*
X151895901Y-46863175D01*
X151633080Y-46988359D01*
X151399731Y-47162412D01*
X151204822Y-47378645D01*
X151055843Y-47628748D01*
X150958519Y-47903109D01*
X147447000Y-47903109D01*
X147447000Y-44315413D01*
X150024192Y-44315413D01*
X150119956Y-44579814D01*
X150409571Y-44720704D01*
X150721108Y-44802384D01*
X151042595Y-44821718D01*
X151361675Y-44777961D01*
X151666088Y-44672795D01*
X151840044Y-44579814D01*
X151935808Y-44315413D01*
X150980000Y-43359605D01*
X150024192Y-44315413D01*
X147447000Y-44315413D01*
X147447000Y-43242595D01*
X149338282Y-43242595D01*
X149382039Y-43561675D01*
X149487205Y-43866088D01*
X149580186Y-44040044D01*
X149844587Y-44135808D01*
X150800395Y-43180000D01*
X151159605Y-43180000D01*
X152115413Y-44135808D01*
X152379814Y-44040044D01*
X152520704Y-43750429D01*
X152602384Y-43438892D01*
X152614189Y-43242595D01*
X155838282Y-43242595D01*
X155882039Y-43561675D01*
X155987205Y-43866088D01*
X156080186Y-44040044D01*
X156344587Y-44135808D01*
X157300395Y-43180000D01*
X156344587Y-42224192D01*
X156080186Y-42319956D01*
X155939296Y-42609571D01*
X155857616Y-42921108D01*
X155838282Y-43242595D01*
X152614189Y-43242595D01*
X152621718Y-43117405D01*
X152577961Y-42798325D01*
X152472795Y-42493912D01*
X152379814Y-42319956D01*
X152115413Y-42224192D01*
X151159605Y-43180000D01*
X150800395Y-43180000D01*
X149844587Y-42224192D01*
X149580186Y-42319956D01*
X149439296Y-42609571D01*
X149357616Y-42921108D01*
X149338282Y-43242595D01*
X147447000Y-43242595D01*
X147447000Y-42044587D01*
X150024192Y-42044587D01*
X150980000Y-43000395D01*
X151935808Y-42044587D01*
X156524192Y-42044587D01*
X157480000Y-43000395D01*
X158435808Y-42044587D01*
X158340044Y-41780186D01*
X158050429Y-41639296D01*
X157738892Y-41557616D01*
X157417405Y-41538282D01*
X157098325Y-41582039D01*
X156793912Y-41687205D01*
X156619956Y-41780186D01*
X156524192Y-42044587D01*
X151935808Y-42044587D01*
X151840044Y-41780186D01*
X151550429Y-41639296D01*
X151238892Y-41557616D01*
X150917405Y-41538282D01*
X150598325Y-41582039D01*
X150293912Y-41687205D01*
X150119956Y-41780186D01*
X150024192Y-42044587D01*
X147447000Y-42044587D01*
X147447000Y-38518967D01*
X149345000Y-38518967D01*
X149345000Y-38841033D01*
X149407832Y-39156912D01*
X149531082Y-39454463D01*
X149710013Y-39722252D01*
X149937748Y-39949987D01*
X150205537Y-40128918D01*
X150503088Y-40252168D01*
X150818967Y-40315000D01*
X151141033Y-40315000D01*
X151456912Y-40252168D01*
X151754463Y-40128918D01*
X152022252Y-39949987D01*
X152249987Y-39722252D01*
X152428918Y-39454463D01*
X152552168Y-39156912D01*
X152615000Y-38841033D01*
X152615000Y-38518967D01*
X152552168Y-38203088D01*
X152428918Y-37905537D01*
X152249987Y-37637748D01*
X152022252Y-37410013D01*
X151754463Y-37231082D01*
X151456912Y-37107832D01*
X151141033Y-37045000D01*
X150818967Y-37045000D01*
X150503088Y-37107832D01*
X150205537Y-37231082D01*
X149937748Y-37410013D01*
X149710013Y-37637748D01*
X149531082Y-37905537D01*
X149407832Y-38203088D01*
X149345000Y-38518967D01*
X147447000Y-38518967D01*
X147447000Y-36115413D01*
X150174192Y-36115413D01*
X150269956Y-36379814D01*
X150559571Y-36520704D01*
X150871108Y-36602384D01*
X151192595Y-36621718D01*
X151511675Y-36577961D01*
X151816088Y-36472795D01*
X151990044Y-36379814D01*
X152085808Y-36115413D01*
X156674192Y-36115413D01*
X156769956Y-36379814D01*
X157059571Y-36520704D01*
X157371108Y-36602384D01*
X157692595Y-36621718D01*
X158011675Y-36577961D01*
X158316088Y-36472795D01*
X158490044Y-36379814D01*
X158585808Y-36115413D01*
X157630000Y-35159605D01*
X156674192Y-36115413D01*
X152085808Y-36115413D01*
X151130000Y-35159605D01*
X150174192Y-36115413D01*
X147447000Y-36115413D01*
X147447000Y-35042595D01*
X149488282Y-35042595D01*
X149532039Y-35361675D01*
X149637205Y-35666088D01*
X149730186Y-35840044D01*
X149994587Y-35935808D01*
X150950395Y-34980000D01*
X151309605Y-34980000D01*
X152265413Y-35935808D01*
X152529814Y-35840044D01*
X152670704Y-35550429D01*
X152752384Y-35238892D01*
X152764189Y-35042595D01*
X155988282Y-35042595D01*
X156032039Y-35361675D01*
X156137205Y-35666088D01*
X156230186Y-35840044D01*
X156494587Y-35935808D01*
X157450395Y-34980000D01*
X157809605Y-34980000D01*
X158765413Y-35935808D01*
X159029814Y-35840044D01*
X159170704Y-35550429D01*
X159252384Y-35238892D01*
X159271718Y-34917405D01*
X159227961Y-34598325D01*
X159122795Y-34293912D01*
X159029814Y-34119956D01*
X158765413Y-34024192D01*
X157809605Y-34980000D01*
X157450395Y-34980000D01*
X156494587Y-34024192D01*
X156230186Y-34119956D01*
X156089296Y-34409571D01*
X156007616Y-34721108D01*
X155988282Y-35042595D01*
X152764189Y-35042595D01*
X152771718Y-34917405D01*
X152727961Y-34598325D01*
X152622795Y-34293912D01*
X152529814Y-34119956D01*
X152265413Y-34024192D01*
X151309605Y-34980000D01*
X150950395Y-34980000D01*
X149994587Y-34024192D01*
X149730186Y-34119956D01*
X149589296Y-34409571D01*
X149507616Y-34721108D01*
X149488282Y-35042595D01*
X147447000Y-35042595D01*
X147447000Y-33844587D01*
X150174192Y-33844587D01*
X151130000Y-34800395D01*
X152085808Y-33844587D01*
X156674192Y-33844587D01*
X157630000Y-34800395D01*
X158585808Y-33844587D01*
X158490044Y-33580186D01*
X158200429Y-33439296D01*
X157888892Y-33357616D01*
X157567405Y-33338282D01*
X157248325Y-33382039D01*
X156943912Y-33487205D01*
X156769956Y-33580186D01*
X156674192Y-33844587D01*
X152085808Y-33844587D01*
X151990044Y-33580186D01*
X151700429Y-33439296D01*
X151388892Y-33357616D01*
X151067405Y-33338282D01*
X150748325Y-33382039D01*
X150443912Y-33487205D01*
X150269956Y-33580186D01*
X150174192Y-33844587D01*
X147447000Y-33844587D01*
X147447000Y-33020000D01*
X147444560Y-32995224D01*
X147437333Y-32971399D01*
X147425597Y-32949443D01*
X147409803Y-32930197D01*
X147390557Y-32914403D01*
X147368601Y-32902667D01*
X147344776Y-32895440D01*
X147320000Y-32893000D01*
X139827000Y-32893000D01*
X139827000Y-22625098D01*
X157635000Y-22625098D01*
X157635000Y-23094902D01*
X157726654Y-23555679D01*
X157906440Y-23989721D01*
X158167450Y-24380349D01*
X158499651Y-24712550D01*
X158890279Y-24973560D01*
X159324321Y-25153346D01*
X159785098Y-25245000D01*
X160254902Y-25245000D01*
X160715679Y-25153346D01*
X161149721Y-24973560D01*
X161540349Y-24712550D01*
X161872550Y-24380349D01*
X162133560Y-23989721D01*
X162313346Y-23555679D01*
X162405000Y-23094902D01*
X162405000Y-22625098D01*
X162313346Y-22164321D01*
X162133560Y-21730279D01*
X161872550Y-21339651D01*
X161540349Y-21007450D01*
X161149721Y-20746440D01*
X160715679Y-20566654D01*
X160254902Y-20475000D01*
X159785098Y-20475000D01*
X159324321Y-20566654D01*
X158890279Y-20746440D01*
X158499651Y-21007450D01*
X158167450Y-21339651D01*
X157906440Y-21730279D01*
X157726654Y-22164321D01*
X157635000Y-22625098D01*
X139827000Y-22625098D01*
X139827000Y-20447000D01*
X180213000Y-20447000D01*
X180213000Y-114173000D01*
G36*
X176568963Y-84557420D02*
G01*
X176736481Y-84783414D01*
X176944869Y-84972385D01*
X177136682Y-85087421D01*
X176998899Y-85161068D01*
X176780392Y-85340392D01*
X176601068Y-85558899D01*
X176467818Y-85808192D01*
X176385764Y-86078691D01*
X176358057Y-86360000D01*
X176385764Y-86641309D01*
X176467818Y-86911808D01*
X176601068Y-87161101D01*
X176780392Y-87379608D01*
X176998899Y-87558932D01*
X177131858Y-87630000D01*
X176998899Y-87701068D01*
X176780392Y-87880392D01*
X176601068Y-88098899D01*
X176467818Y-88348192D01*
X176385764Y-88618691D01*
X176358057Y-88900000D01*
X176385764Y-89181309D01*
X176467818Y-89451808D01*
X176601068Y-89701101D01*
X176780392Y-89919608D01*
X176998899Y-90098932D01*
X177131858Y-90170000D01*
X176998899Y-90241068D01*
X176780392Y-90420392D01*
X176601068Y-90638899D01*
X176467818Y-90888192D01*
X176385764Y-91158691D01*
X176358057Y-91440000D01*
X176385764Y-91721309D01*
X176467818Y-91991808D01*
X176601068Y-92241101D01*
X176780392Y-92459608D01*
X176998899Y-92638932D01*
X177131858Y-92710000D01*
X176998899Y-92781068D01*
X176780392Y-92960392D01*
X176601068Y-93178899D01*
X176467818Y-93428192D01*
X176385764Y-93698691D01*
X176358057Y-93980000D01*
X176385764Y-94261309D01*
X176467818Y-94531808D01*
X176601068Y-94781101D01*
X176780392Y-94999608D01*
X176998899Y-95178932D01*
X177131858Y-95250000D01*
X176998899Y-95321068D01*
X176780392Y-95500392D01*
X176601068Y-95718899D01*
X176467818Y-95968192D01*
X176385764Y-96238691D01*
X176358057Y-96520000D01*
X176385764Y-96801309D01*
X176467818Y-97071808D01*
X176601068Y-97321101D01*
X176780392Y-97539608D01*
X176998899Y-97718932D01*
X177046058Y-97744139D01*
X177050997Y-97794286D01*
X177061160Y-97827789D01*
X176998899Y-97861068D01*
X176780392Y-98040392D01*
X176601068Y-98258899D01*
X176467818Y-98508192D01*
X176385764Y-98778691D01*
X176358057Y-99060000D01*
X176385764Y-99341309D01*
X176467818Y-99611808D01*
X176601068Y-99861101D01*
X176780392Y-100079608D01*
X176998899Y-100258932D01*
X177046058Y-100284139D01*
X177050997Y-100334286D01*
X177061160Y-100367789D01*
X176998899Y-100401068D01*
X176780392Y-100580392D01*
X176601068Y-100798899D01*
X176467818Y-101048192D01*
X176385764Y-101318691D01*
X176358057Y-101600000D01*
X176385764Y-101881309D01*
X176467818Y-102151808D01*
X176601068Y-102401101D01*
X176780392Y-102619608D01*
X176998899Y-102798932D01*
X177040000Y-102820901D01*
X177040000Y-102832798D01*
X173896749Y-105976050D01*
X173876671Y-105938486D01*
X173632702Y-105866903D01*
X172819605Y-106680000D01*
X172833748Y-106694143D01*
X172654143Y-106873748D01*
X172640000Y-106859605D01*
X172625858Y-106873748D01*
X172446253Y-106694143D01*
X172460395Y-106680000D01*
X171647298Y-105866903D01*
X171403329Y-105938486D01*
X171378777Y-105990375D01*
X171075700Y-105687298D01*
X171826903Y-105687298D01*
X172640000Y-106500395D01*
X173453097Y-105687298D01*
X173381514Y-105443329D01*
X173126004Y-105322429D01*
X172851816Y-105253700D01*
X172569488Y-105239783D01*
X172289870Y-105281213D01*
X172023708Y-105376397D01*
X171898486Y-105443329D01*
X171826903Y-105687298D01*
X171075700Y-105687298D01*
X168054504Y-102666103D01*
X168030701Y-102637099D01*
X167914976Y-102542126D01*
X167782947Y-102471554D01*
X167639686Y-102428097D01*
X167528033Y-102417100D01*
X167528022Y-102417100D01*
X167490700Y-102413424D01*
X167453378Y-102417100D01*
X163731974Y-102417100D01*
X163791037Y-102337420D01*
X163911246Y-102083087D01*
X163951904Y-101949039D01*
X163829915Y-101727000D01*
X162687000Y-101727000D01*
X162687000Y-101747000D01*
X162433000Y-101747000D01*
X162433000Y-101727000D01*
X161290085Y-101727000D01*
X161168096Y-101949039D01*
X161208754Y-102083087D01*
X161328963Y-102337420D01*
X161388026Y-102417100D01*
X160277701Y-102417100D01*
X161265872Y-101428929D01*
X161290085Y-101473000D01*
X162433000Y-101473000D01*
X162433000Y-101453000D01*
X162687000Y-101453000D01*
X162687000Y-101473000D01*
X163829915Y-101473000D01*
X163951904Y-101250961D01*
X163911246Y-101116913D01*
X163791037Y-100862580D01*
X163623519Y-100636586D01*
X163415131Y-100447615D01*
X163223318Y-100332579D01*
X163361101Y-100258932D01*
X163579608Y-100079608D01*
X163758932Y-99861101D01*
X163892182Y-99611808D01*
X163974236Y-99341309D01*
X164001943Y-99060000D01*
X163974236Y-98778691D01*
X163892182Y-98508192D01*
X163758932Y-98258899D01*
X163646095Y-98121406D01*
X166559609Y-95207894D01*
X166588601Y-95184101D01*
X166612395Y-95155108D01*
X166612399Y-95155104D01*
X166683573Y-95068377D01*
X166683574Y-95068376D01*
X166754146Y-94936347D01*
X166797603Y-94793086D01*
X166808600Y-94681433D01*
X166808600Y-94681424D01*
X166812276Y-94644101D01*
X166808600Y-94606778D01*
X166808600Y-94288701D01*
X176559629Y-84537672D01*
X176568963Y-84557420D01*
X176568963Y-84557420D01*
G37*
X176568963Y-84557420D02*
X176736481Y-84783414D01*
X176944869Y-84972385D01*
X177136682Y-85087421D01*
X176998899Y-85161068D01*
X176780392Y-85340392D01*
X176601068Y-85558899D01*
X176467818Y-85808192D01*
X176385764Y-86078691D01*
X176358057Y-86360000D01*
X176385764Y-86641309D01*
X176467818Y-86911808D01*
X176601068Y-87161101D01*
X176780392Y-87379608D01*
X176998899Y-87558932D01*
X177131858Y-87630000D01*
X176998899Y-87701068D01*
X176780392Y-87880392D01*
X176601068Y-88098899D01*
X176467818Y-88348192D01*
X176385764Y-88618691D01*
X176358057Y-88900000D01*
X176385764Y-89181309D01*
X176467818Y-89451808D01*
X176601068Y-89701101D01*
X176780392Y-89919608D01*
X176998899Y-90098932D01*
X177131858Y-90170000D01*
X176998899Y-90241068D01*
X176780392Y-90420392D01*
X176601068Y-90638899D01*
X176467818Y-90888192D01*
X176385764Y-91158691D01*
X176358057Y-91440000D01*
X176385764Y-91721309D01*
X176467818Y-91991808D01*
X176601068Y-92241101D01*
X176780392Y-92459608D01*
X176998899Y-92638932D01*
X177131858Y-92710000D01*
X176998899Y-92781068D01*
X176780392Y-92960392D01*
X176601068Y-93178899D01*
X176467818Y-93428192D01*
X176385764Y-93698691D01*
X176358057Y-93980000D01*
X176385764Y-94261309D01*
X176467818Y-94531808D01*
X176601068Y-94781101D01*
X176780392Y-94999608D01*
X176998899Y-95178932D01*
X177131858Y-95250000D01*
X176998899Y-95321068D01*
X176780392Y-95500392D01*
X176601068Y-95718899D01*
X176467818Y-95968192D01*
X176385764Y-96238691D01*
X176358057Y-96520000D01*
X176385764Y-96801309D01*
X176467818Y-97071808D01*
X176601068Y-97321101D01*
X176780392Y-97539608D01*
X176998899Y-97718932D01*
X177046058Y-97744139D01*
X177050997Y-97794286D01*
X177061160Y-97827789D01*
X176998899Y-97861068D01*
X176780392Y-98040392D01*
X176601068Y-98258899D01*
X176467818Y-98508192D01*
X176385764Y-98778691D01*
X176358057Y-99060000D01*
X176385764Y-99341309D01*
X176467818Y-99611808D01*
X176601068Y-99861101D01*
X176780392Y-100079608D01*
X176998899Y-100258932D01*
X177046058Y-100284139D01*
X177050997Y-100334286D01*
X177061160Y-100367789D01*
X176998899Y-100401068D01*
X176780392Y-100580392D01*
X176601068Y-100798899D01*
X176467818Y-101048192D01*
X176385764Y-101318691D01*
X176358057Y-101600000D01*
X176385764Y-101881309D01*
X176467818Y-102151808D01*
X176601068Y-102401101D01*
X176780392Y-102619608D01*
X176998899Y-102798932D01*
X177040000Y-102820901D01*
X177040000Y-102832798D01*
X173896749Y-105976050D01*
X173876671Y-105938486D01*
X173632702Y-105866903D01*
X172819605Y-106680000D01*
X172833748Y-106694143D01*
X172654143Y-106873748D01*
X172640000Y-106859605D01*
X172625858Y-106873748D01*
X172446253Y-106694143D01*
X172460395Y-106680000D01*
X171647298Y-105866903D01*
X171403329Y-105938486D01*
X171378777Y-105990375D01*
X171075700Y-105687298D01*
X171826903Y-105687298D01*
X172640000Y-106500395D01*
X173453097Y-105687298D01*
X173381514Y-105443329D01*
X173126004Y-105322429D01*
X172851816Y-105253700D01*
X172569488Y-105239783D01*
X172289870Y-105281213D01*
X172023708Y-105376397D01*
X171898486Y-105443329D01*
X171826903Y-105687298D01*
X171075700Y-105687298D01*
X168054504Y-102666103D01*
X168030701Y-102637099D01*
X167914976Y-102542126D01*
X167782947Y-102471554D01*
X167639686Y-102428097D01*
X167528033Y-102417100D01*
X167528022Y-102417100D01*
X167490700Y-102413424D01*
X167453378Y-102417100D01*
X163731974Y-102417100D01*
X163791037Y-102337420D01*
X163911246Y-102083087D01*
X163951904Y-101949039D01*
X163829915Y-101727000D01*
X162687000Y-101727000D01*
X162687000Y-101747000D01*
X162433000Y-101747000D01*
X162433000Y-101727000D01*
X161290085Y-101727000D01*
X161168096Y-101949039D01*
X161208754Y-102083087D01*
X161328963Y-102337420D01*
X161388026Y-102417100D01*
X160277701Y-102417100D01*
X161265872Y-101428929D01*
X161290085Y-101473000D01*
X162433000Y-101473000D01*
X162433000Y-101453000D01*
X162687000Y-101453000D01*
X162687000Y-101473000D01*
X163829915Y-101473000D01*
X163951904Y-101250961D01*
X163911246Y-101116913D01*
X163791037Y-100862580D01*
X163623519Y-100636586D01*
X163415131Y-100447615D01*
X163223318Y-100332579D01*
X163361101Y-100258932D01*
X163579608Y-100079608D01*
X163758932Y-99861101D01*
X163892182Y-99611808D01*
X163974236Y-99341309D01*
X164001943Y-99060000D01*
X163974236Y-98778691D01*
X163892182Y-98508192D01*
X163758932Y-98258899D01*
X163646095Y-98121406D01*
X166559609Y-95207894D01*
X166588601Y-95184101D01*
X166612395Y-95155108D01*
X166612399Y-95155104D01*
X166683573Y-95068377D01*
X166683574Y-95068376D01*
X166754146Y-94936347D01*
X166797603Y-94793086D01*
X166808600Y-94681433D01*
X166808600Y-94681424D01*
X166812276Y-94644101D01*
X166808600Y-94606778D01*
X166808600Y-94288701D01*
X176559629Y-84537672D01*
X176568963Y-84557420D01*
G36*
X176744866Y-62015134D02*
G01*
X176774687Y-62039607D01*
X176705820Y-62060498D01*
X176595506Y-62119463D01*
X176498815Y-62198815D01*
X176419463Y-62295506D01*
X176360498Y-62405820D01*
X176324188Y-62525518D01*
X176311928Y-62650000D01*
X176311928Y-64350000D01*
X176324188Y-64474482D01*
X176360498Y-64594180D01*
X176419463Y-64704494D01*
X176498815Y-64801185D01*
X176554013Y-64846485D01*
X173384398Y-68016101D01*
X173355400Y-68039899D01*
X173331602Y-68068897D01*
X173331601Y-68068898D01*
X173260426Y-68155624D01*
X173189854Y-68287654D01*
X173146398Y-68430915D01*
X173131724Y-68579900D01*
X173135401Y-68617232D01*
X173135400Y-78857398D01*
X163805945Y-88186854D01*
X163758932Y-88098899D01*
X163579608Y-87880392D01*
X163361101Y-87701068D01*
X163313942Y-87675861D01*
X163309003Y-87625714D01*
X163298840Y-87592211D01*
X163361101Y-87558932D01*
X163579608Y-87379608D01*
X163758932Y-87161101D01*
X163892182Y-86911808D01*
X163974236Y-86641309D01*
X164001943Y-86360000D01*
X163974236Y-86078691D01*
X163892182Y-85808192D01*
X163758932Y-85558899D01*
X163579608Y-85340392D01*
X163361101Y-85161068D01*
X163313942Y-85135861D01*
X163309003Y-85085714D01*
X163298840Y-85052211D01*
X163361101Y-85018932D01*
X163579608Y-84839608D01*
X163758932Y-84621101D01*
X163892182Y-84371808D01*
X163974236Y-84101309D01*
X164001943Y-83820000D01*
X163974236Y-83538691D01*
X163892182Y-83268192D01*
X163758932Y-83018899D01*
X163579608Y-82800392D01*
X163361101Y-82621068D01*
X163313942Y-82595861D01*
X163309003Y-82545714D01*
X163298840Y-82512211D01*
X163361101Y-82478932D01*
X163579608Y-82299608D01*
X163758932Y-82081101D01*
X163892182Y-81831808D01*
X163974236Y-81561309D01*
X164001943Y-81280000D01*
X163974236Y-80998691D01*
X163892182Y-80728192D01*
X163758932Y-80478899D01*
X163579608Y-80260392D01*
X163361101Y-80081068D01*
X163313942Y-80055861D01*
X163309003Y-80005714D01*
X163298840Y-79972211D01*
X163361101Y-79938932D01*
X163579608Y-79759608D01*
X163758932Y-79541101D01*
X163892182Y-79291808D01*
X163974236Y-79021309D01*
X164001943Y-78740000D01*
X163974236Y-78458691D01*
X163892182Y-78188192D01*
X163758932Y-77938899D01*
X163579608Y-77720392D01*
X163361101Y-77541068D01*
X163228142Y-77470000D01*
X163361101Y-77398932D01*
X163579608Y-77219608D01*
X163758932Y-77001101D01*
X163892182Y-76751808D01*
X163974236Y-76481309D01*
X164001943Y-76200000D01*
X163974236Y-75918691D01*
X163892182Y-75648192D01*
X163758932Y-75398899D01*
X163579608Y-75180392D01*
X163361101Y-75001068D01*
X163228142Y-74930000D01*
X163361101Y-74858932D01*
X163579608Y-74679608D01*
X163758932Y-74461101D01*
X163892182Y-74211808D01*
X163974236Y-73941309D01*
X164001943Y-73660000D01*
X163974236Y-73378691D01*
X163892182Y-73108192D01*
X163758932Y-72858899D01*
X163579608Y-72640392D01*
X163361101Y-72461068D01*
X163223318Y-72387421D01*
X163415131Y-72272385D01*
X163623519Y-72083414D01*
X163791037Y-71857420D01*
X163911246Y-71603087D01*
X163951904Y-71469039D01*
X163829915Y-71247000D01*
X162687000Y-71247000D01*
X162687000Y-71267000D01*
X162433000Y-71267000D01*
X162433000Y-71247000D01*
X161290085Y-71247000D01*
X161168096Y-71469039D01*
X161208754Y-71603087D01*
X161328963Y-71857420D01*
X161496481Y-72083414D01*
X161704869Y-72272385D01*
X161896682Y-72387421D01*
X161758899Y-72461068D01*
X161540392Y-72640392D01*
X161361068Y-72858899D01*
X161227818Y-73108192D01*
X161145764Y-73378691D01*
X161118057Y-73660000D01*
X161145764Y-73941309D01*
X161227818Y-74211808D01*
X161361068Y-74461101D01*
X161540392Y-74679608D01*
X161758899Y-74858932D01*
X161891858Y-74930000D01*
X161758899Y-75001068D01*
X161540392Y-75180392D01*
X161361068Y-75398899D01*
X161227818Y-75648192D01*
X161145764Y-75918691D01*
X161118057Y-76200000D01*
X161145764Y-76481309D01*
X161227818Y-76751808D01*
X161361068Y-77001101D01*
X161540392Y-77219608D01*
X161758899Y-77398932D01*
X161891858Y-77470000D01*
X161758899Y-77541068D01*
X161540392Y-77720392D01*
X161361068Y-77938899D01*
X161283263Y-78084462D01*
X159365719Y-76166918D01*
X159354303Y-76051014D01*
X159310846Y-75907753D01*
X159240274Y-75775724D01*
X159145301Y-75659999D01*
X159029576Y-75565026D01*
X158897547Y-75494454D01*
X158754286Y-75450997D01*
X158704139Y-75446058D01*
X158678932Y-75398899D01*
X158499608Y-75180392D01*
X158281101Y-75001068D01*
X158148142Y-74930000D01*
X158281101Y-74858932D01*
X158499608Y-74679608D01*
X158678932Y-74461101D01*
X158812182Y-74211808D01*
X158894236Y-73941309D01*
X158921943Y-73660000D01*
X158894236Y-73378691D01*
X158812182Y-73108192D01*
X158678932Y-72858899D01*
X158499608Y-72640392D01*
X158281101Y-72461068D01*
X158148142Y-72390000D01*
X158281101Y-72318932D01*
X158499608Y-72139608D01*
X158678932Y-71921101D01*
X158812182Y-71671808D01*
X158894236Y-71401309D01*
X158921943Y-71120000D01*
X158894236Y-70838691D01*
X158812182Y-70568192D01*
X158678932Y-70318899D01*
X158499608Y-70100392D01*
X158281101Y-69921068D01*
X158148142Y-69850000D01*
X158281101Y-69778932D01*
X158499608Y-69599608D01*
X158678932Y-69381101D01*
X158812182Y-69131808D01*
X158894236Y-68861309D01*
X158921943Y-68580000D01*
X158894236Y-68298691D01*
X158812182Y-68028192D01*
X158678932Y-67778899D01*
X158499608Y-67560392D01*
X158281101Y-67381068D01*
X158148142Y-67310000D01*
X158281101Y-67238932D01*
X158499608Y-67059608D01*
X158678932Y-66841101D01*
X158700901Y-66800000D01*
X165929078Y-66800000D01*
X165966400Y-66803676D01*
X166003722Y-66800000D01*
X166003733Y-66800000D01*
X166115386Y-66789003D01*
X166258647Y-66745546D01*
X166390676Y-66674974D01*
X166506401Y-66580001D01*
X166530204Y-66550997D01*
X170185902Y-62895300D01*
X171083534Y-62895300D01*
X171036783Y-62933668D01*
X171004699Y-62959999D01*
X170980901Y-62988997D01*
X166149899Y-67820000D01*
X163998072Y-67820000D01*
X163998072Y-67780000D01*
X163985812Y-67655518D01*
X163949502Y-67535820D01*
X163890537Y-67425506D01*
X163811185Y-67328815D01*
X163714494Y-67249463D01*
X163604180Y-67190498D01*
X163484482Y-67154188D01*
X163360000Y-67141928D01*
X161760000Y-67141928D01*
X161635518Y-67154188D01*
X161515820Y-67190498D01*
X161405506Y-67249463D01*
X161308815Y-67328815D01*
X161229463Y-67425506D01*
X161170498Y-67535820D01*
X161134188Y-67655518D01*
X161121928Y-67780000D01*
X161121928Y-69380000D01*
X161134188Y-69504482D01*
X161170498Y-69624180D01*
X161229463Y-69734494D01*
X161308815Y-69831185D01*
X161405506Y-69910537D01*
X161515820Y-69969502D01*
X161635518Y-70005812D01*
X161660080Y-70008231D01*
X161496481Y-70156586D01*
X161328963Y-70382580D01*
X161208754Y-70636913D01*
X161168096Y-70770961D01*
X161290085Y-70993000D01*
X162433000Y-70993000D01*
X162433000Y-70973000D01*
X162687000Y-70973000D01*
X162687000Y-70993000D01*
X163829915Y-70993000D01*
X163951904Y-70770961D01*
X163911246Y-70636913D01*
X163791037Y-70382580D01*
X163623519Y-70156586D01*
X163459920Y-70008231D01*
X163484482Y-70005812D01*
X163604180Y-69969502D01*
X163714494Y-69910537D01*
X163811185Y-69831185D01*
X163890537Y-69734494D01*
X163949502Y-69624180D01*
X163985812Y-69504482D01*
X163998072Y-69380000D01*
X163998072Y-69340000D01*
X166427378Y-69340000D01*
X166464700Y-69343676D01*
X166502022Y-69340000D01*
X166502033Y-69340000D01*
X166613686Y-69329003D01*
X166756947Y-69285546D01*
X166888976Y-69214974D01*
X167004701Y-69120001D01*
X167028504Y-69090997D01*
X171373515Y-64745987D01*
X171418815Y-64801185D01*
X171515506Y-64880537D01*
X171625820Y-64939502D01*
X171745518Y-64975812D01*
X171870000Y-64988072D01*
X173570000Y-64988072D01*
X173694482Y-64975812D01*
X173814180Y-64939502D01*
X173924494Y-64880537D01*
X174021185Y-64801185D01*
X174100537Y-64704494D01*
X174159502Y-64594180D01*
X174195812Y-64474482D01*
X174208072Y-64350000D01*
X174208072Y-62895300D01*
X175412078Y-62895300D01*
X175449400Y-62898976D01*
X175486722Y-62895300D01*
X175486733Y-62895300D01*
X175598386Y-62884303D01*
X175741647Y-62840846D01*
X175873676Y-62770274D01*
X175989401Y-62675301D01*
X176013204Y-62646297D01*
X176699566Y-61959936D01*
X176744866Y-62015134D01*
X176744866Y-62015134D01*
G37*
X176744866Y-62015134D02*
X176774687Y-62039607D01*
X176705820Y-62060498D01*
X176595506Y-62119463D01*
X176498815Y-62198815D01*
X176419463Y-62295506D01*
X176360498Y-62405820D01*
X176324188Y-62525518D01*
X176311928Y-62650000D01*
X176311928Y-64350000D01*
X176324188Y-64474482D01*
X176360498Y-64594180D01*
X176419463Y-64704494D01*
X176498815Y-64801185D01*
X176554013Y-64846485D01*
X173384398Y-68016101D01*
X173355400Y-68039899D01*
X173331602Y-68068897D01*
X173331601Y-68068898D01*
X173260426Y-68155624D01*
X173189854Y-68287654D01*
X173146398Y-68430915D01*
X173131724Y-68579900D01*
X173135401Y-68617232D01*
X173135400Y-78857398D01*
X163805945Y-88186854D01*
X163758932Y-88098899D01*
X163579608Y-87880392D01*
X163361101Y-87701068D01*
X163313942Y-87675861D01*
X163309003Y-87625714D01*
X163298840Y-87592211D01*
X163361101Y-87558932D01*
X163579608Y-87379608D01*
X163758932Y-87161101D01*
X163892182Y-86911808D01*
X163974236Y-86641309D01*
X164001943Y-86360000D01*
X163974236Y-86078691D01*
X163892182Y-85808192D01*
X163758932Y-85558899D01*
X163579608Y-85340392D01*
X163361101Y-85161068D01*
X163313942Y-85135861D01*
X163309003Y-85085714D01*
X163298840Y-85052211D01*
X163361101Y-85018932D01*
X163579608Y-84839608D01*
X163758932Y-84621101D01*
X163892182Y-84371808D01*
X163974236Y-84101309D01*
X164001943Y-83820000D01*
X163974236Y-83538691D01*
X163892182Y-83268192D01*
X163758932Y-83018899D01*
X163579608Y-82800392D01*
X163361101Y-82621068D01*
X163313942Y-82595861D01*
X163309003Y-82545714D01*
X163298840Y-82512211D01*
X163361101Y-82478932D01*
X163579608Y-82299608D01*
X163758932Y-82081101D01*
X163892182Y-81831808D01*
X163974236Y-81561309D01*
X164001943Y-81280000D01*
X163974236Y-80998691D01*
X163892182Y-80728192D01*
X163758932Y-80478899D01*
X163579608Y-80260392D01*
X163361101Y-80081068D01*
X163313942Y-80055861D01*
X163309003Y-80005714D01*
X163298840Y-79972211D01*
X163361101Y-79938932D01*
X163579608Y-79759608D01*
X163758932Y-79541101D01*
X163892182Y-79291808D01*
X163974236Y-79021309D01*
X164001943Y-78740000D01*
X163974236Y-78458691D01*
X163892182Y-78188192D01*
X163758932Y-77938899D01*
X163579608Y-77720392D01*
X163361101Y-77541068D01*
X163228142Y-77470000D01*
X163361101Y-77398932D01*
X163579608Y-77219608D01*
X163758932Y-77001101D01*
X163892182Y-76751808D01*
X163974236Y-76481309D01*
X164001943Y-76200000D01*
X163974236Y-75918691D01*
X163892182Y-75648192D01*
X163758932Y-75398899D01*
X163579608Y-75180392D01*
X163361101Y-75001068D01*
X163228142Y-74930000D01*
X163361101Y-74858932D01*
X163579608Y-74679608D01*
X163758932Y-74461101D01*
X163892182Y-74211808D01*
X163974236Y-73941309D01*
X164001943Y-73660000D01*
X163974236Y-73378691D01*
X163892182Y-73108192D01*
X163758932Y-72858899D01*
X163579608Y-72640392D01*
X163361101Y-72461068D01*
X163223318Y-72387421D01*
X163415131Y-72272385D01*
X163623519Y-72083414D01*
X163791037Y-71857420D01*
X163911246Y-71603087D01*
X163951904Y-71469039D01*
X163829915Y-71247000D01*
X162687000Y-71247000D01*
X162687000Y-71267000D01*
X162433000Y-71267000D01*
X162433000Y-71247000D01*
X161290085Y-71247000D01*
X161168096Y-71469039D01*
X161208754Y-71603087D01*
X161328963Y-71857420D01*
X161496481Y-72083414D01*
X161704869Y-72272385D01*
X161896682Y-72387421D01*
X161758899Y-72461068D01*
X161540392Y-72640392D01*
X161361068Y-72858899D01*
X161227818Y-73108192D01*
X161145764Y-73378691D01*
X161118057Y-73660000D01*
X161145764Y-73941309D01*
X161227818Y-74211808D01*
X161361068Y-74461101D01*
X161540392Y-74679608D01*
X161758899Y-74858932D01*
X161891858Y-74930000D01*
X161758899Y-75001068D01*
X161540392Y-75180392D01*
X161361068Y-75398899D01*
X161227818Y-75648192D01*
X161145764Y-75918691D01*
X161118057Y-76200000D01*
X161145764Y-76481309D01*
X161227818Y-76751808D01*
X161361068Y-77001101D01*
X161540392Y-77219608D01*
X161758899Y-77398932D01*
X161891858Y-77470000D01*
X161758899Y-77541068D01*
X161540392Y-77720392D01*
X161361068Y-77938899D01*
X161283263Y-78084462D01*
X159365719Y-76166918D01*
X159354303Y-76051014D01*
X159310846Y-75907753D01*
X159240274Y-75775724D01*
X159145301Y-75659999D01*
X159029576Y-75565026D01*
X158897547Y-75494454D01*
X158754286Y-75450997D01*
X158704139Y-75446058D01*
X158678932Y-75398899D01*
X158499608Y-75180392D01*
X158281101Y-75001068D01*
X158148142Y-74930000D01*
X158281101Y-74858932D01*
X158499608Y-74679608D01*
X158678932Y-74461101D01*
X158812182Y-74211808D01*
X158894236Y-73941309D01*
X158921943Y-73660000D01*
X158894236Y-73378691D01*
X158812182Y-73108192D01*
X158678932Y-72858899D01*
X158499608Y-72640392D01*
X158281101Y-72461068D01*
X158148142Y-72390000D01*
X158281101Y-72318932D01*
X158499608Y-72139608D01*
X158678932Y-71921101D01*
X158812182Y-71671808D01*
X158894236Y-71401309D01*
X158921943Y-71120000D01*
X158894236Y-70838691D01*
X158812182Y-70568192D01*
X158678932Y-70318899D01*
X158499608Y-70100392D01*
X158281101Y-69921068D01*
X158148142Y-69850000D01*
X158281101Y-69778932D01*
X158499608Y-69599608D01*
X158678932Y-69381101D01*
X158812182Y-69131808D01*
X158894236Y-68861309D01*
X158921943Y-68580000D01*
X158894236Y-68298691D01*
X158812182Y-68028192D01*
X158678932Y-67778899D01*
X158499608Y-67560392D01*
X158281101Y-67381068D01*
X158148142Y-67310000D01*
X158281101Y-67238932D01*
X158499608Y-67059608D01*
X158678932Y-66841101D01*
X158700901Y-66800000D01*
X165929078Y-66800000D01*
X165966400Y-66803676D01*
X166003722Y-66800000D01*
X166003733Y-66800000D01*
X166115386Y-66789003D01*
X166258647Y-66745546D01*
X166390676Y-66674974D01*
X166506401Y-66580001D01*
X166530204Y-66550997D01*
X170185902Y-62895300D01*
X171083534Y-62895300D01*
X171036783Y-62933668D01*
X171004699Y-62959999D01*
X170980901Y-62988997D01*
X166149899Y-67820000D01*
X163998072Y-67820000D01*
X163998072Y-67780000D01*
X163985812Y-67655518D01*
X163949502Y-67535820D01*
X163890537Y-67425506D01*
X163811185Y-67328815D01*
X163714494Y-67249463D01*
X163604180Y-67190498D01*
X163484482Y-67154188D01*
X163360000Y-67141928D01*
X161760000Y-67141928D01*
X161635518Y-67154188D01*
X161515820Y-67190498D01*
X161405506Y-67249463D01*
X161308815Y-67328815D01*
X161229463Y-67425506D01*
X161170498Y-67535820D01*
X161134188Y-67655518D01*
X161121928Y-67780000D01*
X161121928Y-69380000D01*
X161134188Y-69504482D01*
X161170498Y-69624180D01*
X161229463Y-69734494D01*
X161308815Y-69831185D01*
X161405506Y-69910537D01*
X161515820Y-69969502D01*
X161635518Y-70005812D01*
X161660080Y-70008231D01*
X161496481Y-70156586D01*
X161328963Y-70382580D01*
X161208754Y-70636913D01*
X161168096Y-70770961D01*
X161290085Y-70993000D01*
X162433000Y-70993000D01*
X162433000Y-70973000D01*
X162687000Y-70973000D01*
X162687000Y-70993000D01*
X163829915Y-70993000D01*
X163951904Y-70770961D01*
X163911246Y-70636913D01*
X163791037Y-70382580D01*
X163623519Y-70156586D01*
X163459920Y-70008231D01*
X163484482Y-70005812D01*
X163604180Y-69969502D01*
X163714494Y-69910537D01*
X163811185Y-69831185D01*
X163890537Y-69734494D01*
X163949502Y-69624180D01*
X163985812Y-69504482D01*
X163998072Y-69380000D01*
X163998072Y-69340000D01*
X166427378Y-69340000D01*
X166464700Y-69343676D01*
X166502022Y-69340000D01*
X166502033Y-69340000D01*
X166613686Y-69329003D01*
X166756947Y-69285546D01*
X166888976Y-69214974D01*
X167004701Y-69120001D01*
X167028504Y-69090997D01*
X171373515Y-64745987D01*
X171418815Y-64801185D01*
X171515506Y-64880537D01*
X171625820Y-64939502D01*
X171745518Y-64975812D01*
X171870000Y-64988072D01*
X173570000Y-64988072D01*
X173694482Y-64975812D01*
X173814180Y-64939502D01*
X173924494Y-64880537D01*
X174021185Y-64801185D01*
X174100537Y-64704494D01*
X174159502Y-64594180D01*
X174195812Y-64474482D01*
X174208072Y-64350000D01*
X174208072Y-62895300D01*
X175412078Y-62895300D01*
X175449400Y-62898976D01*
X175486722Y-62895300D01*
X175486733Y-62895300D01*
X175598386Y-62884303D01*
X175741647Y-62840846D01*
X175873676Y-62770274D01*
X175989401Y-62675301D01*
X176013204Y-62646297D01*
X176699566Y-61959936D01*
X176744866Y-62015134D01*
G36*
X177927000Y-81153000D02*
G01*
X177947000Y-81153000D01*
X177947000Y-81407000D01*
X177927000Y-81407000D01*
X177927000Y-81427000D01*
X177673000Y-81427000D01*
X177673000Y-81407000D01*
X177653000Y-81407000D01*
X177653000Y-81153000D01*
X177673000Y-81153000D01*
X177673000Y-81133000D01*
X177927000Y-81133000D01*
X177927000Y-81153000D01*
X177927000Y-81153000D01*
G37*
X177927000Y-81153000D02*
X177947000Y-81153000D01*
X177947000Y-81407000D01*
X177927000Y-81407000D01*
X177927000Y-81427000D01*
X177673000Y-81427000D01*
X177673000Y-81407000D01*
X177653000Y-81407000D01*
X177653000Y-81153000D01*
X177673000Y-81153000D01*
X177673000Y-81133000D01*
X177927000Y-81133000D01*
X177927000Y-81153000D01*
M02*
