%TF.GenerationSoftware,KiCad,Pcbnew,5.1.4-5.1.4*%
%TF.CreationDate,2019-08-21T12:35:07+10:00*%
%TF.ProjectId,8042board,38303432-626f-4617-9264-2e6b69636164,rev?*%
%TF.SameCoordinates,Original*%
%TF.FileFunction,Soldermask,Top*%
%TF.FilePolarity,Negative*%
%FSLAX46Y46*%
G04 Gerber Fmt 4.6, Leading zero omitted, Abs format (unit mm)*
G04 Created by KiCad (PCBNEW 5.1.4-5.1.4) date 2019-08-21 12:35:07*
%MOMM*%
%LPD*%
G04 APERTURE LIST*
%ADD10O,1.600000X1.600000*%
%ADD11R,1.600000X1.600000*%
%ADD12O,1.700000X1.700000*%
%ADD13R,1.700000X1.700000*%
%ADD14C,1.500000*%
%ADD15C,3.500000*%
%ADD16C,1.600000*%
%ADD17C,2.000000*%
%ADD18O,1.800000X1.800000*%
%ADD19R,1.800000X1.800000*%
%ADD20C,1.800000*%
G04 APERTURE END LIST*
D10*
X177800000Y-68580000D03*
X162560000Y-101600000D03*
X177800000Y-71120000D03*
X162560000Y-99060000D03*
X177800000Y-73660000D03*
X162560000Y-96520000D03*
X177800000Y-76200000D03*
X162560000Y-93980000D03*
X177800000Y-78740000D03*
X162560000Y-91440000D03*
X177800000Y-81280000D03*
X162560000Y-88900000D03*
X177800000Y-83820000D03*
X162560000Y-86360000D03*
X177800000Y-86360000D03*
X162560000Y-83820000D03*
X177800000Y-88900000D03*
X162560000Y-81280000D03*
X177800000Y-91440000D03*
X162560000Y-78740000D03*
X177800000Y-93980000D03*
X162560000Y-76200000D03*
X177800000Y-96520000D03*
X162560000Y-73660000D03*
X177800000Y-99060000D03*
X162560000Y-71120000D03*
X177800000Y-101600000D03*
D11*
X162560000Y-68580000D03*
D10*
X157480000Y-53340000D03*
X142240000Y-101600000D03*
X157480000Y-55880000D03*
X142240000Y-99060000D03*
X157480000Y-58420000D03*
X142240000Y-96520000D03*
X157480000Y-60960000D03*
X142240000Y-93980000D03*
X157480000Y-63500000D03*
X142240000Y-91440000D03*
X157480000Y-66040000D03*
X142240000Y-88900000D03*
X157480000Y-68580000D03*
X142240000Y-86360000D03*
X157480000Y-71120000D03*
X142240000Y-83820000D03*
X157480000Y-73660000D03*
X142240000Y-81280000D03*
X157480000Y-76200000D03*
X142240000Y-78740000D03*
X157480000Y-78740000D03*
X142240000Y-76200000D03*
X157480000Y-81280000D03*
X142240000Y-73660000D03*
X157480000Y-83820000D03*
X142240000Y-71120000D03*
X157480000Y-86360000D03*
X142240000Y-68580000D03*
X157480000Y-88900000D03*
X142240000Y-66040000D03*
X157480000Y-91440000D03*
X142240000Y-63500000D03*
X157480000Y-93980000D03*
X142240000Y-60960000D03*
X157480000Y-96520000D03*
X142240000Y-58420000D03*
X157480000Y-99060000D03*
X142240000Y-55880000D03*
X157480000Y-101600000D03*
D11*
X142240000Y-53340000D03*
D12*
X172720000Y-60960000D03*
D13*
X172720000Y-63500000D03*
D14*
X144780000Y-40460000D03*
X144780000Y-35560000D03*
D15*
X160020000Y-111760000D03*
X160020000Y-22860000D03*
D12*
X177800000Y-35560000D03*
D13*
X177800000Y-33020000D03*
D12*
X177800000Y-48260000D03*
X177800000Y-50800000D03*
X177800000Y-53340000D03*
X177800000Y-55880000D03*
X177800000Y-58420000D03*
X177800000Y-60960000D03*
D13*
X177800000Y-63500000D03*
D16*
X165100000Y-45760000D03*
D11*
X165100000Y-48260000D03*
D17*
X150980000Y-43180000D03*
X150980000Y-38680000D03*
X157480000Y-43180000D03*
X157480000Y-38680000D03*
X157630000Y-30480000D03*
X157630000Y-34980000D03*
X151130000Y-30480000D03*
X151130000Y-34980000D03*
D10*
X162560000Y-40640000D03*
D16*
X162560000Y-30480000D03*
D10*
X167640000Y-40640000D03*
D16*
X167640000Y-30480000D03*
D10*
X172720000Y-45720000D03*
D16*
X172720000Y-55880000D03*
D12*
X152400000Y-48260000D03*
X154940000Y-48260000D03*
D13*
X157480000Y-48260000D03*
D18*
X172720000Y-40640000D03*
D19*
X172720000Y-33020000D03*
D20*
X165100000Y-60960000D03*
D19*
X165100000Y-63500000D03*
D16*
X147400000Y-106680000D03*
X152400000Y-106680000D03*
X172640000Y-106680000D03*
X167640000Y-106680000D03*
X142240000Y-45760000D03*
X142240000Y-48260000D03*
X144780000Y-45760000D03*
X144780000Y-48260000D03*
X165100000Y-55840000D03*
D11*
X165100000Y-53340000D03*
M02*
