%TF.GenerationSoftware,KiCad,Pcbnew,5.1.4-5.1.4*%
%TF.CreationDate,2019-08-21T12:35:07+10:00*%
%TF.ProjectId,8042board,38303432-626f-4617-9264-2e6b69636164,rev?*%
%TF.SameCoordinates,Original*%
%TF.FileFunction,Legend,Top*%
%TF.FilePolarity,Positive*%
%FSLAX46Y46*%
G04 Gerber Fmt 4.6, Leading zero omitted, Abs format (unit mm)*
G04 Created by KiCad (PCBNEW 5.1.4-5.1.4) date 2019-08-21 12:35:07*
%MOMM*%
%LPD*%
G04 APERTURE LIST*
%ADD10C,0.150000*%
%ADD11C,0.120000*%
%ADD12C,0.010000*%
G04 APERTURE END LIST*
D10*
X160647142Y-49458571D02*
X160980476Y-49458571D01*
X161123333Y-49982380D02*
X160647142Y-49982380D01*
X160647142Y-48982380D01*
X161123333Y-48982380D01*
X161504285Y-49696666D02*
X161980476Y-49696666D01*
X161409047Y-49982380D02*
X161742380Y-48982380D01*
X162075714Y-49982380D01*
X156353333Y-123005714D02*
X156353333Y-123672380D01*
X156115238Y-122624761D02*
X155877142Y-123339047D01*
X156496190Y-123339047D01*
X157353333Y-122672380D02*
X156877142Y-122672380D01*
X156829523Y-123148571D01*
X156877142Y-123100952D01*
X156972380Y-123053333D01*
X157210476Y-123053333D01*
X157305714Y-123100952D01*
X157353333Y-123148571D01*
X157400952Y-123243809D01*
X157400952Y-123481904D01*
X157353333Y-123577142D01*
X157305714Y-123624761D01*
X157210476Y-123672380D01*
X156972380Y-123672380D01*
X156877142Y-123624761D01*
X156829523Y-123577142D01*
X157829523Y-123577142D02*
X157877142Y-123624761D01*
X157829523Y-123672380D01*
X157781904Y-123624761D01*
X157829523Y-123577142D01*
X157829523Y-123672380D01*
X158210476Y-122672380D02*
X158877142Y-122672380D01*
X158448571Y-123672380D01*
X159210476Y-122767619D02*
X159258095Y-122720000D01*
X159353333Y-122672380D01*
X159591428Y-122672380D01*
X159686666Y-122720000D01*
X159734285Y-122767619D01*
X159781904Y-122862857D01*
X159781904Y-122958095D01*
X159734285Y-123100952D01*
X159162857Y-123672380D01*
X159781904Y-123672380D01*
X160400952Y-122672380D02*
X160496190Y-122672380D01*
X160591428Y-122720000D01*
X160639047Y-122767619D01*
X160686666Y-122862857D01*
X160734285Y-123053333D01*
X160734285Y-123291428D01*
X160686666Y-123481904D01*
X160639047Y-123577142D01*
X160591428Y-123624761D01*
X160496190Y-123672380D01*
X160400952Y-123672380D01*
X160305714Y-123624761D01*
X160258095Y-123577142D01*
X160210476Y-123481904D01*
X160162857Y-123291428D01*
X160162857Y-123053333D01*
X160210476Y-122862857D01*
X160258095Y-122767619D01*
X160305714Y-122720000D01*
X160400952Y-122672380D01*
X161924761Y-123672380D02*
X161924761Y-123005714D01*
X161924761Y-123100952D02*
X161972380Y-123053333D01*
X162067619Y-123005714D01*
X162210476Y-123005714D01*
X162305714Y-123053333D01*
X162353333Y-123148571D01*
X162353333Y-123672380D01*
X162353333Y-123148571D02*
X162400952Y-123053333D01*
X162496190Y-123005714D01*
X162639047Y-123005714D01*
X162734285Y-123053333D01*
X162781904Y-123148571D01*
X162781904Y-123672380D01*
X163258095Y-123672380D02*
X163258095Y-123005714D01*
X163258095Y-123100952D02*
X163305714Y-123053333D01*
X163400952Y-123005714D01*
X163543809Y-123005714D01*
X163639047Y-123053333D01*
X163686666Y-123148571D01*
X163686666Y-123672380D01*
X163686666Y-123148571D02*
X163734285Y-123053333D01*
X163829523Y-123005714D01*
X163972380Y-123005714D01*
X164067619Y-123053333D01*
X164115238Y-123148571D01*
X164115238Y-123672380D01*
X137160000Y-121920000D02*
X182880000Y-121920000D01*
X137160000Y-114300000D02*
X137160000Y-122506421D01*
X182880000Y-114300000D02*
X182880000Y-122506421D01*
X182880000Y-121920000D02*
X181753496Y-122506421D01*
X182880000Y-121920000D02*
X181753496Y-121333579D01*
X137160000Y-121920000D02*
X138286504Y-122506421D01*
X137160000Y-121920000D02*
X138286504Y-121333579D01*
X188807619Y-63262380D02*
X188807619Y-63452857D01*
X188855238Y-63548095D01*
X188902857Y-63595714D01*
X189045714Y-63690952D01*
X189236190Y-63738571D01*
X189617142Y-63738571D01*
X189712380Y-63690952D01*
X189760000Y-63643333D01*
X189807619Y-63548095D01*
X189807619Y-63357619D01*
X189760000Y-63262380D01*
X189712380Y-63214761D01*
X189617142Y-63167142D01*
X189379047Y-63167142D01*
X189283809Y-63214761D01*
X189236190Y-63262380D01*
X189188571Y-63357619D01*
X189188571Y-63548095D01*
X189236190Y-63643333D01*
X189283809Y-63690952D01*
X189379047Y-63738571D01*
X188807619Y-64214761D02*
X188807619Y-64405238D01*
X188855238Y-64500476D01*
X188902857Y-64548095D01*
X189045714Y-64643333D01*
X189236190Y-64690952D01*
X189617142Y-64690952D01*
X189712380Y-64643333D01*
X189760000Y-64595714D01*
X189807619Y-64500476D01*
X189807619Y-64310000D01*
X189760000Y-64214761D01*
X189712380Y-64167142D01*
X189617142Y-64119523D01*
X189379047Y-64119523D01*
X189283809Y-64167142D01*
X189236190Y-64214761D01*
X189188571Y-64310000D01*
X189188571Y-64500476D01*
X189236190Y-64595714D01*
X189283809Y-64643333D01*
X189379047Y-64690952D01*
X188902857Y-65119523D02*
X188855238Y-65167142D01*
X188807619Y-65119523D01*
X188855238Y-65071904D01*
X188902857Y-65119523D01*
X188807619Y-65119523D01*
X189807619Y-65786190D02*
X189807619Y-65881428D01*
X189760000Y-65976666D01*
X189712380Y-66024285D01*
X189617142Y-66071904D01*
X189426666Y-66119523D01*
X189188571Y-66119523D01*
X188998095Y-66071904D01*
X188902857Y-66024285D01*
X188855238Y-65976666D01*
X188807619Y-65881428D01*
X188807619Y-65786190D01*
X188855238Y-65690952D01*
X188902857Y-65643333D01*
X188998095Y-65595714D01*
X189188571Y-65548095D01*
X189426666Y-65548095D01*
X189617142Y-65595714D01*
X189712380Y-65643333D01*
X189760000Y-65690952D01*
X189807619Y-65786190D01*
X189807619Y-66976666D02*
X189807619Y-66786190D01*
X189760000Y-66690952D01*
X189712380Y-66643333D01*
X189569523Y-66548095D01*
X189379047Y-66500476D01*
X188998095Y-66500476D01*
X188902857Y-66548095D01*
X188855238Y-66595714D01*
X188807619Y-66690952D01*
X188807619Y-66881428D01*
X188855238Y-66976666D01*
X188902857Y-67024285D01*
X188998095Y-67071904D01*
X189236190Y-67071904D01*
X189331428Y-67024285D01*
X189379047Y-66976666D01*
X189426666Y-66881428D01*
X189426666Y-66690952D01*
X189379047Y-66595714D01*
X189331428Y-66548095D01*
X189236190Y-66500476D01*
X189807619Y-67690952D02*
X189807619Y-67786190D01*
X189760000Y-67881428D01*
X189712380Y-67929047D01*
X189617142Y-67976666D01*
X189426666Y-68024285D01*
X189188571Y-68024285D01*
X188998095Y-67976666D01*
X188902857Y-67929047D01*
X188855238Y-67881428D01*
X188807619Y-67786190D01*
X188807619Y-67690952D01*
X188855238Y-67595714D01*
X188902857Y-67548095D01*
X188998095Y-67500476D01*
X189188571Y-67452857D01*
X189426666Y-67452857D01*
X189617142Y-67500476D01*
X189712380Y-67548095D01*
X189760000Y-67595714D01*
X189807619Y-67690952D01*
X188807619Y-69214761D02*
X189474285Y-69214761D01*
X189379047Y-69214761D02*
X189426666Y-69262380D01*
X189474285Y-69357619D01*
X189474285Y-69500476D01*
X189426666Y-69595714D01*
X189331428Y-69643333D01*
X188807619Y-69643333D01*
X189331428Y-69643333D02*
X189426666Y-69690952D01*
X189474285Y-69786190D01*
X189474285Y-69929047D01*
X189426666Y-70024285D01*
X189331428Y-70071904D01*
X188807619Y-70071904D01*
X188807619Y-70548095D02*
X189474285Y-70548095D01*
X189379047Y-70548095D02*
X189426666Y-70595714D01*
X189474285Y-70690952D01*
X189474285Y-70833809D01*
X189426666Y-70929047D01*
X189331428Y-70976666D01*
X188807619Y-70976666D01*
X189331428Y-70976666D02*
X189426666Y-71024285D01*
X189474285Y-71119523D01*
X189474285Y-71262380D01*
X189426666Y-71357619D01*
X189331428Y-71405238D01*
X188807619Y-71405238D01*
X187960000Y-17780000D02*
X187960000Y-116840000D01*
X180340000Y-17780000D02*
X188546421Y-17780000D01*
X180340000Y-116840000D02*
X188546421Y-116840000D01*
X187960000Y-116840000D02*
X187373579Y-115713496D01*
X187960000Y-116840000D02*
X188546421Y-115713496D01*
X187960000Y-17780000D02*
X187373579Y-18906504D01*
X187960000Y-17780000D02*
X188546421Y-18906504D01*
X141284285Y-21481428D02*
X141141428Y-21410000D01*
X141070000Y-21338571D01*
X140998571Y-21195714D01*
X140998571Y-21124285D01*
X141070000Y-20981428D01*
X141141428Y-20910000D01*
X141284285Y-20838571D01*
X141570000Y-20838571D01*
X141712857Y-20910000D01*
X141784285Y-20981428D01*
X141855714Y-21124285D01*
X141855714Y-21195714D01*
X141784285Y-21338571D01*
X141712857Y-21410000D01*
X141570000Y-21481428D01*
X141284285Y-21481428D01*
X141141428Y-21552857D01*
X141070000Y-21624285D01*
X140998571Y-21767142D01*
X140998571Y-22052857D01*
X141070000Y-22195714D01*
X141141428Y-22267142D01*
X141284285Y-22338571D01*
X141570000Y-22338571D01*
X141712857Y-22267142D01*
X141784285Y-22195714D01*
X141855714Y-22052857D01*
X141855714Y-21767142D01*
X141784285Y-21624285D01*
X141712857Y-21552857D01*
X141570000Y-21481428D01*
X142784285Y-20838571D02*
X142927142Y-20838571D01*
X143070000Y-20910000D01*
X143141428Y-20981428D01*
X143212857Y-21124285D01*
X143284285Y-21410000D01*
X143284285Y-21767142D01*
X143212857Y-22052857D01*
X143141428Y-22195714D01*
X143070000Y-22267142D01*
X142927142Y-22338571D01*
X142784285Y-22338571D01*
X142641428Y-22267142D01*
X142570000Y-22195714D01*
X142498571Y-22052857D01*
X142427142Y-21767142D01*
X142427142Y-21410000D01*
X142498571Y-21124285D01*
X142570000Y-20981428D01*
X142641428Y-20910000D01*
X142784285Y-20838571D01*
X144570000Y-21338571D02*
X144570000Y-22338571D01*
X144212857Y-20767142D02*
X143855714Y-21838571D01*
X144784285Y-21838571D01*
X145284285Y-20981428D02*
X145355714Y-20910000D01*
X145498571Y-20838571D01*
X145855714Y-20838571D01*
X145998571Y-20910000D01*
X146070000Y-20981428D01*
X146141428Y-21124285D01*
X146141428Y-21267142D01*
X146070000Y-21481428D01*
X145212857Y-22338571D01*
X146141428Y-22338571D01*
X147927142Y-22338571D02*
X147927142Y-20838571D01*
X147927142Y-21410000D02*
X148070000Y-21338571D01*
X148355714Y-21338571D01*
X148498571Y-21410000D01*
X148570000Y-21481428D01*
X148641428Y-21624285D01*
X148641428Y-22052857D01*
X148570000Y-22195714D01*
X148498571Y-22267142D01*
X148355714Y-22338571D01*
X148070000Y-22338571D01*
X147927142Y-22267142D01*
X149498571Y-22338571D02*
X149355714Y-22267142D01*
X149284285Y-22195714D01*
X149212857Y-22052857D01*
X149212857Y-21624285D01*
X149284285Y-21481428D01*
X149355714Y-21410000D01*
X149498571Y-21338571D01*
X149712857Y-21338571D01*
X149855714Y-21410000D01*
X149927142Y-21481428D01*
X149998571Y-21624285D01*
X149998571Y-22052857D01*
X149927142Y-22195714D01*
X149855714Y-22267142D01*
X149712857Y-22338571D01*
X149498571Y-22338571D01*
X151284285Y-22338571D02*
X151284285Y-21552857D01*
X151212857Y-21410000D01*
X151070000Y-21338571D01*
X150784285Y-21338571D01*
X150641428Y-21410000D01*
X151284285Y-22267142D02*
X151141428Y-22338571D01*
X150784285Y-22338571D01*
X150641428Y-22267142D01*
X150570000Y-22124285D01*
X150570000Y-21981428D01*
X150641428Y-21838571D01*
X150784285Y-21767142D01*
X151141428Y-21767142D01*
X151284285Y-21695714D01*
X151998571Y-22338571D02*
X151998571Y-21338571D01*
X151998571Y-21624285D02*
X152070000Y-21481428D01*
X152141428Y-21410000D01*
X152284285Y-21338571D01*
X152427142Y-21338571D01*
X153570000Y-22338571D02*
X153570000Y-20838571D01*
X153570000Y-22267142D02*
X153427142Y-22338571D01*
X153141428Y-22338571D01*
X152998571Y-22267142D01*
X152927142Y-22195714D01*
X152855714Y-22052857D01*
X152855714Y-21624285D01*
X152927142Y-21481428D01*
X152998571Y-21410000D01*
X153141428Y-21338571D01*
X153427142Y-21338571D01*
X153570000Y-21410000D01*
X139605714Y-24738571D02*
X139605714Y-23238571D01*
X140462857Y-24738571D02*
X139820000Y-23881428D01*
X140462857Y-23238571D02*
X139605714Y-24095714D01*
X141677142Y-24667142D02*
X141534285Y-24738571D01*
X141248571Y-24738571D01*
X141105714Y-24667142D01*
X141034285Y-24524285D01*
X141034285Y-23952857D01*
X141105714Y-23810000D01*
X141248571Y-23738571D01*
X141534285Y-23738571D01*
X141677142Y-23810000D01*
X141748571Y-23952857D01*
X141748571Y-24095714D01*
X141034285Y-24238571D01*
X142391428Y-23738571D02*
X142391428Y-24738571D01*
X142391428Y-23881428D02*
X142462857Y-23810000D01*
X142605714Y-23738571D01*
X142820000Y-23738571D01*
X142962857Y-23810000D01*
X143034285Y-23952857D01*
X143034285Y-24738571D01*
X145177142Y-24024285D02*
X145177142Y-24738571D01*
X144677142Y-23238571D02*
X145177142Y-24024285D01*
X145677142Y-23238571D01*
X146820000Y-24738571D02*
X146820000Y-23952857D01*
X146748571Y-23810000D01*
X146605714Y-23738571D01*
X146320000Y-23738571D01*
X146177142Y-23810000D01*
X146820000Y-24667142D02*
X146677142Y-24738571D01*
X146320000Y-24738571D01*
X146177142Y-24667142D01*
X146105714Y-24524285D01*
X146105714Y-24381428D01*
X146177142Y-24238571D01*
X146320000Y-24167142D01*
X146677142Y-24167142D01*
X146820000Y-24095714D01*
X147534285Y-23738571D02*
X147534285Y-25238571D01*
X147534285Y-23810000D02*
X147677142Y-23738571D01*
X147962857Y-23738571D01*
X148105714Y-23810000D01*
X148177142Y-23881428D01*
X148248571Y-24024285D01*
X148248571Y-24452857D01*
X148177142Y-24595714D01*
X148105714Y-24667142D01*
X147962857Y-24738571D01*
X147677142Y-24738571D01*
X147534285Y-24667142D01*
X149962857Y-23381428D02*
X150034285Y-23310000D01*
X150177142Y-23238571D01*
X150534285Y-23238571D01*
X150677142Y-23310000D01*
X150748571Y-23381428D01*
X150820000Y-23524285D01*
X150820000Y-23667142D01*
X150748571Y-23881428D01*
X149891428Y-24738571D01*
X150820000Y-24738571D01*
X151748571Y-23238571D02*
X151891428Y-23238571D01*
X152034285Y-23310000D01*
X152105714Y-23381428D01*
X152177142Y-23524285D01*
X152248571Y-23810000D01*
X152248571Y-24167142D01*
X152177142Y-24452857D01*
X152105714Y-24595714D01*
X152034285Y-24667142D01*
X151891428Y-24738571D01*
X151748571Y-24738571D01*
X151605714Y-24667142D01*
X151534285Y-24595714D01*
X151462857Y-24452857D01*
X151391428Y-24167142D01*
X151391428Y-23810000D01*
X151462857Y-23524285D01*
X151534285Y-23381428D01*
X151605714Y-23310000D01*
X151748571Y-23238571D01*
X153677142Y-24738571D02*
X152820000Y-24738571D01*
X153248571Y-24738571D02*
X153248571Y-23238571D01*
X153105714Y-23452857D01*
X152962857Y-23595714D01*
X152820000Y-23667142D01*
X154391428Y-24738571D02*
X154677142Y-24738571D01*
X154820000Y-24667142D01*
X154891428Y-24595714D01*
X155034285Y-24381428D01*
X155105714Y-24095714D01*
X155105714Y-23524285D01*
X155034285Y-23381428D01*
X154962857Y-23310000D01*
X154820000Y-23238571D01*
X154534285Y-23238571D01*
X154391428Y-23310000D01*
X154320000Y-23381428D01*
X154248571Y-23524285D01*
X154248571Y-23881428D01*
X154320000Y-24024285D01*
X154391428Y-24095714D01*
X154534285Y-24167142D01*
X154820000Y-24167142D01*
X154962857Y-24095714D01*
X155034285Y-24024285D01*
X155105714Y-23881428D01*
D11*
X179130000Y-67190000D02*
X161230000Y-67190000D01*
X179130000Y-102990000D02*
X179130000Y-67190000D01*
X161230000Y-102990000D02*
X179130000Y-102990000D01*
X161230000Y-67190000D02*
X161230000Y-102990000D01*
X176640000Y-67250000D02*
X171180000Y-67250000D01*
X176640000Y-102930000D02*
X176640000Y-67250000D01*
X163720000Y-102930000D02*
X176640000Y-102930000D01*
X163720000Y-67250000D02*
X163720000Y-102930000D01*
X169180000Y-67250000D02*
X163720000Y-67250000D01*
X171180000Y-67250000D02*
G75*
G02X169180000Y-67250000I-1000000J0D01*
G01*
X158810000Y-51950000D02*
X140910000Y-51950000D01*
X158810000Y-102990000D02*
X158810000Y-51950000D01*
X140910000Y-102990000D02*
X158810000Y-102990000D01*
X140910000Y-51950000D02*
X140910000Y-102990000D01*
X156320000Y-52010000D02*
X150860000Y-52010000D01*
X156320000Y-102930000D02*
X156320000Y-52010000D01*
X143400000Y-102930000D02*
X156320000Y-102930000D01*
X143400000Y-52010000D02*
X143400000Y-102930000D01*
X148860000Y-52010000D02*
X143400000Y-52010000D01*
X150860000Y-52010000D02*
G75*
G02X148860000Y-52010000I-1000000J0D01*
G01*
X174050000Y-64830000D02*
X172720000Y-64830000D01*
X174050000Y-63500000D02*
X174050000Y-64830000D01*
X174050000Y-62230000D02*
X171390000Y-62230000D01*
X171390000Y-62230000D02*
X171390000Y-59630000D01*
X174050000Y-62230000D02*
X174050000Y-59630000D01*
X174050000Y-59630000D02*
X171390000Y-59630000D01*
D12*
G36*
X170446957Y-19886571D02*
G01*
X170543232Y-19910809D01*
X170629816Y-19953641D01*
X170704627Y-20013419D01*
X170765582Y-20088494D01*
X170810601Y-20177220D01*
X170836864Y-20273530D01*
X170842714Y-20370795D01*
X170827860Y-20464654D01*
X170794160Y-20552511D01*
X170743472Y-20631770D01*
X170677655Y-20699836D01*
X170598566Y-20754112D01*
X170508066Y-20792002D01*
X170456800Y-20804426D01*
X170412302Y-20811947D01*
X170378001Y-20814919D01*
X170345040Y-20813094D01*
X170304566Y-20806225D01*
X170271469Y-20799250D01*
X170178053Y-20767741D01*
X170094381Y-20716617D01*
X170022335Y-20647429D01*
X169963800Y-20561728D01*
X169949852Y-20534489D01*
X169933414Y-20498122D01*
X169923106Y-20467582D01*
X169917540Y-20435450D01*
X169915331Y-20394307D01*
X169915052Y-20348222D01*
X169919139Y-20263865D01*
X169932554Y-20194586D01*
X169957744Y-20133961D01*
X169997154Y-20075567D01*
X170035702Y-20031302D01*
X170107594Y-19965484D01*
X170182687Y-19920053D01*
X170265438Y-19892850D01*
X170343072Y-19882576D01*
X170446957Y-19886571D01*
X170446957Y-19886571D01*
G37*
X170446957Y-19886571D02*
X170543232Y-19910809D01*
X170629816Y-19953641D01*
X170704627Y-20013419D01*
X170765582Y-20088494D01*
X170810601Y-20177220D01*
X170836864Y-20273530D01*
X170842714Y-20370795D01*
X170827860Y-20464654D01*
X170794160Y-20552511D01*
X170743472Y-20631770D01*
X170677655Y-20699836D01*
X170598566Y-20754112D01*
X170508066Y-20792002D01*
X170456800Y-20804426D01*
X170412302Y-20811947D01*
X170378001Y-20814919D01*
X170345040Y-20813094D01*
X170304566Y-20806225D01*
X170271469Y-20799250D01*
X170178053Y-20767741D01*
X170094381Y-20716617D01*
X170022335Y-20647429D01*
X169963800Y-20561728D01*
X169949852Y-20534489D01*
X169933414Y-20498122D01*
X169923106Y-20467582D01*
X169917540Y-20435450D01*
X169915331Y-20394307D01*
X169915052Y-20348222D01*
X169919139Y-20263865D01*
X169932554Y-20194586D01*
X169957744Y-20133961D01*
X169997154Y-20075567D01*
X170035702Y-20031302D01*
X170107594Y-19965484D01*
X170182687Y-19920053D01*
X170265438Y-19892850D01*
X170343072Y-19882576D01*
X170446957Y-19886571D01*
G36*
X178906507Y-22332245D02*
G01*
X178906526Y-22566662D01*
X178906552Y-22779603D01*
X178906625Y-22972168D01*
X178906782Y-23145459D01*
X178907064Y-23300576D01*
X178907509Y-23438620D01*
X178908156Y-23560692D01*
X178909045Y-23667894D01*
X178910213Y-23761326D01*
X178911701Y-23842090D01*
X178913546Y-23911286D01*
X178915789Y-23970015D01*
X178918469Y-24019379D01*
X178921623Y-24060478D01*
X178925292Y-24094413D01*
X178929513Y-24122286D01*
X178934327Y-24145198D01*
X178939773Y-24164249D01*
X178945888Y-24180540D01*
X178952712Y-24195173D01*
X178960285Y-24209249D01*
X178968645Y-24223868D01*
X178973839Y-24232974D01*
X179008104Y-24293689D01*
X178149955Y-24293689D01*
X178149955Y-24197733D01*
X178149224Y-24154370D01*
X178147272Y-24121205D01*
X178144463Y-24103424D01*
X178143221Y-24101778D01*
X178131799Y-24108662D01*
X178109084Y-24126505D01*
X178086385Y-24145879D01*
X178031800Y-24186614D01*
X177962321Y-24227617D01*
X177885270Y-24265123D01*
X177807965Y-24295364D01*
X177777113Y-24305012D01*
X177708616Y-24319578D01*
X177625764Y-24329539D01*
X177536371Y-24334583D01*
X177448248Y-24334396D01*
X177369207Y-24328666D01*
X177331511Y-24322858D01*
X177193414Y-24284797D01*
X177066113Y-24227073D01*
X176950292Y-24150211D01*
X176846637Y-24054739D01*
X176755833Y-23941179D01*
X176689031Y-23830381D01*
X176634164Y-23713625D01*
X176592163Y-23594276D01*
X176562167Y-23468283D01*
X176543311Y-23331594D01*
X176534732Y-23180158D01*
X176534006Y-23102711D01*
X176536100Y-23045934D01*
X177365217Y-23045934D01*
X177365424Y-23139002D01*
X177368337Y-23226692D01*
X177374000Y-23303772D01*
X177382455Y-23365009D01*
X177385038Y-23377350D01*
X177416840Y-23484633D01*
X177458498Y-23571658D01*
X177510363Y-23638642D01*
X177572781Y-23685805D01*
X177646100Y-23713365D01*
X177730669Y-23721541D01*
X177826835Y-23710551D01*
X177890311Y-23694829D01*
X177939454Y-23676639D01*
X177993583Y-23650791D01*
X178034244Y-23627089D01*
X178104800Y-23580721D01*
X178104800Y-22430530D01*
X178037392Y-22386962D01*
X177958867Y-22346040D01*
X177874681Y-22319389D01*
X177789557Y-22307465D01*
X177708216Y-22310722D01*
X177635380Y-22329615D01*
X177603426Y-22345184D01*
X177545501Y-22388181D01*
X177496544Y-22444953D01*
X177455390Y-22517575D01*
X177420874Y-22608121D01*
X177391833Y-22718666D01*
X177390552Y-22724533D01*
X177380381Y-22786788D01*
X177372739Y-22864594D01*
X177367670Y-22952720D01*
X177365217Y-23045934D01*
X176536100Y-23045934D01*
X176541857Y-22889895D01*
X176563802Y-22694059D01*
X176599786Y-22515332D01*
X176649759Y-22353845D01*
X176713668Y-22209726D01*
X176791462Y-22083106D01*
X176883089Y-21974115D01*
X176988497Y-21882883D01*
X177033662Y-21851932D01*
X177134611Y-21795785D01*
X177237901Y-21756174D01*
X177347989Y-21732014D01*
X177469330Y-21722219D01*
X177561836Y-21723265D01*
X177691490Y-21734231D01*
X177804084Y-21756046D01*
X177902875Y-21789714D01*
X177991121Y-21836236D01*
X178039986Y-21870448D01*
X178069353Y-21892362D01*
X178091043Y-21907333D01*
X178099253Y-21911733D01*
X178100868Y-21900904D01*
X178102159Y-21870251D01*
X178103138Y-21822526D01*
X178103817Y-21760479D01*
X178104210Y-21686862D01*
X178104330Y-21604427D01*
X178104188Y-21515925D01*
X178103797Y-21424107D01*
X178103171Y-21331724D01*
X178102320Y-21241528D01*
X178101260Y-21156271D01*
X178100001Y-21078703D01*
X178098556Y-21011576D01*
X178096938Y-20957641D01*
X178095161Y-20919650D01*
X178094669Y-20912667D01*
X178087092Y-20842251D01*
X178075531Y-20787102D01*
X178057792Y-20739981D01*
X178031682Y-20693647D01*
X178025415Y-20684067D01*
X178000983Y-20647378D01*
X178906311Y-20647378D01*
X178906507Y-22332245D01*
X178906507Y-22332245D01*
G37*
X178906507Y-22332245D02*
X178906526Y-22566662D01*
X178906552Y-22779603D01*
X178906625Y-22972168D01*
X178906782Y-23145459D01*
X178907064Y-23300576D01*
X178907509Y-23438620D01*
X178908156Y-23560692D01*
X178909045Y-23667894D01*
X178910213Y-23761326D01*
X178911701Y-23842090D01*
X178913546Y-23911286D01*
X178915789Y-23970015D01*
X178918469Y-24019379D01*
X178921623Y-24060478D01*
X178925292Y-24094413D01*
X178929513Y-24122286D01*
X178934327Y-24145198D01*
X178939773Y-24164249D01*
X178945888Y-24180540D01*
X178952712Y-24195173D01*
X178960285Y-24209249D01*
X178968645Y-24223868D01*
X178973839Y-24232974D01*
X179008104Y-24293689D01*
X178149955Y-24293689D01*
X178149955Y-24197733D01*
X178149224Y-24154370D01*
X178147272Y-24121205D01*
X178144463Y-24103424D01*
X178143221Y-24101778D01*
X178131799Y-24108662D01*
X178109084Y-24126505D01*
X178086385Y-24145879D01*
X178031800Y-24186614D01*
X177962321Y-24227617D01*
X177885270Y-24265123D01*
X177807965Y-24295364D01*
X177777113Y-24305012D01*
X177708616Y-24319578D01*
X177625764Y-24329539D01*
X177536371Y-24334583D01*
X177448248Y-24334396D01*
X177369207Y-24328666D01*
X177331511Y-24322858D01*
X177193414Y-24284797D01*
X177066113Y-24227073D01*
X176950292Y-24150211D01*
X176846637Y-24054739D01*
X176755833Y-23941179D01*
X176689031Y-23830381D01*
X176634164Y-23713625D01*
X176592163Y-23594276D01*
X176562167Y-23468283D01*
X176543311Y-23331594D01*
X176534732Y-23180158D01*
X176534006Y-23102711D01*
X176536100Y-23045934D01*
X177365217Y-23045934D01*
X177365424Y-23139002D01*
X177368337Y-23226692D01*
X177374000Y-23303772D01*
X177382455Y-23365009D01*
X177385038Y-23377350D01*
X177416840Y-23484633D01*
X177458498Y-23571658D01*
X177510363Y-23638642D01*
X177572781Y-23685805D01*
X177646100Y-23713365D01*
X177730669Y-23721541D01*
X177826835Y-23710551D01*
X177890311Y-23694829D01*
X177939454Y-23676639D01*
X177993583Y-23650791D01*
X178034244Y-23627089D01*
X178104800Y-23580721D01*
X178104800Y-22430530D01*
X178037392Y-22386962D01*
X177958867Y-22346040D01*
X177874681Y-22319389D01*
X177789557Y-22307465D01*
X177708216Y-22310722D01*
X177635380Y-22329615D01*
X177603426Y-22345184D01*
X177545501Y-22388181D01*
X177496544Y-22444953D01*
X177455390Y-22517575D01*
X177420874Y-22608121D01*
X177391833Y-22718666D01*
X177390552Y-22724533D01*
X177380381Y-22786788D01*
X177372739Y-22864594D01*
X177367670Y-22952720D01*
X177365217Y-23045934D01*
X176536100Y-23045934D01*
X176541857Y-22889895D01*
X176563802Y-22694059D01*
X176599786Y-22515332D01*
X176649759Y-22353845D01*
X176713668Y-22209726D01*
X176791462Y-22083106D01*
X176883089Y-21974115D01*
X176988497Y-21882883D01*
X177033662Y-21851932D01*
X177134611Y-21795785D01*
X177237901Y-21756174D01*
X177347989Y-21732014D01*
X177469330Y-21722219D01*
X177561836Y-21723265D01*
X177691490Y-21734231D01*
X177804084Y-21756046D01*
X177902875Y-21789714D01*
X177991121Y-21836236D01*
X178039986Y-21870448D01*
X178069353Y-21892362D01*
X178091043Y-21907333D01*
X178099253Y-21911733D01*
X178100868Y-21900904D01*
X178102159Y-21870251D01*
X178103138Y-21822526D01*
X178103817Y-21760479D01*
X178104210Y-21686862D01*
X178104330Y-21604427D01*
X178104188Y-21515925D01*
X178103797Y-21424107D01*
X178103171Y-21331724D01*
X178102320Y-21241528D01*
X178101260Y-21156271D01*
X178100001Y-21078703D01*
X178098556Y-21011576D01*
X178096938Y-20957641D01*
X178095161Y-20919650D01*
X178094669Y-20912667D01*
X178087092Y-20842251D01*
X178075531Y-20787102D01*
X178057792Y-20739981D01*
X178031682Y-20693647D01*
X178025415Y-20684067D01*
X178000983Y-20647378D01*
X178906311Y-20647378D01*
X178906507Y-22332245D01*
G36*
X175393574Y-21726552D02*
G01*
X175545492Y-21746567D01*
X175680756Y-21780202D01*
X175800239Y-21827725D01*
X175904815Y-21889405D01*
X175982424Y-21952965D01*
X176051265Y-22027099D01*
X176105006Y-22106871D01*
X176147910Y-22199091D01*
X176163384Y-22242161D01*
X176176244Y-22281142D01*
X176187446Y-22317289D01*
X176197120Y-22352434D01*
X176205396Y-22388410D01*
X176212403Y-22427050D01*
X176218272Y-22470185D01*
X176223131Y-22519649D01*
X176227110Y-22577273D01*
X176230340Y-22644891D01*
X176232949Y-22724334D01*
X176235067Y-22817436D01*
X176236824Y-22926027D01*
X176238349Y-23051942D01*
X176239772Y-23197012D01*
X176241025Y-23339778D01*
X176242351Y-23495968D01*
X176243556Y-23631239D01*
X176244766Y-23747246D01*
X176246106Y-23845645D01*
X176247700Y-23928093D01*
X176249675Y-23996246D01*
X176252156Y-24051760D01*
X176255269Y-24096292D01*
X176259138Y-24131498D01*
X176263889Y-24159034D01*
X176269648Y-24180556D01*
X176276539Y-24197722D01*
X176284689Y-24212186D01*
X176294223Y-24225606D01*
X176305266Y-24239638D01*
X176309566Y-24245071D01*
X176325386Y-24267910D01*
X176332422Y-24283463D01*
X176332444Y-24283922D01*
X176321567Y-24286121D01*
X176290582Y-24288147D01*
X176241957Y-24289942D01*
X176178163Y-24291451D01*
X176101669Y-24292616D01*
X176014944Y-24293380D01*
X175920457Y-24293686D01*
X175909550Y-24293689D01*
X175486657Y-24293689D01*
X175483395Y-24197622D01*
X175480133Y-24101556D01*
X175418044Y-24152543D01*
X175320714Y-24220057D01*
X175210813Y-24274749D01*
X175124349Y-24304978D01*
X175055278Y-24319666D01*
X174971925Y-24329659D01*
X174882159Y-24334646D01*
X174793845Y-24334313D01*
X174714851Y-24328351D01*
X174678622Y-24322638D01*
X174538603Y-24284776D01*
X174412178Y-24229932D01*
X174300260Y-24158924D01*
X174203762Y-24072568D01*
X174123600Y-23971679D01*
X174060687Y-23857076D01*
X174016312Y-23730984D01*
X174003978Y-23674401D01*
X173996368Y-23612202D01*
X173992739Y-23537363D01*
X173992245Y-23503467D01*
X173992310Y-23500282D01*
X174752248Y-23500282D01*
X174761541Y-23575333D01*
X174789728Y-23639160D01*
X174838197Y-23694798D01*
X174843254Y-23699211D01*
X174891548Y-23734037D01*
X174943257Y-23756620D01*
X175003989Y-23768540D01*
X175079352Y-23771383D01*
X175097459Y-23770978D01*
X175151278Y-23768325D01*
X175191308Y-23762909D01*
X175226324Y-23752745D01*
X175265103Y-23735850D01*
X175275745Y-23730672D01*
X175336396Y-23694844D01*
X175383215Y-23652212D01*
X175395952Y-23636973D01*
X175440622Y-23580462D01*
X175440622Y-23384586D01*
X175440086Y-23305939D01*
X175438396Y-23247988D01*
X175435428Y-23208875D01*
X175431057Y-23186741D01*
X175426972Y-23180274D01*
X175411047Y-23177111D01*
X175377264Y-23174488D01*
X175330340Y-23172655D01*
X175274993Y-23171857D01*
X175266106Y-23171842D01*
X175145330Y-23177096D01*
X175042660Y-23193263D01*
X174956106Y-23220961D01*
X174883681Y-23260808D01*
X174828751Y-23307758D01*
X174784204Y-23365645D01*
X174759480Y-23428693D01*
X174752248Y-23500282D01*
X173992310Y-23500282D01*
X173994178Y-23409712D01*
X174002522Y-23330812D01*
X174018768Y-23259590D01*
X174044405Y-23188864D01*
X174068401Y-23136493D01*
X174127020Y-23041196D01*
X174205117Y-22953170D01*
X174300315Y-22874017D01*
X174410238Y-22805340D01*
X174532510Y-22748741D01*
X174664755Y-22705821D01*
X174729422Y-22690882D01*
X174865604Y-22668777D01*
X175014049Y-22654194D01*
X175165505Y-22647813D01*
X175292064Y-22649445D01*
X175453950Y-22656224D01*
X175446530Y-22597245D01*
X175427238Y-22498092D01*
X175396104Y-22417372D01*
X175352269Y-22354466D01*
X175294871Y-22308756D01*
X175223048Y-22279622D01*
X175135941Y-22266447D01*
X175032686Y-22268611D01*
X174994711Y-22272612D01*
X174853520Y-22297780D01*
X174716707Y-22338814D01*
X174622178Y-22376815D01*
X174577018Y-22396190D01*
X174538585Y-22411760D01*
X174512234Y-22421405D01*
X174504546Y-22423452D01*
X174494802Y-22414374D01*
X174478083Y-22385405D01*
X174454232Y-22336217D01*
X174423093Y-22266484D01*
X174384507Y-22175879D01*
X174377910Y-22160089D01*
X174347853Y-22087772D01*
X174320874Y-22022425D01*
X174298136Y-21966906D01*
X174280806Y-21924072D01*
X174270048Y-21896781D01*
X174266941Y-21887942D01*
X174276940Y-21883187D01*
X174303217Y-21877910D01*
X174331489Y-21874231D01*
X174361646Y-21869474D01*
X174409433Y-21860028D01*
X174470612Y-21846820D01*
X174540946Y-21830776D01*
X174616194Y-21812820D01*
X174644755Y-21805797D01*
X174749816Y-21780209D01*
X174837480Y-21760147D01*
X174912068Y-21744969D01*
X174977903Y-21734035D01*
X175039307Y-21726704D01*
X175100602Y-21722335D01*
X175166110Y-21720287D01*
X175224128Y-21719889D01*
X175393574Y-21726552D01*
X175393574Y-21726552D01*
G37*
X175393574Y-21726552D02*
X175545492Y-21746567D01*
X175680756Y-21780202D01*
X175800239Y-21827725D01*
X175904815Y-21889405D01*
X175982424Y-21952965D01*
X176051265Y-22027099D01*
X176105006Y-22106871D01*
X176147910Y-22199091D01*
X176163384Y-22242161D01*
X176176244Y-22281142D01*
X176187446Y-22317289D01*
X176197120Y-22352434D01*
X176205396Y-22388410D01*
X176212403Y-22427050D01*
X176218272Y-22470185D01*
X176223131Y-22519649D01*
X176227110Y-22577273D01*
X176230340Y-22644891D01*
X176232949Y-22724334D01*
X176235067Y-22817436D01*
X176236824Y-22926027D01*
X176238349Y-23051942D01*
X176239772Y-23197012D01*
X176241025Y-23339778D01*
X176242351Y-23495968D01*
X176243556Y-23631239D01*
X176244766Y-23747246D01*
X176246106Y-23845645D01*
X176247700Y-23928093D01*
X176249675Y-23996246D01*
X176252156Y-24051760D01*
X176255269Y-24096292D01*
X176259138Y-24131498D01*
X176263889Y-24159034D01*
X176269648Y-24180556D01*
X176276539Y-24197722D01*
X176284689Y-24212186D01*
X176294223Y-24225606D01*
X176305266Y-24239638D01*
X176309566Y-24245071D01*
X176325386Y-24267910D01*
X176332422Y-24283463D01*
X176332444Y-24283922D01*
X176321567Y-24286121D01*
X176290582Y-24288147D01*
X176241957Y-24289942D01*
X176178163Y-24291451D01*
X176101669Y-24292616D01*
X176014944Y-24293380D01*
X175920457Y-24293686D01*
X175909550Y-24293689D01*
X175486657Y-24293689D01*
X175483395Y-24197622D01*
X175480133Y-24101556D01*
X175418044Y-24152543D01*
X175320714Y-24220057D01*
X175210813Y-24274749D01*
X175124349Y-24304978D01*
X175055278Y-24319666D01*
X174971925Y-24329659D01*
X174882159Y-24334646D01*
X174793845Y-24334313D01*
X174714851Y-24328351D01*
X174678622Y-24322638D01*
X174538603Y-24284776D01*
X174412178Y-24229932D01*
X174300260Y-24158924D01*
X174203762Y-24072568D01*
X174123600Y-23971679D01*
X174060687Y-23857076D01*
X174016312Y-23730984D01*
X174003978Y-23674401D01*
X173996368Y-23612202D01*
X173992739Y-23537363D01*
X173992245Y-23503467D01*
X173992310Y-23500282D01*
X174752248Y-23500282D01*
X174761541Y-23575333D01*
X174789728Y-23639160D01*
X174838197Y-23694798D01*
X174843254Y-23699211D01*
X174891548Y-23734037D01*
X174943257Y-23756620D01*
X175003989Y-23768540D01*
X175079352Y-23771383D01*
X175097459Y-23770978D01*
X175151278Y-23768325D01*
X175191308Y-23762909D01*
X175226324Y-23752745D01*
X175265103Y-23735850D01*
X175275745Y-23730672D01*
X175336396Y-23694844D01*
X175383215Y-23652212D01*
X175395952Y-23636973D01*
X175440622Y-23580462D01*
X175440622Y-23384586D01*
X175440086Y-23305939D01*
X175438396Y-23247988D01*
X175435428Y-23208875D01*
X175431057Y-23186741D01*
X175426972Y-23180274D01*
X175411047Y-23177111D01*
X175377264Y-23174488D01*
X175330340Y-23172655D01*
X175274993Y-23171857D01*
X175266106Y-23171842D01*
X175145330Y-23177096D01*
X175042660Y-23193263D01*
X174956106Y-23220961D01*
X174883681Y-23260808D01*
X174828751Y-23307758D01*
X174784204Y-23365645D01*
X174759480Y-23428693D01*
X174752248Y-23500282D01*
X173992310Y-23500282D01*
X173994178Y-23409712D01*
X174002522Y-23330812D01*
X174018768Y-23259590D01*
X174044405Y-23188864D01*
X174068401Y-23136493D01*
X174127020Y-23041196D01*
X174205117Y-22953170D01*
X174300315Y-22874017D01*
X174410238Y-22805340D01*
X174532510Y-22748741D01*
X174664755Y-22705821D01*
X174729422Y-22690882D01*
X174865604Y-22668777D01*
X175014049Y-22654194D01*
X175165505Y-22647813D01*
X175292064Y-22649445D01*
X175453950Y-22656224D01*
X175446530Y-22597245D01*
X175427238Y-22498092D01*
X175396104Y-22417372D01*
X175352269Y-22354466D01*
X175294871Y-22308756D01*
X175223048Y-22279622D01*
X175135941Y-22266447D01*
X175032686Y-22268611D01*
X174994711Y-22272612D01*
X174853520Y-22297780D01*
X174716707Y-22338814D01*
X174622178Y-22376815D01*
X174577018Y-22396190D01*
X174538585Y-22411760D01*
X174512234Y-22421405D01*
X174504546Y-22423452D01*
X174494802Y-22414374D01*
X174478083Y-22385405D01*
X174454232Y-22336217D01*
X174423093Y-22266484D01*
X174384507Y-22175879D01*
X174377910Y-22160089D01*
X174347853Y-22087772D01*
X174320874Y-22022425D01*
X174298136Y-21966906D01*
X174280806Y-21924072D01*
X174270048Y-21896781D01*
X174266941Y-21887942D01*
X174276940Y-21883187D01*
X174303217Y-21877910D01*
X174331489Y-21874231D01*
X174361646Y-21869474D01*
X174409433Y-21860028D01*
X174470612Y-21846820D01*
X174540946Y-21830776D01*
X174616194Y-21812820D01*
X174644755Y-21805797D01*
X174749816Y-21780209D01*
X174837480Y-21760147D01*
X174912068Y-21744969D01*
X174977903Y-21734035D01*
X175039307Y-21726704D01*
X175100602Y-21722335D01*
X175166110Y-21720287D01*
X175224128Y-21719889D01*
X175393574Y-21726552D01*
G36*
X173048429Y-20809071D02*
G01*
X173208570Y-20830245D01*
X173372510Y-20870385D01*
X173542313Y-20929889D01*
X173720043Y-21009154D01*
X173731310Y-21014699D01*
X173789005Y-21042725D01*
X173840552Y-21066802D01*
X173882191Y-21085249D01*
X173910162Y-21096386D01*
X173919733Y-21098933D01*
X173938950Y-21103941D01*
X173943561Y-21108147D01*
X173938458Y-21118580D01*
X173922418Y-21144868D01*
X173897288Y-21184257D01*
X173864914Y-21233991D01*
X173827143Y-21291315D01*
X173785822Y-21353476D01*
X173742798Y-21417718D01*
X173699917Y-21481285D01*
X173659026Y-21541425D01*
X173621971Y-21595380D01*
X173590600Y-21640397D01*
X173566759Y-21673721D01*
X173552294Y-21692597D01*
X173550309Y-21694787D01*
X173540191Y-21690138D01*
X173517850Y-21672962D01*
X173487280Y-21646440D01*
X173471536Y-21631964D01*
X173375047Y-21556682D01*
X173268336Y-21501241D01*
X173152832Y-21466141D01*
X173029962Y-21451880D01*
X172960561Y-21453051D01*
X172839423Y-21470212D01*
X172730205Y-21506094D01*
X172632582Y-21560959D01*
X172546228Y-21635070D01*
X172470815Y-21728688D01*
X172406018Y-21842076D01*
X172368601Y-21928667D01*
X172324748Y-22064366D01*
X172292428Y-22211850D01*
X172271557Y-22367314D01*
X172262051Y-22526956D01*
X172263827Y-22686973D01*
X172276803Y-22843561D01*
X172300894Y-22992918D01*
X172336018Y-23131240D01*
X172382092Y-23254724D01*
X172398373Y-23288978D01*
X172466620Y-23403064D01*
X172547079Y-23499557D01*
X172638570Y-23577670D01*
X172739911Y-23636617D01*
X172849920Y-23675612D01*
X172967415Y-23693868D01*
X173008883Y-23695211D01*
X173130441Y-23684290D01*
X173250878Y-23651474D01*
X173368666Y-23597439D01*
X173482277Y-23522865D01*
X173573685Y-23444539D01*
X173620215Y-23400008D01*
X173801483Y-23697271D01*
X173846580Y-23771433D01*
X173887819Y-23839646D01*
X173923735Y-23899459D01*
X173952866Y-23948420D01*
X173973750Y-23984079D01*
X173984924Y-24003984D01*
X173986375Y-24007079D01*
X173978146Y-24016718D01*
X173952567Y-24033999D01*
X173912873Y-24057283D01*
X173862297Y-24084934D01*
X173804074Y-24115315D01*
X173741437Y-24146790D01*
X173677621Y-24177722D01*
X173615860Y-24206473D01*
X173559388Y-24231408D01*
X173511438Y-24250889D01*
X173487986Y-24259318D01*
X173354221Y-24297133D01*
X173216327Y-24322136D01*
X173068622Y-24335140D01*
X172941833Y-24337468D01*
X172873878Y-24336373D01*
X172808277Y-24334275D01*
X172750847Y-24331434D01*
X172707403Y-24328106D01*
X172693298Y-24326422D01*
X172554284Y-24297587D01*
X172412757Y-24252468D01*
X172275275Y-24193750D01*
X172148394Y-24124120D01*
X172070889Y-24071441D01*
X171943481Y-23963239D01*
X171825178Y-23836671D01*
X171718172Y-23694866D01*
X171624652Y-23540951D01*
X171546810Y-23378053D01*
X171502956Y-23260756D01*
X171452708Y-23077128D01*
X171419209Y-22882581D01*
X171402449Y-22681325D01*
X171402416Y-22477568D01*
X171419101Y-22275521D01*
X171452493Y-22079392D01*
X171502580Y-21893391D01*
X171506397Y-21881803D01*
X171569281Y-21719750D01*
X171646028Y-21571832D01*
X171739242Y-21433865D01*
X171851527Y-21301661D01*
X171895392Y-21256399D01*
X172031534Y-21132457D01*
X172171491Y-21029915D01*
X172317411Y-20947656D01*
X172471442Y-20884564D01*
X172635732Y-20839523D01*
X172731289Y-20822033D01*
X172890023Y-20806466D01*
X173048429Y-20809071D01*
X173048429Y-20809071D01*
G37*
X173048429Y-20809071D02*
X173208570Y-20830245D01*
X173372510Y-20870385D01*
X173542313Y-20929889D01*
X173720043Y-21009154D01*
X173731310Y-21014699D01*
X173789005Y-21042725D01*
X173840552Y-21066802D01*
X173882191Y-21085249D01*
X173910162Y-21096386D01*
X173919733Y-21098933D01*
X173938950Y-21103941D01*
X173943561Y-21108147D01*
X173938458Y-21118580D01*
X173922418Y-21144868D01*
X173897288Y-21184257D01*
X173864914Y-21233991D01*
X173827143Y-21291315D01*
X173785822Y-21353476D01*
X173742798Y-21417718D01*
X173699917Y-21481285D01*
X173659026Y-21541425D01*
X173621971Y-21595380D01*
X173590600Y-21640397D01*
X173566759Y-21673721D01*
X173552294Y-21692597D01*
X173550309Y-21694787D01*
X173540191Y-21690138D01*
X173517850Y-21672962D01*
X173487280Y-21646440D01*
X173471536Y-21631964D01*
X173375047Y-21556682D01*
X173268336Y-21501241D01*
X173152832Y-21466141D01*
X173029962Y-21451880D01*
X172960561Y-21453051D01*
X172839423Y-21470212D01*
X172730205Y-21506094D01*
X172632582Y-21560959D01*
X172546228Y-21635070D01*
X172470815Y-21728688D01*
X172406018Y-21842076D01*
X172368601Y-21928667D01*
X172324748Y-22064366D01*
X172292428Y-22211850D01*
X172271557Y-22367314D01*
X172262051Y-22526956D01*
X172263827Y-22686973D01*
X172276803Y-22843561D01*
X172300894Y-22992918D01*
X172336018Y-23131240D01*
X172382092Y-23254724D01*
X172398373Y-23288978D01*
X172466620Y-23403064D01*
X172547079Y-23499557D01*
X172638570Y-23577670D01*
X172739911Y-23636617D01*
X172849920Y-23675612D01*
X172967415Y-23693868D01*
X173008883Y-23695211D01*
X173130441Y-23684290D01*
X173250878Y-23651474D01*
X173368666Y-23597439D01*
X173482277Y-23522865D01*
X173573685Y-23444539D01*
X173620215Y-23400008D01*
X173801483Y-23697271D01*
X173846580Y-23771433D01*
X173887819Y-23839646D01*
X173923735Y-23899459D01*
X173952866Y-23948420D01*
X173973750Y-23984079D01*
X173984924Y-24003984D01*
X173986375Y-24007079D01*
X173978146Y-24016718D01*
X173952567Y-24033999D01*
X173912873Y-24057283D01*
X173862297Y-24084934D01*
X173804074Y-24115315D01*
X173741437Y-24146790D01*
X173677621Y-24177722D01*
X173615860Y-24206473D01*
X173559388Y-24231408D01*
X173511438Y-24250889D01*
X173487986Y-24259318D01*
X173354221Y-24297133D01*
X173216327Y-24322136D01*
X173068622Y-24335140D01*
X172941833Y-24337468D01*
X172873878Y-24336373D01*
X172808277Y-24334275D01*
X172750847Y-24331434D01*
X172707403Y-24328106D01*
X172693298Y-24326422D01*
X172554284Y-24297587D01*
X172412757Y-24252468D01*
X172275275Y-24193750D01*
X172148394Y-24124120D01*
X172070889Y-24071441D01*
X171943481Y-23963239D01*
X171825178Y-23836671D01*
X171718172Y-23694866D01*
X171624652Y-23540951D01*
X171546810Y-23378053D01*
X171502956Y-23260756D01*
X171452708Y-23077128D01*
X171419209Y-22882581D01*
X171402449Y-22681325D01*
X171402416Y-22477568D01*
X171419101Y-22275521D01*
X171452493Y-22079392D01*
X171502580Y-21893391D01*
X171506397Y-21881803D01*
X171569281Y-21719750D01*
X171646028Y-21571832D01*
X171739242Y-21433865D01*
X171851527Y-21301661D01*
X171895392Y-21256399D01*
X172031534Y-21132457D01*
X172171491Y-21029915D01*
X172317411Y-20947656D01*
X172471442Y-20884564D01*
X172635732Y-20839523D01*
X172731289Y-20822033D01*
X172890023Y-20806466D01*
X173048429Y-20809071D01*
G36*
X169773600Y-20349054D02*
G01*
X169784465Y-20462993D01*
X169816082Y-20570616D01*
X169866985Y-20669615D01*
X169935707Y-20757684D01*
X170020781Y-20832516D01*
X170117768Y-20890384D01*
X170224036Y-20930005D01*
X170331050Y-20948573D01*
X170436700Y-20947434D01*
X170538875Y-20927930D01*
X170635466Y-20891406D01*
X170724362Y-20839205D01*
X170803454Y-20772673D01*
X170870631Y-20693152D01*
X170923783Y-20601987D01*
X170960801Y-20500523D01*
X170979573Y-20390102D01*
X170981511Y-20340206D01*
X170981511Y-20252267D01*
X171033440Y-20252267D01*
X171069747Y-20255111D01*
X171096645Y-20266911D01*
X171123751Y-20290649D01*
X171162133Y-20329031D01*
X171162133Y-22520602D01*
X171162124Y-22782739D01*
X171162092Y-23023241D01*
X171162028Y-23243048D01*
X171161924Y-23443101D01*
X171161773Y-23624344D01*
X171161566Y-23787716D01*
X171161294Y-23934160D01*
X171160950Y-24064617D01*
X171160526Y-24180029D01*
X171160013Y-24281338D01*
X171159403Y-24369484D01*
X171158688Y-24445410D01*
X171157860Y-24510057D01*
X171156911Y-24564367D01*
X171155833Y-24609280D01*
X171154617Y-24645740D01*
X171153255Y-24674687D01*
X171151739Y-24697063D01*
X171150062Y-24713809D01*
X171148214Y-24725868D01*
X171146187Y-24734180D01*
X171143975Y-24739687D01*
X171142892Y-24741537D01*
X171138729Y-24748549D01*
X171135195Y-24754996D01*
X171131365Y-24760900D01*
X171126318Y-24766286D01*
X171119129Y-24771178D01*
X171108877Y-24775598D01*
X171094636Y-24779572D01*
X171075486Y-24783121D01*
X171050501Y-24786270D01*
X171018760Y-24789042D01*
X170979338Y-24791461D01*
X170931314Y-24793551D01*
X170873763Y-24795335D01*
X170805763Y-24796837D01*
X170726390Y-24798080D01*
X170634721Y-24799089D01*
X170529834Y-24799885D01*
X170410804Y-24800494D01*
X170276710Y-24800939D01*
X170126627Y-24801243D01*
X169959633Y-24801430D01*
X169774804Y-24801524D01*
X169571217Y-24801548D01*
X169347950Y-24801525D01*
X169104078Y-24801480D01*
X168838679Y-24801437D01*
X168800296Y-24801432D01*
X168533318Y-24801389D01*
X168287998Y-24801318D01*
X168063417Y-24801213D01*
X167858655Y-24801066D01*
X167672794Y-24800869D01*
X167504912Y-24800616D01*
X167354092Y-24800300D01*
X167219413Y-24799913D01*
X167099956Y-24799447D01*
X166994801Y-24798897D01*
X166903029Y-24798253D01*
X166823721Y-24797511D01*
X166755957Y-24796661D01*
X166698818Y-24795697D01*
X166651383Y-24794611D01*
X166612734Y-24793397D01*
X166581951Y-24792047D01*
X166558115Y-24790555D01*
X166540306Y-24788911D01*
X166527605Y-24787111D01*
X166519092Y-24785145D01*
X166514734Y-24783477D01*
X166506272Y-24779906D01*
X166498503Y-24777270D01*
X166491398Y-24774634D01*
X166484927Y-24771062D01*
X166479061Y-24765621D01*
X166473771Y-24757375D01*
X166469026Y-24745390D01*
X166464798Y-24728731D01*
X166461057Y-24706463D01*
X166457773Y-24677652D01*
X166454917Y-24641363D01*
X166452460Y-24596661D01*
X166450371Y-24542611D01*
X166448622Y-24478279D01*
X166447183Y-24402730D01*
X166446024Y-24315030D01*
X166445117Y-24214243D01*
X166444431Y-24099434D01*
X166443937Y-23969670D01*
X166443605Y-23824015D01*
X166443407Y-23661535D01*
X166443313Y-23481295D01*
X166443292Y-23282360D01*
X166443315Y-23063796D01*
X166443354Y-22824668D01*
X166443378Y-22564040D01*
X166443378Y-22521889D01*
X166443364Y-22258992D01*
X166443339Y-22017732D01*
X166443329Y-21797165D01*
X166443358Y-21596352D01*
X166443452Y-21414349D01*
X166443638Y-21250216D01*
X166443941Y-21103011D01*
X166444386Y-20971792D01*
X166444966Y-20861867D01*
X166747803Y-20861867D01*
X166787593Y-20919711D01*
X166798764Y-20935479D01*
X166808834Y-20949441D01*
X166817862Y-20962784D01*
X166825903Y-20976693D01*
X166833014Y-20992356D01*
X166839253Y-21010958D01*
X166844675Y-21033686D01*
X166849338Y-21061727D01*
X166853299Y-21096267D01*
X166856615Y-21138492D01*
X166859341Y-21189589D01*
X166861536Y-21250744D01*
X166863255Y-21323144D01*
X166864556Y-21407975D01*
X166865495Y-21506422D01*
X166866130Y-21619674D01*
X166866516Y-21748916D01*
X166866712Y-21895334D01*
X166866773Y-22060116D01*
X166866757Y-22244447D01*
X166866720Y-22449513D01*
X166866711Y-22572133D01*
X166866735Y-22789082D01*
X166866769Y-22984642D01*
X166866757Y-23159999D01*
X166866642Y-23316341D01*
X166866370Y-23454857D01*
X166865882Y-23576734D01*
X166865124Y-23683160D01*
X166864038Y-23775322D01*
X166862569Y-23854409D01*
X166860660Y-23921608D01*
X166858256Y-23978107D01*
X166855299Y-24025093D01*
X166851734Y-24063755D01*
X166847505Y-24095280D01*
X166842554Y-24120855D01*
X166836827Y-24141670D01*
X166830267Y-24158911D01*
X166822817Y-24173765D01*
X166814421Y-24187422D01*
X166805024Y-24201069D01*
X166794568Y-24215893D01*
X166788477Y-24224783D01*
X166749704Y-24282400D01*
X167281268Y-24282400D01*
X167404517Y-24282365D01*
X167507013Y-24282215D01*
X167590580Y-24281878D01*
X167657044Y-24281286D01*
X167708229Y-24280367D01*
X167745959Y-24279051D01*
X167772060Y-24277269D01*
X167788356Y-24274951D01*
X167796672Y-24272026D01*
X167798832Y-24268424D01*
X167796661Y-24264075D01*
X167795465Y-24262645D01*
X167770315Y-24225573D01*
X167744417Y-24172772D01*
X167720808Y-24110770D01*
X167712539Y-24084357D01*
X167707922Y-24066416D01*
X167704021Y-24045355D01*
X167700752Y-24019089D01*
X167698034Y-23985532D01*
X167695785Y-23942599D01*
X167693923Y-23888204D01*
X167692364Y-23820262D01*
X167691028Y-23736688D01*
X167689831Y-23635395D01*
X167688692Y-23514300D01*
X167688315Y-23469600D01*
X167687298Y-23344449D01*
X167686540Y-23240082D01*
X167686097Y-23154707D01*
X167686030Y-23086533D01*
X167686395Y-23033765D01*
X167687252Y-22994614D01*
X167688659Y-22967285D01*
X167690675Y-22949986D01*
X167693357Y-22940926D01*
X167696764Y-22938312D01*
X167700956Y-22940351D01*
X167705429Y-22944667D01*
X167715784Y-22957602D01*
X167737842Y-22986676D01*
X167770043Y-23029759D01*
X167810826Y-23084718D01*
X167858630Y-23149423D01*
X167911895Y-23221742D01*
X167969060Y-23299544D01*
X168028563Y-23380698D01*
X168088845Y-23463072D01*
X168148345Y-23544536D01*
X168205502Y-23622957D01*
X168258755Y-23696204D01*
X168306543Y-23762147D01*
X168347307Y-23818654D01*
X168379484Y-23863593D01*
X168401515Y-23894834D01*
X168406083Y-23901466D01*
X168429004Y-23938369D01*
X168455812Y-23986359D01*
X168481211Y-24035897D01*
X168484432Y-24042577D01*
X168506110Y-24090772D01*
X168518696Y-24128334D01*
X168524426Y-24164160D01*
X168525544Y-24206200D01*
X168524910Y-24282400D01*
X169679349Y-24282400D01*
X169588185Y-24188669D01*
X169541388Y-24138775D01*
X169491101Y-24082295D01*
X169445056Y-24028026D01*
X169424631Y-24002673D01*
X169394193Y-23963128D01*
X169354138Y-23909916D01*
X169305639Y-23844667D01*
X169249865Y-23769011D01*
X169187989Y-23684577D01*
X169121181Y-23592994D01*
X169050613Y-23495892D01*
X168977455Y-23394901D01*
X168902879Y-23291650D01*
X168828056Y-23187768D01*
X168754157Y-23084885D01*
X168682354Y-22984631D01*
X168613816Y-22888636D01*
X168549716Y-22798527D01*
X168491225Y-22715936D01*
X168439514Y-22642492D01*
X168395753Y-22579824D01*
X168361115Y-22529561D01*
X168336770Y-22493334D01*
X168323889Y-22472771D01*
X168322131Y-22468668D01*
X168330090Y-22457342D01*
X168350885Y-22430162D01*
X168383153Y-22388829D01*
X168425530Y-22335044D01*
X168476653Y-22270506D01*
X168535159Y-22196918D01*
X168599686Y-22115978D01*
X168668869Y-22029388D01*
X168741347Y-21938848D01*
X168815754Y-21846060D01*
X168875483Y-21771702D01*
X169886489Y-21771702D01*
X169892398Y-21784659D01*
X169906728Y-21806908D01*
X169907775Y-21808391D01*
X169926562Y-21838544D01*
X169946209Y-21875375D01*
X169950108Y-21883511D01*
X169953644Y-21891940D01*
X169956770Y-21902059D01*
X169959514Y-21915260D01*
X169961908Y-21932938D01*
X169963981Y-21956484D01*
X169965765Y-21987293D01*
X169967288Y-22026757D01*
X169968581Y-22076269D01*
X169969674Y-22137223D01*
X169970597Y-22211011D01*
X169971381Y-22299028D01*
X169972055Y-22402665D01*
X169972650Y-22523316D01*
X169973195Y-22662374D01*
X169973721Y-22821232D01*
X169974255Y-23000089D01*
X169974794Y-23185207D01*
X169975228Y-23349145D01*
X169975491Y-23493303D01*
X169975516Y-23619079D01*
X169975235Y-23727871D01*
X169974581Y-23821077D01*
X169973486Y-23900097D01*
X169971882Y-23966328D01*
X169969703Y-24021170D01*
X169966881Y-24066021D01*
X169963349Y-24102278D01*
X169959039Y-24131341D01*
X169953883Y-24154609D01*
X169947815Y-24173479D01*
X169940767Y-24189351D01*
X169932671Y-24203622D01*
X169923460Y-24217691D01*
X169914960Y-24230158D01*
X169897824Y-24256452D01*
X169887678Y-24274037D01*
X169886489Y-24277257D01*
X169897396Y-24278334D01*
X169928589Y-24279335D01*
X169977777Y-24280235D01*
X170042667Y-24281010D01*
X170120970Y-24281637D01*
X170210393Y-24282091D01*
X170308644Y-24282349D01*
X170377555Y-24282400D01*
X170482548Y-24282180D01*
X170579390Y-24281548D01*
X170665893Y-24280549D01*
X170739868Y-24279227D01*
X170799126Y-24277626D01*
X170841480Y-24275791D01*
X170864740Y-24273765D01*
X170868622Y-24272493D01*
X170860924Y-24257591D01*
X170852926Y-24249560D01*
X170839754Y-24232434D01*
X170822515Y-24202183D01*
X170810593Y-24177622D01*
X170783955Y-24118711D01*
X170780880Y-22941845D01*
X170777805Y-21764978D01*
X170332147Y-21764978D01*
X170234330Y-21765142D01*
X170143936Y-21765611D01*
X170063370Y-21766347D01*
X169995038Y-21767316D01*
X169941344Y-21768480D01*
X169904695Y-21769803D01*
X169887496Y-21771249D01*
X169886489Y-21771702D01*
X168875483Y-21771702D01*
X168890730Y-21752722D01*
X168964910Y-21660537D01*
X169036931Y-21571204D01*
X169105431Y-21486424D01*
X169169045Y-21407898D01*
X169226412Y-21337326D01*
X169276167Y-21276409D01*
X169316948Y-21226847D01*
X169334112Y-21206178D01*
X169420404Y-21105516D01*
X169497003Y-21022259D01*
X169565817Y-20954438D01*
X169628752Y-20900089D01*
X169638133Y-20892722D01*
X169677644Y-20862117D01*
X168545884Y-20861867D01*
X168551173Y-20909844D01*
X168547870Y-20967188D01*
X168526339Y-21035463D01*
X168486365Y-21115212D01*
X168441057Y-21187495D01*
X168424839Y-21210140D01*
X168396786Y-21247696D01*
X168358570Y-21298021D01*
X168311863Y-21358973D01*
X168258339Y-21428411D01*
X168199669Y-21504194D01*
X168137525Y-21584180D01*
X168073579Y-21666228D01*
X168009505Y-21748196D01*
X167946973Y-21827943D01*
X167887657Y-21903327D01*
X167833229Y-21972207D01*
X167785361Y-22032442D01*
X167745725Y-22081889D01*
X167715994Y-22118408D01*
X167697839Y-22139858D01*
X167694780Y-22143156D01*
X167691921Y-22135149D01*
X167689707Y-22104855D01*
X167688143Y-22052556D01*
X167687233Y-21978531D01*
X167686980Y-21883063D01*
X167687387Y-21766434D01*
X167688296Y-21646445D01*
X167689618Y-21514333D01*
X167691143Y-21402594D01*
X167693119Y-21309025D01*
X167695794Y-21231419D01*
X167699418Y-21167574D01*
X167704239Y-21115283D01*
X167710506Y-21072344D01*
X167718468Y-21036551D01*
X167728373Y-21005700D01*
X167740469Y-20977586D01*
X167755007Y-20950005D01*
X167769689Y-20924966D01*
X167807686Y-20861867D01*
X166747803Y-20861867D01*
X166444966Y-20861867D01*
X166444999Y-20855617D01*
X166445805Y-20753544D01*
X166446830Y-20664633D01*
X166448100Y-20587941D01*
X166449640Y-20522527D01*
X166451476Y-20467449D01*
X166453633Y-20421765D01*
X166456137Y-20384534D01*
X166459013Y-20354813D01*
X166462287Y-20331662D01*
X166465985Y-20314139D01*
X166470131Y-20301301D01*
X166474753Y-20292208D01*
X166479874Y-20285918D01*
X166485522Y-20281488D01*
X166491721Y-20277978D01*
X166498496Y-20274445D01*
X166504492Y-20270876D01*
X166509725Y-20268300D01*
X166517901Y-20265972D01*
X166530114Y-20263878D01*
X166547459Y-20262007D01*
X166571031Y-20260347D01*
X166601923Y-20258884D01*
X166641232Y-20257608D01*
X166690050Y-20256504D01*
X166749473Y-20255561D01*
X166820596Y-20254767D01*
X166904512Y-20254109D01*
X167002317Y-20253575D01*
X167115106Y-20253153D01*
X167243971Y-20252829D01*
X167390009Y-20252592D01*
X167554314Y-20252430D01*
X167737980Y-20252330D01*
X167942103Y-20252280D01*
X168153247Y-20252267D01*
X169773600Y-20252267D01*
X169773600Y-20349054D01*
X169773600Y-20349054D01*
G37*
X169773600Y-20349054D02*
X169784465Y-20462993D01*
X169816082Y-20570616D01*
X169866985Y-20669615D01*
X169935707Y-20757684D01*
X170020781Y-20832516D01*
X170117768Y-20890384D01*
X170224036Y-20930005D01*
X170331050Y-20948573D01*
X170436700Y-20947434D01*
X170538875Y-20927930D01*
X170635466Y-20891406D01*
X170724362Y-20839205D01*
X170803454Y-20772673D01*
X170870631Y-20693152D01*
X170923783Y-20601987D01*
X170960801Y-20500523D01*
X170979573Y-20390102D01*
X170981511Y-20340206D01*
X170981511Y-20252267D01*
X171033440Y-20252267D01*
X171069747Y-20255111D01*
X171096645Y-20266911D01*
X171123751Y-20290649D01*
X171162133Y-20329031D01*
X171162133Y-22520602D01*
X171162124Y-22782739D01*
X171162092Y-23023241D01*
X171162028Y-23243048D01*
X171161924Y-23443101D01*
X171161773Y-23624344D01*
X171161566Y-23787716D01*
X171161294Y-23934160D01*
X171160950Y-24064617D01*
X171160526Y-24180029D01*
X171160013Y-24281338D01*
X171159403Y-24369484D01*
X171158688Y-24445410D01*
X171157860Y-24510057D01*
X171156911Y-24564367D01*
X171155833Y-24609280D01*
X171154617Y-24645740D01*
X171153255Y-24674687D01*
X171151739Y-24697063D01*
X171150062Y-24713809D01*
X171148214Y-24725868D01*
X171146187Y-24734180D01*
X171143975Y-24739687D01*
X171142892Y-24741537D01*
X171138729Y-24748549D01*
X171135195Y-24754996D01*
X171131365Y-24760900D01*
X171126318Y-24766286D01*
X171119129Y-24771178D01*
X171108877Y-24775598D01*
X171094636Y-24779572D01*
X171075486Y-24783121D01*
X171050501Y-24786270D01*
X171018760Y-24789042D01*
X170979338Y-24791461D01*
X170931314Y-24793551D01*
X170873763Y-24795335D01*
X170805763Y-24796837D01*
X170726390Y-24798080D01*
X170634721Y-24799089D01*
X170529834Y-24799885D01*
X170410804Y-24800494D01*
X170276710Y-24800939D01*
X170126627Y-24801243D01*
X169959633Y-24801430D01*
X169774804Y-24801524D01*
X169571217Y-24801548D01*
X169347950Y-24801525D01*
X169104078Y-24801480D01*
X168838679Y-24801437D01*
X168800296Y-24801432D01*
X168533318Y-24801389D01*
X168287998Y-24801318D01*
X168063417Y-24801213D01*
X167858655Y-24801066D01*
X167672794Y-24800869D01*
X167504912Y-24800616D01*
X167354092Y-24800300D01*
X167219413Y-24799913D01*
X167099956Y-24799447D01*
X166994801Y-24798897D01*
X166903029Y-24798253D01*
X166823721Y-24797511D01*
X166755957Y-24796661D01*
X166698818Y-24795697D01*
X166651383Y-24794611D01*
X166612734Y-24793397D01*
X166581951Y-24792047D01*
X166558115Y-24790555D01*
X166540306Y-24788911D01*
X166527605Y-24787111D01*
X166519092Y-24785145D01*
X166514734Y-24783477D01*
X166506272Y-24779906D01*
X166498503Y-24777270D01*
X166491398Y-24774634D01*
X166484927Y-24771062D01*
X166479061Y-24765621D01*
X166473771Y-24757375D01*
X166469026Y-24745390D01*
X166464798Y-24728731D01*
X166461057Y-24706463D01*
X166457773Y-24677652D01*
X166454917Y-24641363D01*
X166452460Y-24596661D01*
X166450371Y-24542611D01*
X166448622Y-24478279D01*
X166447183Y-24402730D01*
X166446024Y-24315030D01*
X166445117Y-24214243D01*
X166444431Y-24099434D01*
X166443937Y-23969670D01*
X166443605Y-23824015D01*
X166443407Y-23661535D01*
X166443313Y-23481295D01*
X166443292Y-23282360D01*
X166443315Y-23063796D01*
X166443354Y-22824668D01*
X166443378Y-22564040D01*
X166443378Y-22521889D01*
X166443364Y-22258992D01*
X166443339Y-22017732D01*
X166443329Y-21797165D01*
X166443358Y-21596352D01*
X166443452Y-21414349D01*
X166443638Y-21250216D01*
X166443941Y-21103011D01*
X166444386Y-20971792D01*
X166444966Y-20861867D01*
X166747803Y-20861867D01*
X166787593Y-20919711D01*
X166798764Y-20935479D01*
X166808834Y-20949441D01*
X166817862Y-20962784D01*
X166825903Y-20976693D01*
X166833014Y-20992356D01*
X166839253Y-21010958D01*
X166844675Y-21033686D01*
X166849338Y-21061727D01*
X166853299Y-21096267D01*
X166856615Y-21138492D01*
X166859341Y-21189589D01*
X166861536Y-21250744D01*
X166863255Y-21323144D01*
X166864556Y-21407975D01*
X166865495Y-21506422D01*
X166866130Y-21619674D01*
X166866516Y-21748916D01*
X166866712Y-21895334D01*
X166866773Y-22060116D01*
X166866757Y-22244447D01*
X166866720Y-22449513D01*
X166866711Y-22572133D01*
X166866735Y-22789082D01*
X166866769Y-22984642D01*
X166866757Y-23159999D01*
X166866642Y-23316341D01*
X166866370Y-23454857D01*
X166865882Y-23576734D01*
X166865124Y-23683160D01*
X166864038Y-23775322D01*
X166862569Y-23854409D01*
X166860660Y-23921608D01*
X166858256Y-23978107D01*
X166855299Y-24025093D01*
X166851734Y-24063755D01*
X166847505Y-24095280D01*
X166842554Y-24120855D01*
X166836827Y-24141670D01*
X166830267Y-24158911D01*
X166822817Y-24173765D01*
X166814421Y-24187422D01*
X166805024Y-24201069D01*
X166794568Y-24215893D01*
X166788477Y-24224783D01*
X166749704Y-24282400D01*
X167281268Y-24282400D01*
X167404517Y-24282365D01*
X167507013Y-24282215D01*
X167590580Y-24281878D01*
X167657044Y-24281286D01*
X167708229Y-24280367D01*
X167745959Y-24279051D01*
X167772060Y-24277269D01*
X167788356Y-24274951D01*
X167796672Y-24272026D01*
X167798832Y-24268424D01*
X167796661Y-24264075D01*
X167795465Y-24262645D01*
X167770315Y-24225573D01*
X167744417Y-24172772D01*
X167720808Y-24110770D01*
X167712539Y-24084357D01*
X167707922Y-24066416D01*
X167704021Y-24045355D01*
X167700752Y-24019089D01*
X167698034Y-23985532D01*
X167695785Y-23942599D01*
X167693923Y-23888204D01*
X167692364Y-23820262D01*
X167691028Y-23736688D01*
X167689831Y-23635395D01*
X167688692Y-23514300D01*
X167688315Y-23469600D01*
X167687298Y-23344449D01*
X167686540Y-23240082D01*
X167686097Y-23154707D01*
X167686030Y-23086533D01*
X167686395Y-23033765D01*
X167687252Y-22994614D01*
X167688659Y-22967285D01*
X167690675Y-22949986D01*
X167693357Y-22940926D01*
X167696764Y-22938312D01*
X167700956Y-22940351D01*
X167705429Y-22944667D01*
X167715784Y-22957602D01*
X167737842Y-22986676D01*
X167770043Y-23029759D01*
X167810826Y-23084718D01*
X167858630Y-23149423D01*
X167911895Y-23221742D01*
X167969060Y-23299544D01*
X168028563Y-23380698D01*
X168088845Y-23463072D01*
X168148345Y-23544536D01*
X168205502Y-23622957D01*
X168258755Y-23696204D01*
X168306543Y-23762147D01*
X168347307Y-23818654D01*
X168379484Y-23863593D01*
X168401515Y-23894834D01*
X168406083Y-23901466D01*
X168429004Y-23938369D01*
X168455812Y-23986359D01*
X168481211Y-24035897D01*
X168484432Y-24042577D01*
X168506110Y-24090772D01*
X168518696Y-24128334D01*
X168524426Y-24164160D01*
X168525544Y-24206200D01*
X168524910Y-24282400D01*
X169679349Y-24282400D01*
X169588185Y-24188669D01*
X169541388Y-24138775D01*
X169491101Y-24082295D01*
X169445056Y-24028026D01*
X169424631Y-24002673D01*
X169394193Y-23963128D01*
X169354138Y-23909916D01*
X169305639Y-23844667D01*
X169249865Y-23769011D01*
X169187989Y-23684577D01*
X169121181Y-23592994D01*
X169050613Y-23495892D01*
X168977455Y-23394901D01*
X168902879Y-23291650D01*
X168828056Y-23187768D01*
X168754157Y-23084885D01*
X168682354Y-22984631D01*
X168613816Y-22888636D01*
X168549716Y-22798527D01*
X168491225Y-22715936D01*
X168439514Y-22642492D01*
X168395753Y-22579824D01*
X168361115Y-22529561D01*
X168336770Y-22493334D01*
X168323889Y-22472771D01*
X168322131Y-22468668D01*
X168330090Y-22457342D01*
X168350885Y-22430162D01*
X168383153Y-22388829D01*
X168425530Y-22335044D01*
X168476653Y-22270506D01*
X168535159Y-22196918D01*
X168599686Y-22115978D01*
X168668869Y-22029388D01*
X168741347Y-21938848D01*
X168815754Y-21846060D01*
X168875483Y-21771702D01*
X169886489Y-21771702D01*
X169892398Y-21784659D01*
X169906728Y-21806908D01*
X169907775Y-21808391D01*
X169926562Y-21838544D01*
X169946209Y-21875375D01*
X169950108Y-21883511D01*
X169953644Y-21891940D01*
X169956770Y-21902059D01*
X169959514Y-21915260D01*
X169961908Y-21932938D01*
X169963981Y-21956484D01*
X169965765Y-21987293D01*
X169967288Y-22026757D01*
X169968581Y-22076269D01*
X169969674Y-22137223D01*
X169970597Y-22211011D01*
X169971381Y-22299028D01*
X169972055Y-22402665D01*
X169972650Y-22523316D01*
X169973195Y-22662374D01*
X169973721Y-22821232D01*
X169974255Y-23000089D01*
X169974794Y-23185207D01*
X169975228Y-23349145D01*
X169975491Y-23493303D01*
X169975516Y-23619079D01*
X169975235Y-23727871D01*
X169974581Y-23821077D01*
X169973486Y-23900097D01*
X169971882Y-23966328D01*
X169969703Y-24021170D01*
X169966881Y-24066021D01*
X169963349Y-24102278D01*
X169959039Y-24131341D01*
X169953883Y-24154609D01*
X169947815Y-24173479D01*
X169940767Y-24189351D01*
X169932671Y-24203622D01*
X169923460Y-24217691D01*
X169914960Y-24230158D01*
X169897824Y-24256452D01*
X169887678Y-24274037D01*
X169886489Y-24277257D01*
X169897396Y-24278334D01*
X169928589Y-24279335D01*
X169977777Y-24280235D01*
X170042667Y-24281010D01*
X170120970Y-24281637D01*
X170210393Y-24282091D01*
X170308644Y-24282349D01*
X170377555Y-24282400D01*
X170482548Y-24282180D01*
X170579390Y-24281548D01*
X170665893Y-24280549D01*
X170739868Y-24279227D01*
X170799126Y-24277626D01*
X170841480Y-24275791D01*
X170864740Y-24273765D01*
X170868622Y-24272493D01*
X170860924Y-24257591D01*
X170852926Y-24249560D01*
X170839754Y-24232434D01*
X170822515Y-24202183D01*
X170810593Y-24177622D01*
X170783955Y-24118711D01*
X170780880Y-22941845D01*
X170777805Y-21764978D01*
X170332147Y-21764978D01*
X170234330Y-21765142D01*
X170143936Y-21765611D01*
X170063370Y-21766347D01*
X169995038Y-21767316D01*
X169941344Y-21768480D01*
X169904695Y-21769803D01*
X169887496Y-21771249D01*
X169886489Y-21771702D01*
X168875483Y-21771702D01*
X168890730Y-21752722D01*
X168964910Y-21660537D01*
X169036931Y-21571204D01*
X169105431Y-21486424D01*
X169169045Y-21407898D01*
X169226412Y-21337326D01*
X169276167Y-21276409D01*
X169316948Y-21226847D01*
X169334112Y-21206178D01*
X169420404Y-21105516D01*
X169497003Y-21022259D01*
X169565817Y-20954438D01*
X169628752Y-20900089D01*
X169638133Y-20892722D01*
X169677644Y-20862117D01*
X168545884Y-20861867D01*
X168551173Y-20909844D01*
X168547870Y-20967188D01*
X168526339Y-21035463D01*
X168486365Y-21115212D01*
X168441057Y-21187495D01*
X168424839Y-21210140D01*
X168396786Y-21247696D01*
X168358570Y-21298021D01*
X168311863Y-21358973D01*
X168258339Y-21428411D01*
X168199669Y-21504194D01*
X168137525Y-21584180D01*
X168073579Y-21666228D01*
X168009505Y-21748196D01*
X167946973Y-21827943D01*
X167887657Y-21903327D01*
X167833229Y-21972207D01*
X167785361Y-22032442D01*
X167745725Y-22081889D01*
X167715994Y-22118408D01*
X167697839Y-22139858D01*
X167694780Y-22143156D01*
X167691921Y-22135149D01*
X167689707Y-22104855D01*
X167688143Y-22052556D01*
X167687233Y-21978531D01*
X167686980Y-21883063D01*
X167687387Y-21766434D01*
X167688296Y-21646445D01*
X167689618Y-21514333D01*
X167691143Y-21402594D01*
X167693119Y-21309025D01*
X167695794Y-21231419D01*
X167699418Y-21167574D01*
X167704239Y-21115283D01*
X167710506Y-21072344D01*
X167718468Y-21036551D01*
X167728373Y-21005700D01*
X167740469Y-20977586D01*
X167755007Y-20950005D01*
X167769689Y-20924966D01*
X167807686Y-20861867D01*
X166747803Y-20861867D01*
X166444966Y-20861867D01*
X166444999Y-20855617D01*
X166445805Y-20753544D01*
X166446830Y-20664633D01*
X166448100Y-20587941D01*
X166449640Y-20522527D01*
X166451476Y-20467449D01*
X166453633Y-20421765D01*
X166456137Y-20384534D01*
X166459013Y-20354813D01*
X166462287Y-20331662D01*
X166465985Y-20314139D01*
X166470131Y-20301301D01*
X166474753Y-20292208D01*
X166479874Y-20285918D01*
X166485522Y-20281488D01*
X166491721Y-20277978D01*
X166498496Y-20274445D01*
X166504492Y-20270876D01*
X166509725Y-20268300D01*
X166517901Y-20265972D01*
X166530114Y-20263878D01*
X166547459Y-20262007D01*
X166571031Y-20260347D01*
X166601923Y-20258884D01*
X166641232Y-20257608D01*
X166690050Y-20256504D01*
X166749473Y-20255561D01*
X166820596Y-20254767D01*
X166904512Y-20254109D01*
X167002317Y-20253575D01*
X167115106Y-20253153D01*
X167243971Y-20252829D01*
X167390009Y-20252592D01*
X167554314Y-20252430D01*
X167737980Y-20252330D01*
X167942103Y-20252280D01*
X168153247Y-20252267D01*
X169773600Y-20252267D01*
X169773600Y-20349054D01*
D11*
X142255000Y-41135000D02*
G75*
G03X147305000Y-41135000I2525000J0D01*
G01*
X142255000Y-34885000D02*
G75*
G02X147305000Y-34885000I2525000J0D01*
G01*
X142255000Y-34885000D02*
X142255000Y-41135000D01*
X147305000Y-34885000D02*
X147305000Y-41135000D01*
X176470000Y-31690000D02*
X177800000Y-31690000D01*
X176470000Y-33020000D02*
X176470000Y-31690000D01*
X176470000Y-34290000D02*
X179130000Y-34290000D01*
X179130000Y-34290000D02*
X179130000Y-36890000D01*
X176470000Y-34290000D02*
X176470000Y-36890000D01*
X176470000Y-36890000D02*
X179130000Y-36890000D01*
X179130000Y-64830000D02*
X177800000Y-64830000D01*
X179130000Y-63500000D02*
X179130000Y-64830000D01*
X179130000Y-62230000D02*
X176470000Y-62230000D01*
X176470000Y-62230000D02*
X176470000Y-46930000D01*
X179130000Y-62230000D02*
X179130000Y-46930000D01*
X179130000Y-46930000D02*
X176470000Y-46930000D01*
X163375000Y-49564775D02*
X163875000Y-49564775D01*
X163625000Y-49814775D02*
X163625000Y-49314775D01*
X164816000Y-44409000D02*
X165384000Y-44409000D01*
X164582000Y-44449000D02*
X165618000Y-44449000D01*
X164423000Y-44489000D02*
X165777000Y-44489000D01*
X164295000Y-44529000D02*
X165905000Y-44529000D01*
X164185000Y-44569000D02*
X166015000Y-44569000D01*
X164089000Y-44609000D02*
X166111000Y-44609000D01*
X164002000Y-44649000D02*
X166198000Y-44649000D01*
X163922000Y-44689000D02*
X166278000Y-44689000D01*
X166140000Y-44729000D02*
X166351000Y-44729000D01*
X163849000Y-44729000D02*
X164060000Y-44729000D01*
X166140000Y-44769000D02*
X166419000Y-44769000D01*
X163781000Y-44769000D02*
X164060000Y-44769000D01*
X166140000Y-44809000D02*
X166483000Y-44809000D01*
X163717000Y-44809000D02*
X164060000Y-44809000D01*
X166140000Y-44849000D02*
X166543000Y-44849000D01*
X163657000Y-44849000D02*
X164060000Y-44849000D01*
X166140000Y-44889000D02*
X166600000Y-44889000D01*
X163600000Y-44889000D02*
X164060000Y-44889000D01*
X166140000Y-44929000D02*
X166654000Y-44929000D01*
X163546000Y-44929000D02*
X164060000Y-44929000D01*
X166140000Y-44969000D02*
X166705000Y-44969000D01*
X163495000Y-44969000D02*
X164060000Y-44969000D01*
X166140000Y-45009000D02*
X166753000Y-45009000D01*
X163447000Y-45009000D02*
X164060000Y-45009000D01*
X166140000Y-45049000D02*
X166799000Y-45049000D01*
X163401000Y-45049000D02*
X164060000Y-45049000D01*
X166140000Y-45089000D02*
X166843000Y-45089000D01*
X163357000Y-45089000D02*
X164060000Y-45089000D01*
X166140000Y-45129000D02*
X166885000Y-45129000D01*
X163315000Y-45129000D02*
X164060000Y-45129000D01*
X166140000Y-45169000D02*
X166926000Y-45169000D01*
X163274000Y-45169000D02*
X164060000Y-45169000D01*
X166140000Y-45209000D02*
X166964000Y-45209000D01*
X163236000Y-45209000D02*
X164060000Y-45209000D01*
X166140000Y-45249000D02*
X167001000Y-45249000D01*
X163199000Y-45249000D02*
X164060000Y-45249000D01*
X166140000Y-45289000D02*
X167037000Y-45289000D01*
X163163000Y-45289000D02*
X164060000Y-45289000D01*
X166140000Y-45329000D02*
X167071000Y-45329000D01*
X163129000Y-45329000D02*
X164060000Y-45329000D01*
X166140000Y-45369000D02*
X167104000Y-45369000D01*
X163096000Y-45369000D02*
X164060000Y-45369000D01*
X166140000Y-45409000D02*
X167135000Y-45409000D01*
X163065000Y-45409000D02*
X164060000Y-45409000D01*
X166140000Y-45449000D02*
X167165000Y-45449000D01*
X163035000Y-45449000D02*
X164060000Y-45449000D01*
X166140000Y-45489000D02*
X167195000Y-45489000D01*
X163005000Y-45489000D02*
X164060000Y-45489000D01*
X166140000Y-45529000D02*
X167222000Y-45529000D01*
X162978000Y-45529000D02*
X164060000Y-45529000D01*
X166140000Y-45569000D02*
X167249000Y-45569000D01*
X162951000Y-45569000D02*
X164060000Y-45569000D01*
X166140000Y-45609000D02*
X167275000Y-45609000D01*
X162925000Y-45609000D02*
X164060000Y-45609000D01*
X166140000Y-45649000D02*
X167300000Y-45649000D01*
X162900000Y-45649000D02*
X164060000Y-45649000D01*
X166140000Y-45689000D02*
X167324000Y-45689000D01*
X162876000Y-45689000D02*
X164060000Y-45689000D01*
X166140000Y-45729000D02*
X167347000Y-45729000D01*
X162853000Y-45729000D02*
X164060000Y-45729000D01*
X166140000Y-45769000D02*
X167368000Y-45769000D01*
X162832000Y-45769000D02*
X164060000Y-45769000D01*
X166140000Y-45809000D02*
X167390000Y-45809000D01*
X162810000Y-45809000D02*
X164060000Y-45809000D01*
X166140000Y-45849000D02*
X167410000Y-45849000D01*
X162790000Y-45849000D02*
X164060000Y-45849000D01*
X166140000Y-45889000D02*
X167429000Y-45889000D01*
X162771000Y-45889000D02*
X164060000Y-45889000D01*
X166140000Y-45929000D02*
X167448000Y-45929000D01*
X162752000Y-45929000D02*
X164060000Y-45929000D01*
X166140000Y-45969000D02*
X167465000Y-45969000D01*
X162735000Y-45969000D02*
X164060000Y-45969000D01*
X166140000Y-46009000D02*
X167482000Y-46009000D01*
X162718000Y-46009000D02*
X164060000Y-46009000D01*
X166140000Y-46049000D02*
X167498000Y-46049000D01*
X162702000Y-46049000D02*
X164060000Y-46049000D01*
X166140000Y-46089000D02*
X167514000Y-46089000D01*
X162686000Y-46089000D02*
X164060000Y-46089000D01*
X166140000Y-46129000D02*
X167528000Y-46129000D01*
X162672000Y-46129000D02*
X164060000Y-46129000D01*
X166140000Y-46169000D02*
X167542000Y-46169000D01*
X162658000Y-46169000D02*
X164060000Y-46169000D01*
X166140000Y-46209000D02*
X167555000Y-46209000D01*
X162645000Y-46209000D02*
X164060000Y-46209000D01*
X166140000Y-46249000D02*
X167568000Y-46249000D01*
X162632000Y-46249000D02*
X164060000Y-46249000D01*
X166140000Y-46289000D02*
X167580000Y-46289000D01*
X162620000Y-46289000D02*
X164060000Y-46289000D01*
X166140000Y-46330000D02*
X167591000Y-46330000D01*
X162609000Y-46330000D02*
X164060000Y-46330000D01*
X166140000Y-46370000D02*
X167601000Y-46370000D01*
X162599000Y-46370000D02*
X164060000Y-46370000D01*
X166140000Y-46410000D02*
X167611000Y-46410000D01*
X162589000Y-46410000D02*
X164060000Y-46410000D01*
X166140000Y-46450000D02*
X167620000Y-46450000D01*
X162580000Y-46450000D02*
X164060000Y-46450000D01*
X166140000Y-46490000D02*
X167628000Y-46490000D01*
X162572000Y-46490000D02*
X164060000Y-46490000D01*
X166140000Y-46530000D02*
X167636000Y-46530000D01*
X162564000Y-46530000D02*
X164060000Y-46530000D01*
X166140000Y-46570000D02*
X167643000Y-46570000D01*
X162557000Y-46570000D02*
X164060000Y-46570000D01*
X166140000Y-46610000D02*
X167650000Y-46610000D01*
X162550000Y-46610000D02*
X164060000Y-46610000D01*
X166140000Y-46650000D02*
X167656000Y-46650000D01*
X162544000Y-46650000D02*
X164060000Y-46650000D01*
X166140000Y-46690000D02*
X167661000Y-46690000D01*
X162539000Y-46690000D02*
X164060000Y-46690000D01*
X166140000Y-46730000D02*
X167665000Y-46730000D01*
X162535000Y-46730000D02*
X164060000Y-46730000D01*
X166140000Y-46770000D02*
X167669000Y-46770000D01*
X162531000Y-46770000D02*
X164060000Y-46770000D01*
X162527000Y-46810000D02*
X167673000Y-46810000D01*
X162524000Y-46850000D02*
X167676000Y-46850000D01*
X162522000Y-46890000D02*
X167678000Y-46890000D01*
X162521000Y-46930000D02*
X167679000Y-46930000D01*
X162520000Y-46970000D02*
X167680000Y-46970000D01*
X162520000Y-47010000D02*
X167680000Y-47010000D01*
X167720000Y-47010000D02*
G75*
G03X167720000Y-47010000I-2620000J0D01*
G01*
X150730000Y-40180000D02*
X150730000Y-41680000D01*
X151980000Y-44180000D02*
X156480000Y-44180000D01*
X157730000Y-41680000D02*
X157730000Y-40180000D01*
X156480000Y-37680000D02*
X151980000Y-37680000D01*
X157880000Y-33480000D02*
X157880000Y-31980000D01*
X156630000Y-29480000D02*
X152130000Y-29480000D01*
X150880000Y-31980000D02*
X150880000Y-33480000D01*
X152130000Y-35980000D02*
X156630000Y-35980000D01*
X162560000Y-39600000D02*
X162560000Y-38830000D01*
X162560000Y-31520000D02*
X162560000Y-32290000D01*
X163930000Y-38830000D02*
X163930000Y-32290000D01*
X161190000Y-38830000D02*
X163930000Y-38830000D01*
X161190000Y-32290000D02*
X161190000Y-38830000D01*
X163930000Y-32290000D02*
X161190000Y-32290000D01*
X167640000Y-39600000D02*
X167640000Y-38830000D01*
X167640000Y-31520000D02*
X167640000Y-32290000D01*
X169010000Y-38830000D02*
X169010000Y-32290000D01*
X166270000Y-38830000D02*
X169010000Y-38830000D01*
X166270000Y-32290000D02*
X166270000Y-38830000D01*
X169010000Y-32290000D02*
X166270000Y-32290000D01*
X172720000Y-46760000D02*
X172720000Y-47530000D01*
X172720000Y-54840000D02*
X172720000Y-54070000D01*
X171350000Y-47530000D02*
X171350000Y-54070000D01*
X174090000Y-47530000D02*
X171350000Y-47530000D01*
X174090000Y-54070000D02*
X174090000Y-47530000D01*
X171350000Y-54070000D02*
X174090000Y-54070000D01*
X158810000Y-46930000D02*
X158810000Y-48260000D01*
X157480000Y-46930000D02*
X158810000Y-46930000D01*
X156210000Y-46930000D02*
X156210000Y-49590000D01*
X156210000Y-49590000D02*
X151070000Y-49590000D01*
X156210000Y-46930000D02*
X151070000Y-46930000D01*
X151070000Y-46930000D02*
X151070000Y-49590000D01*
X174190000Y-34890000D02*
X171250000Y-34890000D01*
X174190000Y-35130000D02*
X171250000Y-35130000D01*
X174190000Y-35010000D02*
X171250000Y-35010000D01*
X171250000Y-39550000D02*
X171580000Y-39550000D01*
X171250000Y-34110000D02*
X171250000Y-39550000D01*
X171580000Y-34110000D02*
X171250000Y-34110000D01*
X174190000Y-39550000D02*
X173860000Y-39550000D01*
X174190000Y-34110000D02*
X174190000Y-39550000D01*
X173860000Y-34110000D02*
X174190000Y-34110000D01*
X163555000Y-64790000D02*
X166645000Y-64790000D01*
X167600000Y-62230000D02*
G75*
G03X167600000Y-62230000I-2500000J0D01*
G01*
X165099538Y-59240000D02*
G75*
G02X166644830Y-64790000I462J-2990000D01*
G01*
X165100462Y-59240000D02*
G75*
G03X163555170Y-64790000I-462J-2990000D01*
G01*
X146280000Y-108050000D02*
X146280000Y-105310000D01*
X153520000Y-108050000D02*
X153520000Y-105310000D01*
X153520000Y-105310000D02*
X146280000Y-105310000D01*
X153520000Y-108050000D02*
X146280000Y-108050000D01*
X173760000Y-105310000D02*
X173760000Y-108050000D01*
X166520000Y-105310000D02*
X166520000Y-108050000D01*
X166520000Y-108050000D02*
X173760000Y-108050000D01*
X166520000Y-105310000D02*
X173760000Y-105310000D01*
X143160000Y-47639000D02*
X143160000Y-46381000D01*
X141320000Y-47639000D02*
X141320000Y-46381000D01*
X145700000Y-47639000D02*
X145700000Y-46381000D01*
X143860000Y-47639000D02*
X143860000Y-46381000D01*
X166825000Y-52035225D02*
X166325000Y-52035225D01*
X166575000Y-51785225D02*
X166575000Y-52285225D01*
X165384000Y-57191000D02*
X164816000Y-57191000D01*
X165618000Y-57151000D02*
X164582000Y-57151000D01*
X165777000Y-57111000D02*
X164423000Y-57111000D01*
X165905000Y-57071000D02*
X164295000Y-57071000D01*
X166015000Y-57031000D02*
X164185000Y-57031000D01*
X166111000Y-56991000D02*
X164089000Y-56991000D01*
X166198000Y-56951000D02*
X164002000Y-56951000D01*
X166278000Y-56911000D02*
X163922000Y-56911000D01*
X164060000Y-56871000D02*
X163849000Y-56871000D01*
X166351000Y-56871000D02*
X166140000Y-56871000D01*
X164060000Y-56831000D02*
X163781000Y-56831000D01*
X166419000Y-56831000D02*
X166140000Y-56831000D01*
X164060000Y-56791000D02*
X163717000Y-56791000D01*
X166483000Y-56791000D02*
X166140000Y-56791000D01*
X164060000Y-56751000D02*
X163657000Y-56751000D01*
X166543000Y-56751000D02*
X166140000Y-56751000D01*
X164060000Y-56711000D02*
X163600000Y-56711000D01*
X166600000Y-56711000D02*
X166140000Y-56711000D01*
X164060000Y-56671000D02*
X163546000Y-56671000D01*
X166654000Y-56671000D02*
X166140000Y-56671000D01*
X164060000Y-56631000D02*
X163495000Y-56631000D01*
X166705000Y-56631000D02*
X166140000Y-56631000D01*
X164060000Y-56591000D02*
X163447000Y-56591000D01*
X166753000Y-56591000D02*
X166140000Y-56591000D01*
X164060000Y-56551000D02*
X163401000Y-56551000D01*
X166799000Y-56551000D02*
X166140000Y-56551000D01*
X164060000Y-56511000D02*
X163357000Y-56511000D01*
X166843000Y-56511000D02*
X166140000Y-56511000D01*
X164060000Y-56471000D02*
X163315000Y-56471000D01*
X166885000Y-56471000D02*
X166140000Y-56471000D01*
X164060000Y-56431000D02*
X163274000Y-56431000D01*
X166926000Y-56431000D02*
X166140000Y-56431000D01*
X164060000Y-56391000D02*
X163236000Y-56391000D01*
X166964000Y-56391000D02*
X166140000Y-56391000D01*
X164060000Y-56351000D02*
X163199000Y-56351000D01*
X167001000Y-56351000D02*
X166140000Y-56351000D01*
X164060000Y-56311000D02*
X163163000Y-56311000D01*
X167037000Y-56311000D02*
X166140000Y-56311000D01*
X164060000Y-56271000D02*
X163129000Y-56271000D01*
X167071000Y-56271000D02*
X166140000Y-56271000D01*
X164060000Y-56231000D02*
X163096000Y-56231000D01*
X167104000Y-56231000D02*
X166140000Y-56231000D01*
X164060000Y-56191000D02*
X163065000Y-56191000D01*
X167135000Y-56191000D02*
X166140000Y-56191000D01*
X164060000Y-56151000D02*
X163035000Y-56151000D01*
X167165000Y-56151000D02*
X166140000Y-56151000D01*
X164060000Y-56111000D02*
X163005000Y-56111000D01*
X167195000Y-56111000D02*
X166140000Y-56111000D01*
X164060000Y-56071000D02*
X162978000Y-56071000D01*
X167222000Y-56071000D02*
X166140000Y-56071000D01*
X164060000Y-56031000D02*
X162951000Y-56031000D01*
X167249000Y-56031000D02*
X166140000Y-56031000D01*
X164060000Y-55991000D02*
X162925000Y-55991000D01*
X167275000Y-55991000D02*
X166140000Y-55991000D01*
X164060000Y-55951000D02*
X162900000Y-55951000D01*
X167300000Y-55951000D02*
X166140000Y-55951000D01*
X164060000Y-55911000D02*
X162876000Y-55911000D01*
X167324000Y-55911000D02*
X166140000Y-55911000D01*
X164060000Y-55871000D02*
X162853000Y-55871000D01*
X167347000Y-55871000D02*
X166140000Y-55871000D01*
X164060000Y-55831000D02*
X162832000Y-55831000D01*
X167368000Y-55831000D02*
X166140000Y-55831000D01*
X164060000Y-55791000D02*
X162810000Y-55791000D01*
X167390000Y-55791000D02*
X166140000Y-55791000D01*
X164060000Y-55751000D02*
X162790000Y-55751000D01*
X167410000Y-55751000D02*
X166140000Y-55751000D01*
X164060000Y-55711000D02*
X162771000Y-55711000D01*
X167429000Y-55711000D02*
X166140000Y-55711000D01*
X164060000Y-55671000D02*
X162752000Y-55671000D01*
X167448000Y-55671000D02*
X166140000Y-55671000D01*
X164060000Y-55631000D02*
X162735000Y-55631000D01*
X167465000Y-55631000D02*
X166140000Y-55631000D01*
X164060000Y-55591000D02*
X162718000Y-55591000D01*
X167482000Y-55591000D02*
X166140000Y-55591000D01*
X164060000Y-55551000D02*
X162702000Y-55551000D01*
X167498000Y-55551000D02*
X166140000Y-55551000D01*
X164060000Y-55511000D02*
X162686000Y-55511000D01*
X167514000Y-55511000D02*
X166140000Y-55511000D01*
X164060000Y-55471000D02*
X162672000Y-55471000D01*
X167528000Y-55471000D02*
X166140000Y-55471000D01*
X164060000Y-55431000D02*
X162658000Y-55431000D01*
X167542000Y-55431000D02*
X166140000Y-55431000D01*
X164060000Y-55391000D02*
X162645000Y-55391000D01*
X167555000Y-55391000D02*
X166140000Y-55391000D01*
X164060000Y-55351000D02*
X162632000Y-55351000D01*
X167568000Y-55351000D02*
X166140000Y-55351000D01*
X164060000Y-55311000D02*
X162620000Y-55311000D01*
X167580000Y-55311000D02*
X166140000Y-55311000D01*
X164060000Y-55270000D02*
X162609000Y-55270000D01*
X167591000Y-55270000D02*
X166140000Y-55270000D01*
X164060000Y-55230000D02*
X162599000Y-55230000D01*
X167601000Y-55230000D02*
X166140000Y-55230000D01*
X164060000Y-55190000D02*
X162589000Y-55190000D01*
X167611000Y-55190000D02*
X166140000Y-55190000D01*
X164060000Y-55150000D02*
X162580000Y-55150000D01*
X167620000Y-55150000D02*
X166140000Y-55150000D01*
X164060000Y-55110000D02*
X162572000Y-55110000D01*
X167628000Y-55110000D02*
X166140000Y-55110000D01*
X164060000Y-55070000D02*
X162564000Y-55070000D01*
X167636000Y-55070000D02*
X166140000Y-55070000D01*
X164060000Y-55030000D02*
X162557000Y-55030000D01*
X167643000Y-55030000D02*
X166140000Y-55030000D01*
X164060000Y-54990000D02*
X162550000Y-54990000D01*
X167650000Y-54990000D02*
X166140000Y-54990000D01*
X164060000Y-54950000D02*
X162544000Y-54950000D01*
X167656000Y-54950000D02*
X166140000Y-54950000D01*
X164060000Y-54910000D02*
X162539000Y-54910000D01*
X167661000Y-54910000D02*
X166140000Y-54910000D01*
X164060000Y-54870000D02*
X162535000Y-54870000D01*
X167665000Y-54870000D02*
X166140000Y-54870000D01*
X164060000Y-54830000D02*
X162531000Y-54830000D01*
X167669000Y-54830000D02*
X166140000Y-54830000D01*
X167673000Y-54790000D02*
X162527000Y-54790000D01*
X167676000Y-54750000D02*
X162524000Y-54750000D01*
X167678000Y-54710000D02*
X162522000Y-54710000D01*
X167679000Y-54670000D02*
X162521000Y-54670000D01*
X167680000Y-54630000D02*
X162520000Y-54630000D01*
X167680000Y-54590000D02*
X162520000Y-54590000D01*
X167720000Y-54590000D02*
G75*
G03X167720000Y-54590000I-2620000J0D01*
G01*
D10*
X169418095Y-65702380D02*
X169418095Y-66511904D01*
X169465714Y-66607142D01*
X169513333Y-66654761D01*
X169608571Y-66702380D01*
X169799047Y-66702380D01*
X169894285Y-66654761D01*
X169941904Y-66607142D01*
X169989523Y-66511904D01*
X169989523Y-65702380D01*
X170418095Y-65797619D02*
X170465714Y-65750000D01*
X170560952Y-65702380D01*
X170799047Y-65702380D01*
X170894285Y-65750000D01*
X170941904Y-65797619D01*
X170989523Y-65892857D01*
X170989523Y-65988095D01*
X170941904Y-66130952D01*
X170370476Y-66702380D01*
X170989523Y-66702380D01*
X149098095Y-50462380D02*
X149098095Y-51271904D01*
X149145714Y-51367142D01*
X149193333Y-51414761D01*
X149288571Y-51462380D01*
X149479047Y-51462380D01*
X149574285Y-51414761D01*
X149621904Y-51367142D01*
X149669523Y-51271904D01*
X149669523Y-50462380D01*
X150669523Y-51462380D02*
X150098095Y-51462380D01*
X150383809Y-51462380D02*
X150383809Y-50462380D01*
X150288571Y-50605238D01*
X150193333Y-50700476D01*
X150098095Y-50748095D01*
X171886666Y-57872380D02*
X171886666Y-58586666D01*
X171839047Y-58729523D01*
X171743809Y-58824761D01*
X171600952Y-58872380D01*
X171505714Y-58872380D01*
X172362857Y-58872380D02*
X172362857Y-57872380D01*
X172743809Y-57872380D01*
X172839047Y-57920000D01*
X172886666Y-57967619D01*
X172934285Y-58062857D01*
X172934285Y-58205714D01*
X172886666Y-58300952D01*
X172839047Y-58348571D01*
X172743809Y-58396190D01*
X172362857Y-58396190D01*
X173315238Y-57967619D02*
X173362857Y-57920000D01*
X173458095Y-57872380D01*
X173696190Y-57872380D01*
X173791428Y-57920000D01*
X173839047Y-57967619D01*
X173886666Y-58062857D01*
X173886666Y-58158095D01*
X173839047Y-58300952D01*
X173267619Y-58872380D01*
X173886666Y-58872380D01*
X139676190Y-38486190D02*
X140152380Y-38486190D01*
X139152380Y-38819523D02*
X139676190Y-38486190D01*
X139152380Y-38152857D01*
X140152380Y-37295714D02*
X140152380Y-37867142D01*
X140152380Y-37581428D02*
X139152380Y-37581428D01*
X139295238Y-37676666D01*
X139390476Y-37771904D01*
X139438095Y-37867142D01*
X177466666Y-29932380D02*
X177466666Y-30646666D01*
X177419047Y-30789523D01*
X177323809Y-30884761D01*
X177180952Y-30932380D01*
X177085714Y-30932380D01*
X177895238Y-30027619D02*
X177942857Y-29980000D01*
X178038095Y-29932380D01*
X178276190Y-29932380D01*
X178371428Y-29980000D01*
X178419047Y-30027619D01*
X178466666Y-30122857D01*
X178466666Y-30218095D01*
X178419047Y-30360952D01*
X177847619Y-30932380D01*
X178466666Y-30932380D01*
X177466666Y-45172380D02*
X177466666Y-45886666D01*
X177419047Y-46029523D01*
X177323809Y-46124761D01*
X177180952Y-46172380D01*
X177085714Y-46172380D01*
X178466666Y-46172380D02*
X177895238Y-46172380D01*
X178180952Y-46172380D02*
X178180952Y-45172380D01*
X178085714Y-45315238D01*
X177990476Y-45410476D01*
X177895238Y-45458095D01*
X160377142Y-47156666D02*
X160424761Y-47204285D01*
X160472380Y-47347142D01*
X160472380Y-47442380D01*
X160424761Y-47585238D01*
X160329523Y-47680476D01*
X160234285Y-47728095D01*
X160043809Y-47775714D01*
X159900952Y-47775714D01*
X159710476Y-47728095D01*
X159615238Y-47680476D01*
X159520000Y-47585238D01*
X159472380Y-47442380D01*
X159472380Y-47347142D01*
X159520000Y-47204285D01*
X159567619Y-47156666D01*
X159472380Y-46299523D02*
X159472380Y-46490000D01*
X159520000Y-46585238D01*
X159567619Y-46632857D01*
X159710476Y-46728095D01*
X159900952Y-46775714D01*
X160281904Y-46775714D01*
X160377142Y-46728095D01*
X160424761Y-46680476D01*
X160472380Y-46585238D01*
X160472380Y-46394761D01*
X160424761Y-46299523D01*
X160377142Y-46251904D01*
X160281904Y-46204285D01*
X160043809Y-46204285D01*
X159948571Y-46251904D01*
X159900952Y-46299523D01*
X159853333Y-46394761D01*
X159853333Y-46585238D01*
X159900952Y-46680476D01*
X159948571Y-46728095D01*
X160043809Y-46775714D01*
X152896666Y-46124761D02*
X153039523Y-46172380D01*
X153277619Y-46172380D01*
X153372857Y-46124761D01*
X153420476Y-46077142D01*
X153468095Y-45981904D01*
X153468095Y-45886666D01*
X153420476Y-45791428D01*
X153372857Y-45743809D01*
X153277619Y-45696190D01*
X153087142Y-45648571D01*
X152991904Y-45600952D01*
X152944285Y-45553333D01*
X152896666Y-45458095D01*
X152896666Y-45362857D01*
X152944285Y-45267619D01*
X152991904Y-45220000D01*
X153087142Y-45172380D01*
X153325238Y-45172380D01*
X153468095Y-45220000D01*
X153801428Y-45172380D02*
X154039523Y-46172380D01*
X154230000Y-45458095D01*
X154420476Y-46172380D01*
X154658571Y-45172380D01*
X154991904Y-45267619D02*
X155039523Y-45220000D01*
X155134761Y-45172380D01*
X155372857Y-45172380D01*
X155468095Y-45220000D01*
X155515714Y-45267619D01*
X155563333Y-45362857D01*
X155563333Y-45458095D01*
X155515714Y-45600952D01*
X154944285Y-46172380D01*
X155563333Y-46172380D01*
X153046666Y-28344761D02*
X153189523Y-28392380D01*
X153427619Y-28392380D01*
X153522857Y-28344761D01*
X153570476Y-28297142D01*
X153618095Y-28201904D01*
X153618095Y-28106666D01*
X153570476Y-28011428D01*
X153522857Y-27963809D01*
X153427619Y-27916190D01*
X153237142Y-27868571D01*
X153141904Y-27820952D01*
X153094285Y-27773333D01*
X153046666Y-27678095D01*
X153046666Y-27582857D01*
X153094285Y-27487619D01*
X153141904Y-27440000D01*
X153237142Y-27392380D01*
X153475238Y-27392380D01*
X153618095Y-27440000D01*
X153951428Y-27392380D02*
X154189523Y-28392380D01*
X154380000Y-27678095D01*
X154570476Y-28392380D01*
X154808571Y-27392380D01*
X155713333Y-28392380D02*
X155141904Y-28392380D01*
X155427619Y-28392380D02*
X155427619Y-27392380D01*
X155332380Y-27535238D01*
X155237142Y-27630476D01*
X155141904Y-27678095D01*
X160472380Y-35726666D02*
X159996190Y-36060000D01*
X160472380Y-36298095D02*
X159472380Y-36298095D01*
X159472380Y-35917142D01*
X159520000Y-35821904D01*
X159567619Y-35774285D01*
X159662857Y-35726666D01*
X159805714Y-35726666D01*
X159900952Y-35774285D01*
X159948571Y-35821904D01*
X159996190Y-35917142D01*
X159996190Y-36298095D01*
X159472380Y-35393333D02*
X159472380Y-34774285D01*
X159853333Y-35107619D01*
X159853333Y-34964761D01*
X159900952Y-34869523D01*
X159948571Y-34821904D01*
X160043809Y-34774285D01*
X160281904Y-34774285D01*
X160377142Y-34821904D01*
X160424761Y-34869523D01*
X160472380Y-34964761D01*
X160472380Y-35250476D01*
X160424761Y-35345714D01*
X160377142Y-35393333D01*
X165552380Y-35726666D02*
X165076190Y-36060000D01*
X165552380Y-36298095D02*
X164552380Y-36298095D01*
X164552380Y-35917142D01*
X164600000Y-35821904D01*
X164647619Y-35774285D01*
X164742857Y-35726666D01*
X164885714Y-35726666D01*
X164980952Y-35774285D01*
X165028571Y-35821904D01*
X165076190Y-35917142D01*
X165076190Y-36298095D01*
X164647619Y-35345714D02*
X164600000Y-35298095D01*
X164552380Y-35202857D01*
X164552380Y-34964761D01*
X164600000Y-34869523D01*
X164647619Y-34821904D01*
X164742857Y-34774285D01*
X164838095Y-34774285D01*
X164980952Y-34821904D01*
X165552380Y-35393333D01*
X165552380Y-34774285D01*
X169997380Y-50966666D02*
X169521190Y-51300000D01*
X169997380Y-51538095D02*
X168997380Y-51538095D01*
X168997380Y-51157142D01*
X169045000Y-51061904D01*
X169092619Y-51014285D01*
X169187857Y-50966666D01*
X169330714Y-50966666D01*
X169425952Y-51014285D01*
X169473571Y-51061904D01*
X169521190Y-51157142D01*
X169521190Y-51538095D01*
X169997380Y-50014285D02*
X169997380Y-50585714D01*
X169997380Y-50300000D02*
X168997380Y-50300000D01*
X169140238Y-50395238D01*
X169235476Y-50490476D01*
X169283095Y-50585714D01*
X149312380Y-49093333D02*
X150026666Y-49093333D01*
X150169523Y-49140952D01*
X150264761Y-49236190D01*
X150312380Y-49379047D01*
X150312380Y-49474285D01*
X150312380Y-48617142D02*
X149312380Y-48617142D01*
X149312380Y-48236190D01*
X149360000Y-48140952D01*
X149407619Y-48093333D01*
X149502857Y-48045714D01*
X149645714Y-48045714D01*
X149740952Y-48093333D01*
X149788571Y-48140952D01*
X149836190Y-48236190D01*
X149836190Y-48617142D01*
X150312380Y-47093333D02*
X150312380Y-47664761D01*
X150312380Y-47379047D02*
X149312380Y-47379047D01*
X149455238Y-47474285D01*
X149550476Y-47569523D01*
X149598095Y-47664761D01*
X170632380Y-37568095D02*
X169632380Y-37568095D01*
X169632380Y-37330000D01*
X169680000Y-37187142D01*
X169775238Y-37091904D01*
X169870476Y-37044285D01*
X170060952Y-36996666D01*
X170203809Y-36996666D01*
X170394285Y-37044285D01*
X170489523Y-37091904D01*
X170584761Y-37187142D01*
X170632380Y-37330000D01*
X170632380Y-37568095D01*
X169727619Y-36615714D02*
X169680000Y-36568095D01*
X169632380Y-36472857D01*
X169632380Y-36234761D01*
X169680000Y-36139523D01*
X169727619Y-36091904D01*
X169822857Y-36044285D01*
X169918095Y-36044285D01*
X170060952Y-36091904D01*
X170632380Y-36663333D01*
X170632380Y-36044285D01*
X175072380Y-33281904D02*
X174072380Y-33281904D01*
X175072380Y-32710476D02*
X174500952Y-33139047D01*
X174072380Y-32710476D02*
X174643809Y-33281904D01*
X160472380Y-62968095D02*
X159472380Y-62968095D01*
X159472380Y-62730000D01*
X159520000Y-62587142D01*
X159615238Y-62491904D01*
X159710476Y-62444285D01*
X159900952Y-62396666D01*
X160043809Y-62396666D01*
X160234285Y-62444285D01*
X160329523Y-62491904D01*
X160424761Y-62587142D01*
X160472380Y-62730000D01*
X160472380Y-62968095D01*
X160472380Y-61444285D02*
X160472380Y-62015714D01*
X160472380Y-61730000D02*
X159472380Y-61730000D01*
X159615238Y-61825238D01*
X159710476Y-61920476D01*
X159758095Y-62015714D01*
X149733333Y-109537142D02*
X149685714Y-109584761D01*
X149542857Y-109632380D01*
X149447619Y-109632380D01*
X149304761Y-109584761D01*
X149209523Y-109489523D01*
X149161904Y-109394285D01*
X149114285Y-109203809D01*
X149114285Y-109060952D01*
X149161904Y-108870476D01*
X149209523Y-108775238D01*
X149304761Y-108680000D01*
X149447619Y-108632380D01*
X149542857Y-108632380D01*
X149685714Y-108680000D01*
X149733333Y-108727619D01*
X150638095Y-108632380D02*
X150161904Y-108632380D01*
X150114285Y-109108571D01*
X150161904Y-109060952D01*
X150257142Y-109013333D01*
X150495238Y-109013333D01*
X150590476Y-109060952D01*
X150638095Y-109108571D01*
X150685714Y-109203809D01*
X150685714Y-109441904D01*
X150638095Y-109537142D01*
X150590476Y-109584761D01*
X150495238Y-109632380D01*
X150257142Y-109632380D01*
X150161904Y-109584761D01*
X150114285Y-109537142D01*
X170013333Y-109577142D02*
X169965714Y-109624761D01*
X169822857Y-109672380D01*
X169727619Y-109672380D01*
X169584761Y-109624761D01*
X169489523Y-109529523D01*
X169441904Y-109434285D01*
X169394285Y-109243809D01*
X169394285Y-109100952D01*
X169441904Y-108910476D01*
X169489523Y-108815238D01*
X169584761Y-108720000D01*
X169727619Y-108672380D01*
X169822857Y-108672380D01*
X169965714Y-108720000D01*
X170013333Y-108767619D01*
X170870476Y-109005714D02*
X170870476Y-109672380D01*
X170632380Y-108624761D02*
X170394285Y-109339047D01*
X171013333Y-109339047D01*
X140057142Y-47176666D02*
X140104761Y-47224285D01*
X140152380Y-47367142D01*
X140152380Y-47462380D01*
X140104761Y-47605238D01*
X140009523Y-47700476D01*
X139914285Y-47748095D01*
X139723809Y-47795714D01*
X139580952Y-47795714D01*
X139390476Y-47748095D01*
X139295238Y-47700476D01*
X139200000Y-47605238D01*
X139152380Y-47462380D01*
X139152380Y-47367142D01*
X139200000Y-47224285D01*
X139247619Y-47176666D01*
X139152380Y-46843333D02*
X139152380Y-46224285D01*
X139533333Y-46557619D01*
X139533333Y-46414761D01*
X139580952Y-46319523D01*
X139628571Y-46271904D01*
X139723809Y-46224285D01*
X139961904Y-46224285D01*
X140057142Y-46271904D01*
X140104761Y-46319523D01*
X140152380Y-46414761D01*
X140152380Y-46700476D01*
X140104761Y-46795714D01*
X140057142Y-46843333D01*
X147677142Y-47176666D02*
X147724761Y-47224285D01*
X147772380Y-47367142D01*
X147772380Y-47462380D01*
X147724761Y-47605238D01*
X147629523Y-47700476D01*
X147534285Y-47748095D01*
X147343809Y-47795714D01*
X147200952Y-47795714D01*
X147010476Y-47748095D01*
X146915238Y-47700476D01*
X146820000Y-47605238D01*
X146772380Y-47462380D01*
X146772380Y-47367142D01*
X146820000Y-47224285D01*
X146867619Y-47176666D01*
X146867619Y-46795714D02*
X146820000Y-46748095D01*
X146772380Y-46652857D01*
X146772380Y-46414761D01*
X146820000Y-46319523D01*
X146867619Y-46271904D01*
X146962857Y-46224285D01*
X147058095Y-46224285D01*
X147200952Y-46271904D01*
X147772380Y-46843333D01*
X147772380Y-46224285D01*
X160377142Y-54776666D02*
X160424761Y-54824285D01*
X160472380Y-54967142D01*
X160472380Y-55062380D01*
X160424761Y-55205238D01*
X160329523Y-55300476D01*
X160234285Y-55348095D01*
X160043809Y-55395714D01*
X159900952Y-55395714D01*
X159710476Y-55348095D01*
X159615238Y-55300476D01*
X159520000Y-55205238D01*
X159472380Y-55062380D01*
X159472380Y-54967142D01*
X159520000Y-54824285D01*
X159567619Y-54776666D01*
X160472380Y-53824285D02*
X160472380Y-54395714D01*
X160472380Y-54110000D02*
X159472380Y-54110000D01*
X159615238Y-54205238D01*
X159710476Y-54300476D01*
X159758095Y-54395714D01*
M02*
