M48
; DRILL file {KiCad 5.1.4-5.1.4} date Wed 21 Aug 2019 12:35:11 AEST
; FORMAT={-:-/ absolute / inch / decimal}
; #@! TF.CreationDate,2019-08-21T12:35:11+10:00
; #@! TF.GenerationSoftware,Kicad,Pcbnew,5.1.4-5.1.4
; #@! TF.FileFunction,Plated,1,2,PTH
FMAT,2
INCH
T1C0.0315
T2C0.0354
T3C0.0394
T4C0.0433
%
G90
G05
T1
X6.4Y-1.2
X6.4Y-1.6
X5.7Y-1.4
X5.7Y-1.5929
X6.4Y-2.7
X6.4Y-2.8
X6.4Y-2.9
X6.4Y-3.0
X6.4Y-3.1
X6.4Y-3.2
X6.4Y-3.3
X6.4Y-3.4
X6.4Y-3.5
X6.4Y-3.6
X6.4Y-3.7
X6.4Y-3.8
X6.4Y-3.9
X6.4Y-4.0
X7.0Y-2.7
X7.0Y-2.8
X7.0Y-2.9
X7.0Y-3.0
X7.0Y-3.1
X7.0Y-3.2
X7.0Y-3.3
X7.0Y-3.4
X7.0Y-3.5
X7.0Y-3.6
X7.0Y-3.7
X7.0Y-3.8
X7.0Y-3.9
X7.0Y-4.0
X6.5Y-2.1
X6.5Y-2.1984
X5.8031Y-4.2
X6.0Y-4.2
X5.7Y-1.8016
X5.7Y-1.9
X6.5Y-1.8016
X6.5Y-1.9
X6.8Y-1.8
X6.8Y-2.2
X5.6Y-2.1
X5.6Y-2.2
X5.6Y-2.3
X5.6Y-2.4
X5.6Y-2.5
X5.6Y-2.6
X5.6Y-2.7
X5.6Y-2.8
X5.6Y-2.9
X5.6Y-3.0
X5.6Y-3.1
X5.6Y-3.2
X5.6Y-3.3
X5.6Y-3.4
X5.6Y-3.5
X5.6Y-3.6
X5.6Y-3.7
X5.6Y-3.8
X5.6Y-3.9
X5.6Y-4.0
X6.2Y-2.1
X6.2Y-2.2
X6.2Y-2.3
X6.2Y-2.4
X6.2Y-2.5
X6.2Y-2.6
X6.2Y-2.7
X6.2Y-2.8
X6.2Y-2.9
X6.2Y-3.0
X6.2Y-3.1
X6.2Y-3.2
X6.2Y-3.3
X6.2Y-3.4
X6.2Y-3.5
X6.2Y-3.6
X6.2Y-3.7
X6.2Y-3.8
X6.2Y-3.9
X6.2Y-4.0
X6.6Y-1.2
X6.6Y-1.6
X5.6Y-1.8016
X5.6Y-1.9
X6.6Y-4.2
X6.7969Y-4.2
T2
X6.5Y-2.4
X6.5Y-2.5
X6.8Y-1.3
X6.8Y-1.6
T3
X7.0Y-1.3
X7.0Y-1.4
X6.0Y-1.9
X6.1Y-1.9
X6.2Y-1.9
X7.0Y-1.9
X7.0Y-2.0
X7.0Y-2.1
X7.0Y-2.2
X7.0Y-2.3
X7.0Y-2.4
X7.0Y-2.5
X6.8Y-2.4
X6.8Y-2.5
T4
X5.9441Y-1.5228
X5.9441Y-1.7
X6.2Y-1.5228
X6.2Y-1.7
X5.95Y-1.2
X5.95Y-1.3772
X6.2059Y-1.2
X6.2059Y-1.3772
T0
M30
