%TF.GenerationSoftware,KiCad,Pcbnew,5.1.4-5.1.4*%
%TF.CreationDate,2019-08-21T12:35:07+10:00*%
%TF.ProjectId,8042board,38303432-626f-4617-9264-2e6b69636164,rev?*%
%TF.SameCoordinates,Original*%
%TF.FileFunction,Legend,Bot*%
%TF.FilePolarity,Positive*%
%FSLAX46Y46*%
G04 Gerber Fmt 4.6, Leading zero omitted, Abs format (unit mm)*
G04 Created by KiCad (PCBNEW 5.1.4-5.1.4) date 2019-08-21 12:35:07*
%MOMM*%
%LPD*%
G04 APERTURE LIST*
%ADD10C,0.150000*%
%ADD11C,0.010000*%
G04 APERTURE END LIST*
D10*
X178755714Y-21481428D02*
X178898571Y-21410000D01*
X178970000Y-21338571D01*
X179041428Y-21195714D01*
X179041428Y-21124285D01*
X178970000Y-20981428D01*
X178898571Y-20910000D01*
X178755714Y-20838571D01*
X178470000Y-20838571D01*
X178327142Y-20910000D01*
X178255714Y-20981428D01*
X178184285Y-21124285D01*
X178184285Y-21195714D01*
X178255714Y-21338571D01*
X178327142Y-21410000D01*
X178470000Y-21481428D01*
X178755714Y-21481428D01*
X178898571Y-21552857D01*
X178970000Y-21624285D01*
X179041428Y-21767142D01*
X179041428Y-22052857D01*
X178970000Y-22195714D01*
X178898571Y-22267142D01*
X178755714Y-22338571D01*
X178470000Y-22338571D01*
X178327142Y-22267142D01*
X178255714Y-22195714D01*
X178184285Y-22052857D01*
X178184285Y-21767142D01*
X178255714Y-21624285D01*
X178327142Y-21552857D01*
X178470000Y-21481428D01*
X177255714Y-20838571D02*
X177112857Y-20838571D01*
X176970000Y-20910000D01*
X176898571Y-20981428D01*
X176827142Y-21124285D01*
X176755714Y-21410000D01*
X176755714Y-21767142D01*
X176827142Y-22052857D01*
X176898571Y-22195714D01*
X176970000Y-22267142D01*
X177112857Y-22338571D01*
X177255714Y-22338571D01*
X177398571Y-22267142D01*
X177470000Y-22195714D01*
X177541428Y-22052857D01*
X177612857Y-21767142D01*
X177612857Y-21410000D01*
X177541428Y-21124285D01*
X177470000Y-20981428D01*
X177398571Y-20910000D01*
X177255714Y-20838571D01*
X175470000Y-21338571D02*
X175470000Y-22338571D01*
X175827142Y-20767142D02*
X176184285Y-21838571D01*
X175255714Y-21838571D01*
X174755714Y-20981428D02*
X174684285Y-20910000D01*
X174541428Y-20838571D01*
X174184285Y-20838571D01*
X174041428Y-20910000D01*
X173970000Y-20981428D01*
X173898571Y-21124285D01*
X173898571Y-21267142D01*
X173970000Y-21481428D01*
X174827142Y-22338571D01*
X173898571Y-22338571D01*
X172112857Y-22338571D02*
X172112857Y-20838571D01*
X172112857Y-21410000D02*
X171970000Y-21338571D01*
X171684285Y-21338571D01*
X171541428Y-21410000D01*
X171470000Y-21481428D01*
X171398571Y-21624285D01*
X171398571Y-22052857D01*
X171470000Y-22195714D01*
X171541428Y-22267142D01*
X171684285Y-22338571D01*
X171970000Y-22338571D01*
X172112857Y-22267142D01*
X170541428Y-22338571D02*
X170684285Y-22267142D01*
X170755714Y-22195714D01*
X170827142Y-22052857D01*
X170827142Y-21624285D01*
X170755714Y-21481428D01*
X170684285Y-21410000D01*
X170541428Y-21338571D01*
X170327142Y-21338571D01*
X170184285Y-21410000D01*
X170112857Y-21481428D01*
X170041428Y-21624285D01*
X170041428Y-22052857D01*
X170112857Y-22195714D01*
X170184285Y-22267142D01*
X170327142Y-22338571D01*
X170541428Y-22338571D01*
X168755714Y-22338571D02*
X168755714Y-21552857D01*
X168827142Y-21410000D01*
X168970000Y-21338571D01*
X169255714Y-21338571D01*
X169398571Y-21410000D01*
X168755714Y-22267142D02*
X168898571Y-22338571D01*
X169255714Y-22338571D01*
X169398571Y-22267142D01*
X169470000Y-22124285D01*
X169470000Y-21981428D01*
X169398571Y-21838571D01*
X169255714Y-21767142D01*
X168898571Y-21767142D01*
X168755714Y-21695714D01*
X168041428Y-22338571D02*
X168041428Y-21338571D01*
X168041428Y-21624285D02*
X167970000Y-21481428D01*
X167898571Y-21410000D01*
X167755714Y-21338571D01*
X167612857Y-21338571D01*
X166470000Y-22338571D02*
X166470000Y-20838571D01*
X166470000Y-22267142D02*
X166612857Y-22338571D01*
X166898571Y-22338571D01*
X167041428Y-22267142D01*
X167112857Y-22195714D01*
X167184285Y-22052857D01*
X167184285Y-21624285D01*
X167112857Y-21481428D01*
X167041428Y-21410000D01*
X166898571Y-21338571D01*
X166612857Y-21338571D01*
X166470000Y-21410000D01*
X180434285Y-24738571D02*
X180434285Y-23238571D01*
X179577142Y-24738571D02*
X180220000Y-23881428D01*
X179577142Y-23238571D02*
X180434285Y-24095714D01*
X178362857Y-24667142D02*
X178505714Y-24738571D01*
X178791428Y-24738571D01*
X178934285Y-24667142D01*
X179005714Y-24524285D01*
X179005714Y-23952857D01*
X178934285Y-23810000D01*
X178791428Y-23738571D01*
X178505714Y-23738571D01*
X178362857Y-23810000D01*
X178291428Y-23952857D01*
X178291428Y-24095714D01*
X179005714Y-24238571D01*
X177648571Y-23738571D02*
X177648571Y-24738571D01*
X177648571Y-23881428D02*
X177577142Y-23810000D01*
X177434285Y-23738571D01*
X177220000Y-23738571D01*
X177077142Y-23810000D01*
X177005714Y-23952857D01*
X177005714Y-24738571D01*
X174862857Y-24024285D02*
X174862857Y-24738571D01*
X175362857Y-23238571D02*
X174862857Y-24024285D01*
X174362857Y-23238571D01*
X173220000Y-24738571D02*
X173220000Y-23952857D01*
X173291428Y-23810000D01*
X173434285Y-23738571D01*
X173720000Y-23738571D01*
X173862857Y-23810000D01*
X173220000Y-24667142D02*
X173362857Y-24738571D01*
X173720000Y-24738571D01*
X173862857Y-24667142D01*
X173934285Y-24524285D01*
X173934285Y-24381428D01*
X173862857Y-24238571D01*
X173720000Y-24167142D01*
X173362857Y-24167142D01*
X173220000Y-24095714D01*
X172505714Y-23738571D02*
X172505714Y-25238571D01*
X172505714Y-23810000D02*
X172362857Y-23738571D01*
X172077142Y-23738571D01*
X171934285Y-23810000D01*
X171862857Y-23881428D01*
X171791428Y-24024285D01*
X171791428Y-24452857D01*
X171862857Y-24595714D01*
X171934285Y-24667142D01*
X172077142Y-24738571D01*
X172362857Y-24738571D01*
X172505714Y-24667142D01*
X170077142Y-23381428D02*
X170005714Y-23310000D01*
X169862857Y-23238571D01*
X169505714Y-23238571D01*
X169362857Y-23310000D01*
X169291428Y-23381428D01*
X169220000Y-23524285D01*
X169220000Y-23667142D01*
X169291428Y-23881428D01*
X170148571Y-24738571D01*
X169220000Y-24738571D01*
X168291428Y-23238571D02*
X168148571Y-23238571D01*
X168005714Y-23310000D01*
X167934285Y-23381428D01*
X167862857Y-23524285D01*
X167791428Y-23810000D01*
X167791428Y-24167142D01*
X167862857Y-24452857D01*
X167934285Y-24595714D01*
X168005714Y-24667142D01*
X168148571Y-24738571D01*
X168291428Y-24738571D01*
X168434285Y-24667142D01*
X168505714Y-24595714D01*
X168577142Y-24452857D01*
X168648571Y-24167142D01*
X168648571Y-23810000D01*
X168577142Y-23524285D01*
X168505714Y-23381428D01*
X168434285Y-23310000D01*
X168291428Y-23238571D01*
X166362857Y-24738571D02*
X167220000Y-24738571D01*
X166791428Y-24738571D02*
X166791428Y-23238571D01*
X166934285Y-23452857D01*
X167077142Y-23595714D01*
X167220000Y-23667142D01*
X165648571Y-24738571D02*
X165362857Y-24738571D01*
X165220000Y-24667142D01*
X165148571Y-24595714D01*
X165005714Y-24381428D01*
X164934285Y-24095714D01*
X164934285Y-23524285D01*
X165005714Y-23381428D01*
X165077142Y-23310000D01*
X165220000Y-23238571D01*
X165505714Y-23238571D01*
X165648571Y-23310000D01*
X165720000Y-23381428D01*
X165791428Y-23524285D01*
X165791428Y-23881428D01*
X165720000Y-24024285D01*
X165648571Y-24095714D01*
X165505714Y-24167142D01*
X165220000Y-24167142D01*
X165077142Y-24095714D01*
X165005714Y-24024285D01*
X164934285Y-23881428D01*
D11*
G36*
X150266400Y-20349054D02*
G01*
X150255535Y-20462993D01*
X150223918Y-20570616D01*
X150173015Y-20669615D01*
X150104293Y-20757684D01*
X150019219Y-20832516D01*
X149922232Y-20890384D01*
X149815964Y-20930005D01*
X149708950Y-20948573D01*
X149603300Y-20947434D01*
X149501125Y-20927930D01*
X149404534Y-20891406D01*
X149315638Y-20839205D01*
X149236546Y-20772673D01*
X149169369Y-20693152D01*
X149116217Y-20601987D01*
X149079199Y-20500523D01*
X149060427Y-20390102D01*
X149058489Y-20340206D01*
X149058489Y-20252267D01*
X149006560Y-20252267D01*
X148970253Y-20255111D01*
X148943355Y-20266911D01*
X148916249Y-20290649D01*
X148877867Y-20329031D01*
X148877867Y-22520602D01*
X148877876Y-22782739D01*
X148877908Y-23023241D01*
X148877972Y-23243048D01*
X148878076Y-23443101D01*
X148878227Y-23624344D01*
X148878434Y-23787716D01*
X148878706Y-23934160D01*
X148879050Y-24064617D01*
X148879474Y-24180029D01*
X148879987Y-24281338D01*
X148880597Y-24369484D01*
X148881312Y-24445410D01*
X148882140Y-24510057D01*
X148883089Y-24564367D01*
X148884167Y-24609280D01*
X148885383Y-24645740D01*
X148886745Y-24674687D01*
X148888261Y-24697063D01*
X148889938Y-24713809D01*
X148891786Y-24725868D01*
X148893813Y-24734180D01*
X148896025Y-24739687D01*
X148897108Y-24741537D01*
X148901271Y-24748549D01*
X148904805Y-24754996D01*
X148908635Y-24760900D01*
X148913682Y-24766286D01*
X148920871Y-24771178D01*
X148931123Y-24775598D01*
X148945364Y-24779572D01*
X148964514Y-24783121D01*
X148989499Y-24786270D01*
X149021240Y-24789042D01*
X149060662Y-24791461D01*
X149108686Y-24793551D01*
X149166237Y-24795335D01*
X149234237Y-24796837D01*
X149313610Y-24798080D01*
X149405279Y-24799089D01*
X149510166Y-24799885D01*
X149629196Y-24800494D01*
X149763290Y-24800939D01*
X149913373Y-24801243D01*
X150080367Y-24801430D01*
X150265196Y-24801524D01*
X150468783Y-24801548D01*
X150692050Y-24801525D01*
X150935922Y-24801480D01*
X151201321Y-24801437D01*
X151239704Y-24801432D01*
X151506682Y-24801389D01*
X151752002Y-24801318D01*
X151976583Y-24801213D01*
X152181345Y-24801066D01*
X152367206Y-24800869D01*
X152535088Y-24800616D01*
X152685908Y-24800300D01*
X152820587Y-24799913D01*
X152940044Y-24799447D01*
X153045199Y-24798897D01*
X153136971Y-24798253D01*
X153216279Y-24797511D01*
X153284043Y-24796661D01*
X153341182Y-24795697D01*
X153388617Y-24794611D01*
X153427266Y-24793397D01*
X153458049Y-24792047D01*
X153481885Y-24790555D01*
X153499694Y-24788911D01*
X153512395Y-24787111D01*
X153520908Y-24785145D01*
X153525266Y-24783477D01*
X153533728Y-24779906D01*
X153541497Y-24777270D01*
X153548602Y-24774634D01*
X153555073Y-24771062D01*
X153560939Y-24765621D01*
X153566229Y-24757375D01*
X153570974Y-24745390D01*
X153575202Y-24728731D01*
X153578943Y-24706463D01*
X153582227Y-24677652D01*
X153585083Y-24641363D01*
X153587540Y-24596661D01*
X153589629Y-24542611D01*
X153591378Y-24478279D01*
X153592817Y-24402730D01*
X153593976Y-24315030D01*
X153594883Y-24214243D01*
X153595569Y-24099434D01*
X153596063Y-23969670D01*
X153596395Y-23824015D01*
X153596593Y-23661535D01*
X153596687Y-23481295D01*
X153596708Y-23282360D01*
X153596685Y-23063796D01*
X153596646Y-22824668D01*
X153596622Y-22564040D01*
X153596622Y-22521889D01*
X153596636Y-22258992D01*
X153596661Y-22017732D01*
X153596671Y-21797165D01*
X153596642Y-21596352D01*
X153596548Y-21414349D01*
X153596362Y-21250216D01*
X153596059Y-21103011D01*
X153595614Y-20971792D01*
X153595034Y-20861867D01*
X153292197Y-20861867D01*
X153252407Y-20919711D01*
X153241236Y-20935479D01*
X153231166Y-20949441D01*
X153222138Y-20962784D01*
X153214097Y-20976693D01*
X153206986Y-20992356D01*
X153200747Y-21010958D01*
X153195325Y-21033686D01*
X153190662Y-21061727D01*
X153186701Y-21096267D01*
X153183385Y-21138492D01*
X153180659Y-21189589D01*
X153178464Y-21250744D01*
X153176745Y-21323144D01*
X153175444Y-21407975D01*
X153174505Y-21506422D01*
X153173870Y-21619674D01*
X153173484Y-21748916D01*
X153173288Y-21895334D01*
X153173227Y-22060116D01*
X153173243Y-22244447D01*
X153173280Y-22449513D01*
X153173289Y-22572133D01*
X153173265Y-22789082D01*
X153173231Y-22984642D01*
X153173243Y-23159999D01*
X153173358Y-23316341D01*
X153173630Y-23454857D01*
X153174118Y-23576734D01*
X153174876Y-23683160D01*
X153175962Y-23775322D01*
X153177431Y-23854409D01*
X153179340Y-23921608D01*
X153181744Y-23978107D01*
X153184701Y-24025093D01*
X153188266Y-24063755D01*
X153192495Y-24095280D01*
X153197446Y-24120855D01*
X153203173Y-24141670D01*
X153209733Y-24158911D01*
X153217183Y-24173765D01*
X153225579Y-24187422D01*
X153234976Y-24201069D01*
X153245432Y-24215893D01*
X153251523Y-24224783D01*
X153290296Y-24282400D01*
X152758732Y-24282400D01*
X152635483Y-24282365D01*
X152532987Y-24282215D01*
X152449420Y-24281878D01*
X152382956Y-24281286D01*
X152331771Y-24280367D01*
X152294041Y-24279051D01*
X152267940Y-24277269D01*
X152251644Y-24274951D01*
X152243328Y-24272026D01*
X152241168Y-24268424D01*
X152243339Y-24264075D01*
X152244535Y-24262645D01*
X152269685Y-24225573D01*
X152295583Y-24172772D01*
X152319192Y-24110770D01*
X152327461Y-24084357D01*
X152332078Y-24066416D01*
X152335979Y-24045355D01*
X152339248Y-24019089D01*
X152341966Y-23985532D01*
X152344215Y-23942599D01*
X152346077Y-23888204D01*
X152347636Y-23820262D01*
X152348972Y-23736688D01*
X152350169Y-23635395D01*
X152351308Y-23514300D01*
X152351685Y-23469600D01*
X152352702Y-23344449D01*
X152353460Y-23240082D01*
X152353903Y-23154707D01*
X152353970Y-23086533D01*
X152353605Y-23033765D01*
X152352748Y-22994614D01*
X152351341Y-22967285D01*
X152349325Y-22949986D01*
X152346643Y-22940926D01*
X152343236Y-22938312D01*
X152339044Y-22940351D01*
X152334571Y-22944667D01*
X152324216Y-22957602D01*
X152302158Y-22986676D01*
X152269957Y-23029759D01*
X152229174Y-23084718D01*
X152181370Y-23149423D01*
X152128105Y-23221742D01*
X152070940Y-23299544D01*
X152011437Y-23380698D01*
X151951155Y-23463072D01*
X151891655Y-23544536D01*
X151834498Y-23622957D01*
X151781245Y-23696204D01*
X151733457Y-23762147D01*
X151692693Y-23818654D01*
X151660516Y-23863593D01*
X151638485Y-23894834D01*
X151633917Y-23901466D01*
X151610996Y-23938369D01*
X151584188Y-23986359D01*
X151558789Y-24035897D01*
X151555568Y-24042577D01*
X151533890Y-24090772D01*
X151521304Y-24128334D01*
X151515574Y-24164160D01*
X151514456Y-24206200D01*
X151515090Y-24282400D01*
X150360651Y-24282400D01*
X150451815Y-24188669D01*
X150498612Y-24138775D01*
X150548899Y-24082295D01*
X150594944Y-24028026D01*
X150615369Y-24002673D01*
X150645807Y-23963128D01*
X150685862Y-23909916D01*
X150734361Y-23844667D01*
X150790135Y-23769011D01*
X150852011Y-23684577D01*
X150918819Y-23592994D01*
X150989387Y-23495892D01*
X151062545Y-23394901D01*
X151137121Y-23291650D01*
X151211944Y-23187768D01*
X151285843Y-23084885D01*
X151357646Y-22984631D01*
X151426184Y-22888636D01*
X151490284Y-22798527D01*
X151548775Y-22715936D01*
X151600486Y-22642492D01*
X151644247Y-22579824D01*
X151678885Y-22529561D01*
X151703230Y-22493334D01*
X151716111Y-22472771D01*
X151717869Y-22468668D01*
X151709910Y-22457342D01*
X151689115Y-22430162D01*
X151656847Y-22388829D01*
X151614470Y-22335044D01*
X151563347Y-22270506D01*
X151504841Y-22196918D01*
X151440314Y-22115978D01*
X151371131Y-22029388D01*
X151298653Y-21938848D01*
X151224246Y-21846060D01*
X151164517Y-21771702D01*
X150153511Y-21771702D01*
X150147602Y-21784659D01*
X150133272Y-21806908D01*
X150132225Y-21808391D01*
X150113438Y-21838544D01*
X150093791Y-21875375D01*
X150089892Y-21883511D01*
X150086356Y-21891940D01*
X150083230Y-21902059D01*
X150080486Y-21915260D01*
X150078092Y-21932938D01*
X150076019Y-21956484D01*
X150074235Y-21987293D01*
X150072712Y-22026757D01*
X150071419Y-22076269D01*
X150070326Y-22137223D01*
X150069403Y-22211011D01*
X150068619Y-22299028D01*
X150067945Y-22402665D01*
X150067350Y-22523316D01*
X150066805Y-22662374D01*
X150066279Y-22821232D01*
X150065745Y-23000089D01*
X150065206Y-23185207D01*
X150064772Y-23349145D01*
X150064509Y-23493303D01*
X150064484Y-23619079D01*
X150064765Y-23727871D01*
X150065419Y-23821077D01*
X150066514Y-23900097D01*
X150068118Y-23966328D01*
X150070297Y-24021170D01*
X150073119Y-24066021D01*
X150076651Y-24102278D01*
X150080961Y-24131341D01*
X150086117Y-24154609D01*
X150092185Y-24173479D01*
X150099233Y-24189351D01*
X150107329Y-24203622D01*
X150116540Y-24217691D01*
X150125040Y-24230158D01*
X150142176Y-24256452D01*
X150152322Y-24274037D01*
X150153511Y-24277257D01*
X150142604Y-24278334D01*
X150111411Y-24279335D01*
X150062223Y-24280235D01*
X149997333Y-24281010D01*
X149919030Y-24281637D01*
X149829607Y-24282091D01*
X149731356Y-24282349D01*
X149662445Y-24282400D01*
X149557452Y-24282180D01*
X149460610Y-24281548D01*
X149374107Y-24280549D01*
X149300132Y-24279227D01*
X149240874Y-24277626D01*
X149198520Y-24275791D01*
X149175260Y-24273765D01*
X149171378Y-24272493D01*
X149179076Y-24257591D01*
X149187074Y-24249560D01*
X149200246Y-24232434D01*
X149217485Y-24202183D01*
X149229407Y-24177622D01*
X149256045Y-24118711D01*
X149259120Y-22941845D01*
X149262195Y-21764978D01*
X149707853Y-21764978D01*
X149805670Y-21765142D01*
X149896064Y-21765611D01*
X149976630Y-21766347D01*
X150044962Y-21767316D01*
X150098656Y-21768480D01*
X150135305Y-21769803D01*
X150152504Y-21771249D01*
X150153511Y-21771702D01*
X151164517Y-21771702D01*
X151149270Y-21752722D01*
X151075090Y-21660537D01*
X151003069Y-21571204D01*
X150934569Y-21486424D01*
X150870955Y-21407898D01*
X150813588Y-21337326D01*
X150763833Y-21276409D01*
X150723052Y-21226847D01*
X150705888Y-21206178D01*
X150619596Y-21105516D01*
X150542997Y-21022259D01*
X150474183Y-20954438D01*
X150411248Y-20900089D01*
X150401867Y-20892722D01*
X150362356Y-20862117D01*
X151494116Y-20861867D01*
X151488827Y-20909844D01*
X151492130Y-20967188D01*
X151513661Y-21035463D01*
X151553635Y-21115212D01*
X151598943Y-21187495D01*
X151615161Y-21210140D01*
X151643214Y-21247696D01*
X151681430Y-21298021D01*
X151728137Y-21358973D01*
X151781661Y-21428411D01*
X151840331Y-21504194D01*
X151902475Y-21584180D01*
X151966421Y-21666228D01*
X152030495Y-21748196D01*
X152093027Y-21827943D01*
X152152343Y-21903327D01*
X152206771Y-21972207D01*
X152254639Y-22032442D01*
X152294275Y-22081889D01*
X152324006Y-22118408D01*
X152342161Y-22139858D01*
X152345220Y-22143156D01*
X152348079Y-22135149D01*
X152350293Y-22104855D01*
X152351857Y-22052556D01*
X152352767Y-21978531D01*
X152353020Y-21883063D01*
X152352613Y-21766434D01*
X152351704Y-21646445D01*
X152350382Y-21514333D01*
X152348857Y-21402594D01*
X152346881Y-21309025D01*
X152344206Y-21231419D01*
X152340582Y-21167574D01*
X152335761Y-21115283D01*
X152329494Y-21072344D01*
X152321532Y-21036551D01*
X152311627Y-21005700D01*
X152299531Y-20977586D01*
X152284993Y-20950005D01*
X152270311Y-20924966D01*
X152232314Y-20861867D01*
X153292197Y-20861867D01*
X153595034Y-20861867D01*
X153595001Y-20855617D01*
X153594195Y-20753544D01*
X153593170Y-20664633D01*
X153591900Y-20587941D01*
X153590360Y-20522527D01*
X153588524Y-20467449D01*
X153586367Y-20421765D01*
X153583863Y-20384534D01*
X153580987Y-20354813D01*
X153577713Y-20331662D01*
X153574015Y-20314139D01*
X153569869Y-20301301D01*
X153565247Y-20292208D01*
X153560126Y-20285918D01*
X153554478Y-20281488D01*
X153548279Y-20277978D01*
X153541504Y-20274445D01*
X153535508Y-20270876D01*
X153530275Y-20268300D01*
X153522099Y-20265972D01*
X153509886Y-20263878D01*
X153492541Y-20262007D01*
X153468969Y-20260347D01*
X153438077Y-20258884D01*
X153398768Y-20257608D01*
X153349950Y-20256504D01*
X153290527Y-20255561D01*
X153219404Y-20254767D01*
X153135488Y-20254109D01*
X153037683Y-20253575D01*
X152924894Y-20253153D01*
X152796029Y-20252829D01*
X152649991Y-20252592D01*
X152485686Y-20252430D01*
X152302020Y-20252330D01*
X152097897Y-20252280D01*
X151886753Y-20252267D01*
X150266400Y-20252267D01*
X150266400Y-20349054D01*
X150266400Y-20349054D01*
G37*
X150266400Y-20349054D02*
X150255535Y-20462993D01*
X150223918Y-20570616D01*
X150173015Y-20669615D01*
X150104293Y-20757684D01*
X150019219Y-20832516D01*
X149922232Y-20890384D01*
X149815964Y-20930005D01*
X149708950Y-20948573D01*
X149603300Y-20947434D01*
X149501125Y-20927930D01*
X149404534Y-20891406D01*
X149315638Y-20839205D01*
X149236546Y-20772673D01*
X149169369Y-20693152D01*
X149116217Y-20601987D01*
X149079199Y-20500523D01*
X149060427Y-20390102D01*
X149058489Y-20340206D01*
X149058489Y-20252267D01*
X149006560Y-20252267D01*
X148970253Y-20255111D01*
X148943355Y-20266911D01*
X148916249Y-20290649D01*
X148877867Y-20329031D01*
X148877867Y-22520602D01*
X148877876Y-22782739D01*
X148877908Y-23023241D01*
X148877972Y-23243048D01*
X148878076Y-23443101D01*
X148878227Y-23624344D01*
X148878434Y-23787716D01*
X148878706Y-23934160D01*
X148879050Y-24064617D01*
X148879474Y-24180029D01*
X148879987Y-24281338D01*
X148880597Y-24369484D01*
X148881312Y-24445410D01*
X148882140Y-24510057D01*
X148883089Y-24564367D01*
X148884167Y-24609280D01*
X148885383Y-24645740D01*
X148886745Y-24674687D01*
X148888261Y-24697063D01*
X148889938Y-24713809D01*
X148891786Y-24725868D01*
X148893813Y-24734180D01*
X148896025Y-24739687D01*
X148897108Y-24741537D01*
X148901271Y-24748549D01*
X148904805Y-24754996D01*
X148908635Y-24760900D01*
X148913682Y-24766286D01*
X148920871Y-24771178D01*
X148931123Y-24775598D01*
X148945364Y-24779572D01*
X148964514Y-24783121D01*
X148989499Y-24786270D01*
X149021240Y-24789042D01*
X149060662Y-24791461D01*
X149108686Y-24793551D01*
X149166237Y-24795335D01*
X149234237Y-24796837D01*
X149313610Y-24798080D01*
X149405279Y-24799089D01*
X149510166Y-24799885D01*
X149629196Y-24800494D01*
X149763290Y-24800939D01*
X149913373Y-24801243D01*
X150080367Y-24801430D01*
X150265196Y-24801524D01*
X150468783Y-24801548D01*
X150692050Y-24801525D01*
X150935922Y-24801480D01*
X151201321Y-24801437D01*
X151239704Y-24801432D01*
X151506682Y-24801389D01*
X151752002Y-24801318D01*
X151976583Y-24801213D01*
X152181345Y-24801066D01*
X152367206Y-24800869D01*
X152535088Y-24800616D01*
X152685908Y-24800300D01*
X152820587Y-24799913D01*
X152940044Y-24799447D01*
X153045199Y-24798897D01*
X153136971Y-24798253D01*
X153216279Y-24797511D01*
X153284043Y-24796661D01*
X153341182Y-24795697D01*
X153388617Y-24794611D01*
X153427266Y-24793397D01*
X153458049Y-24792047D01*
X153481885Y-24790555D01*
X153499694Y-24788911D01*
X153512395Y-24787111D01*
X153520908Y-24785145D01*
X153525266Y-24783477D01*
X153533728Y-24779906D01*
X153541497Y-24777270D01*
X153548602Y-24774634D01*
X153555073Y-24771062D01*
X153560939Y-24765621D01*
X153566229Y-24757375D01*
X153570974Y-24745390D01*
X153575202Y-24728731D01*
X153578943Y-24706463D01*
X153582227Y-24677652D01*
X153585083Y-24641363D01*
X153587540Y-24596661D01*
X153589629Y-24542611D01*
X153591378Y-24478279D01*
X153592817Y-24402730D01*
X153593976Y-24315030D01*
X153594883Y-24214243D01*
X153595569Y-24099434D01*
X153596063Y-23969670D01*
X153596395Y-23824015D01*
X153596593Y-23661535D01*
X153596687Y-23481295D01*
X153596708Y-23282360D01*
X153596685Y-23063796D01*
X153596646Y-22824668D01*
X153596622Y-22564040D01*
X153596622Y-22521889D01*
X153596636Y-22258992D01*
X153596661Y-22017732D01*
X153596671Y-21797165D01*
X153596642Y-21596352D01*
X153596548Y-21414349D01*
X153596362Y-21250216D01*
X153596059Y-21103011D01*
X153595614Y-20971792D01*
X153595034Y-20861867D01*
X153292197Y-20861867D01*
X153252407Y-20919711D01*
X153241236Y-20935479D01*
X153231166Y-20949441D01*
X153222138Y-20962784D01*
X153214097Y-20976693D01*
X153206986Y-20992356D01*
X153200747Y-21010958D01*
X153195325Y-21033686D01*
X153190662Y-21061727D01*
X153186701Y-21096267D01*
X153183385Y-21138492D01*
X153180659Y-21189589D01*
X153178464Y-21250744D01*
X153176745Y-21323144D01*
X153175444Y-21407975D01*
X153174505Y-21506422D01*
X153173870Y-21619674D01*
X153173484Y-21748916D01*
X153173288Y-21895334D01*
X153173227Y-22060116D01*
X153173243Y-22244447D01*
X153173280Y-22449513D01*
X153173289Y-22572133D01*
X153173265Y-22789082D01*
X153173231Y-22984642D01*
X153173243Y-23159999D01*
X153173358Y-23316341D01*
X153173630Y-23454857D01*
X153174118Y-23576734D01*
X153174876Y-23683160D01*
X153175962Y-23775322D01*
X153177431Y-23854409D01*
X153179340Y-23921608D01*
X153181744Y-23978107D01*
X153184701Y-24025093D01*
X153188266Y-24063755D01*
X153192495Y-24095280D01*
X153197446Y-24120855D01*
X153203173Y-24141670D01*
X153209733Y-24158911D01*
X153217183Y-24173765D01*
X153225579Y-24187422D01*
X153234976Y-24201069D01*
X153245432Y-24215893D01*
X153251523Y-24224783D01*
X153290296Y-24282400D01*
X152758732Y-24282400D01*
X152635483Y-24282365D01*
X152532987Y-24282215D01*
X152449420Y-24281878D01*
X152382956Y-24281286D01*
X152331771Y-24280367D01*
X152294041Y-24279051D01*
X152267940Y-24277269D01*
X152251644Y-24274951D01*
X152243328Y-24272026D01*
X152241168Y-24268424D01*
X152243339Y-24264075D01*
X152244535Y-24262645D01*
X152269685Y-24225573D01*
X152295583Y-24172772D01*
X152319192Y-24110770D01*
X152327461Y-24084357D01*
X152332078Y-24066416D01*
X152335979Y-24045355D01*
X152339248Y-24019089D01*
X152341966Y-23985532D01*
X152344215Y-23942599D01*
X152346077Y-23888204D01*
X152347636Y-23820262D01*
X152348972Y-23736688D01*
X152350169Y-23635395D01*
X152351308Y-23514300D01*
X152351685Y-23469600D01*
X152352702Y-23344449D01*
X152353460Y-23240082D01*
X152353903Y-23154707D01*
X152353970Y-23086533D01*
X152353605Y-23033765D01*
X152352748Y-22994614D01*
X152351341Y-22967285D01*
X152349325Y-22949986D01*
X152346643Y-22940926D01*
X152343236Y-22938312D01*
X152339044Y-22940351D01*
X152334571Y-22944667D01*
X152324216Y-22957602D01*
X152302158Y-22986676D01*
X152269957Y-23029759D01*
X152229174Y-23084718D01*
X152181370Y-23149423D01*
X152128105Y-23221742D01*
X152070940Y-23299544D01*
X152011437Y-23380698D01*
X151951155Y-23463072D01*
X151891655Y-23544536D01*
X151834498Y-23622957D01*
X151781245Y-23696204D01*
X151733457Y-23762147D01*
X151692693Y-23818654D01*
X151660516Y-23863593D01*
X151638485Y-23894834D01*
X151633917Y-23901466D01*
X151610996Y-23938369D01*
X151584188Y-23986359D01*
X151558789Y-24035897D01*
X151555568Y-24042577D01*
X151533890Y-24090772D01*
X151521304Y-24128334D01*
X151515574Y-24164160D01*
X151514456Y-24206200D01*
X151515090Y-24282400D01*
X150360651Y-24282400D01*
X150451815Y-24188669D01*
X150498612Y-24138775D01*
X150548899Y-24082295D01*
X150594944Y-24028026D01*
X150615369Y-24002673D01*
X150645807Y-23963128D01*
X150685862Y-23909916D01*
X150734361Y-23844667D01*
X150790135Y-23769011D01*
X150852011Y-23684577D01*
X150918819Y-23592994D01*
X150989387Y-23495892D01*
X151062545Y-23394901D01*
X151137121Y-23291650D01*
X151211944Y-23187768D01*
X151285843Y-23084885D01*
X151357646Y-22984631D01*
X151426184Y-22888636D01*
X151490284Y-22798527D01*
X151548775Y-22715936D01*
X151600486Y-22642492D01*
X151644247Y-22579824D01*
X151678885Y-22529561D01*
X151703230Y-22493334D01*
X151716111Y-22472771D01*
X151717869Y-22468668D01*
X151709910Y-22457342D01*
X151689115Y-22430162D01*
X151656847Y-22388829D01*
X151614470Y-22335044D01*
X151563347Y-22270506D01*
X151504841Y-22196918D01*
X151440314Y-22115978D01*
X151371131Y-22029388D01*
X151298653Y-21938848D01*
X151224246Y-21846060D01*
X151164517Y-21771702D01*
X150153511Y-21771702D01*
X150147602Y-21784659D01*
X150133272Y-21806908D01*
X150132225Y-21808391D01*
X150113438Y-21838544D01*
X150093791Y-21875375D01*
X150089892Y-21883511D01*
X150086356Y-21891940D01*
X150083230Y-21902059D01*
X150080486Y-21915260D01*
X150078092Y-21932938D01*
X150076019Y-21956484D01*
X150074235Y-21987293D01*
X150072712Y-22026757D01*
X150071419Y-22076269D01*
X150070326Y-22137223D01*
X150069403Y-22211011D01*
X150068619Y-22299028D01*
X150067945Y-22402665D01*
X150067350Y-22523316D01*
X150066805Y-22662374D01*
X150066279Y-22821232D01*
X150065745Y-23000089D01*
X150065206Y-23185207D01*
X150064772Y-23349145D01*
X150064509Y-23493303D01*
X150064484Y-23619079D01*
X150064765Y-23727871D01*
X150065419Y-23821077D01*
X150066514Y-23900097D01*
X150068118Y-23966328D01*
X150070297Y-24021170D01*
X150073119Y-24066021D01*
X150076651Y-24102278D01*
X150080961Y-24131341D01*
X150086117Y-24154609D01*
X150092185Y-24173479D01*
X150099233Y-24189351D01*
X150107329Y-24203622D01*
X150116540Y-24217691D01*
X150125040Y-24230158D01*
X150142176Y-24256452D01*
X150152322Y-24274037D01*
X150153511Y-24277257D01*
X150142604Y-24278334D01*
X150111411Y-24279335D01*
X150062223Y-24280235D01*
X149997333Y-24281010D01*
X149919030Y-24281637D01*
X149829607Y-24282091D01*
X149731356Y-24282349D01*
X149662445Y-24282400D01*
X149557452Y-24282180D01*
X149460610Y-24281548D01*
X149374107Y-24280549D01*
X149300132Y-24279227D01*
X149240874Y-24277626D01*
X149198520Y-24275791D01*
X149175260Y-24273765D01*
X149171378Y-24272493D01*
X149179076Y-24257591D01*
X149187074Y-24249560D01*
X149200246Y-24232434D01*
X149217485Y-24202183D01*
X149229407Y-24177622D01*
X149256045Y-24118711D01*
X149259120Y-22941845D01*
X149262195Y-21764978D01*
X149707853Y-21764978D01*
X149805670Y-21765142D01*
X149896064Y-21765611D01*
X149976630Y-21766347D01*
X150044962Y-21767316D01*
X150098656Y-21768480D01*
X150135305Y-21769803D01*
X150152504Y-21771249D01*
X150153511Y-21771702D01*
X151164517Y-21771702D01*
X151149270Y-21752722D01*
X151075090Y-21660537D01*
X151003069Y-21571204D01*
X150934569Y-21486424D01*
X150870955Y-21407898D01*
X150813588Y-21337326D01*
X150763833Y-21276409D01*
X150723052Y-21226847D01*
X150705888Y-21206178D01*
X150619596Y-21105516D01*
X150542997Y-21022259D01*
X150474183Y-20954438D01*
X150411248Y-20900089D01*
X150401867Y-20892722D01*
X150362356Y-20862117D01*
X151494116Y-20861867D01*
X151488827Y-20909844D01*
X151492130Y-20967188D01*
X151513661Y-21035463D01*
X151553635Y-21115212D01*
X151598943Y-21187495D01*
X151615161Y-21210140D01*
X151643214Y-21247696D01*
X151681430Y-21298021D01*
X151728137Y-21358973D01*
X151781661Y-21428411D01*
X151840331Y-21504194D01*
X151902475Y-21584180D01*
X151966421Y-21666228D01*
X152030495Y-21748196D01*
X152093027Y-21827943D01*
X152152343Y-21903327D01*
X152206771Y-21972207D01*
X152254639Y-22032442D01*
X152294275Y-22081889D01*
X152324006Y-22118408D01*
X152342161Y-22139858D01*
X152345220Y-22143156D01*
X152348079Y-22135149D01*
X152350293Y-22104855D01*
X152351857Y-22052556D01*
X152352767Y-21978531D01*
X152353020Y-21883063D01*
X152352613Y-21766434D01*
X152351704Y-21646445D01*
X152350382Y-21514333D01*
X152348857Y-21402594D01*
X152346881Y-21309025D01*
X152344206Y-21231419D01*
X152340582Y-21167574D01*
X152335761Y-21115283D01*
X152329494Y-21072344D01*
X152321532Y-21036551D01*
X152311627Y-21005700D01*
X152299531Y-20977586D01*
X152284993Y-20950005D01*
X152270311Y-20924966D01*
X152232314Y-20861867D01*
X153292197Y-20861867D01*
X153595034Y-20861867D01*
X153595001Y-20855617D01*
X153594195Y-20753544D01*
X153593170Y-20664633D01*
X153591900Y-20587941D01*
X153590360Y-20522527D01*
X153588524Y-20467449D01*
X153586367Y-20421765D01*
X153583863Y-20384534D01*
X153580987Y-20354813D01*
X153577713Y-20331662D01*
X153574015Y-20314139D01*
X153569869Y-20301301D01*
X153565247Y-20292208D01*
X153560126Y-20285918D01*
X153554478Y-20281488D01*
X153548279Y-20277978D01*
X153541504Y-20274445D01*
X153535508Y-20270876D01*
X153530275Y-20268300D01*
X153522099Y-20265972D01*
X153509886Y-20263878D01*
X153492541Y-20262007D01*
X153468969Y-20260347D01*
X153438077Y-20258884D01*
X153398768Y-20257608D01*
X153349950Y-20256504D01*
X153290527Y-20255561D01*
X153219404Y-20254767D01*
X153135488Y-20254109D01*
X153037683Y-20253575D01*
X152924894Y-20253153D01*
X152796029Y-20252829D01*
X152649991Y-20252592D01*
X152485686Y-20252430D01*
X152302020Y-20252330D01*
X152097897Y-20252280D01*
X151886753Y-20252267D01*
X150266400Y-20252267D01*
X150266400Y-20349054D01*
G36*
X146991571Y-20809071D02*
G01*
X146831430Y-20830245D01*
X146667490Y-20870385D01*
X146497687Y-20929889D01*
X146319957Y-21009154D01*
X146308690Y-21014699D01*
X146250995Y-21042725D01*
X146199448Y-21066802D01*
X146157809Y-21085249D01*
X146129838Y-21096386D01*
X146120267Y-21098933D01*
X146101050Y-21103941D01*
X146096439Y-21108147D01*
X146101542Y-21118580D01*
X146117582Y-21144868D01*
X146142712Y-21184257D01*
X146175086Y-21233991D01*
X146212857Y-21291315D01*
X146254178Y-21353476D01*
X146297202Y-21417718D01*
X146340083Y-21481285D01*
X146380974Y-21541425D01*
X146418029Y-21595380D01*
X146449400Y-21640397D01*
X146473241Y-21673721D01*
X146487706Y-21692597D01*
X146489691Y-21694787D01*
X146499809Y-21690138D01*
X146522150Y-21672962D01*
X146552720Y-21646440D01*
X146568464Y-21631964D01*
X146664953Y-21556682D01*
X146771664Y-21501241D01*
X146887168Y-21466141D01*
X147010038Y-21451880D01*
X147079439Y-21453051D01*
X147200577Y-21470212D01*
X147309795Y-21506094D01*
X147407418Y-21560959D01*
X147493772Y-21635070D01*
X147569185Y-21728688D01*
X147633982Y-21842076D01*
X147671399Y-21928667D01*
X147715252Y-22064366D01*
X147747572Y-22211850D01*
X147768443Y-22367314D01*
X147777949Y-22526956D01*
X147776173Y-22686973D01*
X147763197Y-22843561D01*
X147739106Y-22992918D01*
X147703982Y-23131240D01*
X147657908Y-23254724D01*
X147641627Y-23288978D01*
X147573380Y-23403064D01*
X147492921Y-23499557D01*
X147401430Y-23577670D01*
X147300089Y-23636617D01*
X147190080Y-23675612D01*
X147072585Y-23693868D01*
X147031117Y-23695211D01*
X146909559Y-23684290D01*
X146789122Y-23651474D01*
X146671334Y-23597439D01*
X146557723Y-23522865D01*
X146466315Y-23444539D01*
X146419785Y-23400008D01*
X146238517Y-23697271D01*
X146193420Y-23771433D01*
X146152181Y-23839646D01*
X146116265Y-23899459D01*
X146087134Y-23948420D01*
X146066250Y-23984079D01*
X146055076Y-24003984D01*
X146053625Y-24007079D01*
X146061854Y-24016718D01*
X146087433Y-24033999D01*
X146127127Y-24057283D01*
X146177703Y-24084934D01*
X146235926Y-24115315D01*
X146298563Y-24146790D01*
X146362379Y-24177722D01*
X146424140Y-24206473D01*
X146480612Y-24231408D01*
X146528562Y-24250889D01*
X146552014Y-24259318D01*
X146685779Y-24297133D01*
X146823673Y-24322136D01*
X146971378Y-24335140D01*
X147098167Y-24337468D01*
X147166122Y-24336373D01*
X147231723Y-24334275D01*
X147289153Y-24331434D01*
X147332597Y-24328106D01*
X147346702Y-24326422D01*
X147485716Y-24297587D01*
X147627243Y-24252468D01*
X147764725Y-24193750D01*
X147891606Y-24124120D01*
X147969111Y-24071441D01*
X148096519Y-23963239D01*
X148214822Y-23836671D01*
X148321828Y-23694866D01*
X148415348Y-23540951D01*
X148493190Y-23378053D01*
X148537044Y-23260756D01*
X148587292Y-23077128D01*
X148620791Y-22882581D01*
X148637551Y-22681325D01*
X148637584Y-22477568D01*
X148620899Y-22275521D01*
X148587507Y-22079392D01*
X148537420Y-21893391D01*
X148533603Y-21881803D01*
X148470719Y-21719750D01*
X148393972Y-21571832D01*
X148300758Y-21433865D01*
X148188473Y-21301661D01*
X148144608Y-21256399D01*
X148008466Y-21132457D01*
X147868509Y-21029915D01*
X147722589Y-20947656D01*
X147568558Y-20884564D01*
X147404268Y-20839523D01*
X147308711Y-20822033D01*
X147149977Y-20806466D01*
X146991571Y-20809071D01*
X146991571Y-20809071D01*
G37*
X146991571Y-20809071D02*
X146831430Y-20830245D01*
X146667490Y-20870385D01*
X146497687Y-20929889D01*
X146319957Y-21009154D01*
X146308690Y-21014699D01*
X146250995Y-21042725D01*
X146199448Y-21066802D01*
X146157809Y-21085249D01*
X146129838Y-21096386D01*
X146120267Y-21098933D01*
X146101050Y-21103941D01*
X146096439Y-21108147D01*
X146101542Y-21118580D01*
X146117582Y-21144868D01*
X146142712Y-21184257D01*
X146175086Y-21233991D01*
X146212857Y-21291315D01*
X146254178Y-21353476D01*
X146297202Y-21417718D01*
X146340083Y-21481285D01*
X146380974Y-21541425D01*
X146418029Y-21595380D01*
X146449400Y-21640397D01*
X146473241Y-21673721D01*
X146487706Y-21692597D01*
X146489691Y-21694787D01*
X146499809Y-21690138D01*
X146522150Y-21672962D01*
X146552720Y-21646440D01*
X146568464Y-21631964D01*
X146664953Y-21556682D01*
X146771664Y-21501241D01*
X146887168Y-21466141D01*
X147010038Y-21451880D01*
X147079439Y-21453051D01*
X147200577Y-21470212D01*
X147309795Y-21506094D01*
X147407418Y-21560959D01*
X147493772Y-21635070D01*
X147569185Y-21728688D01*
X147633982Y-21842076D01*
X147671399Y-21928667D01*
X147715252Y-22064366D01*
X147747572Y-22211850D01*
X147768443Y-22367314D01*
X147777949Y-22526956D01*
X147776173Y-22686973D01*
X147763197Y-22843561D01*
X147739106Y-22992918D01*
X147703982Y-23131240D01*
X147657908Y-23254724D01*
X147641627Y-23288978D01*
X147573380Y-23403064D01*
X147492921Y-23499557D01*
X147401430Y-23577670D01*
X147300089Y-23636617D01*
X147190080Y-23675612D01*
X147072585Y-23693868D01*
X147031117Y-23695211D01*
X146909559Y-23684290D01*
X146789122Y-23651474D01*
X146671334Y-23597439D01*
X146557723Y-23522865D01*
X146466315Y-23444539D01*
X146419785Y-23400008D01*
X146238517Y-23697271D01*
X146193420Y-23771433D01*
X146152181Y-23839646D01*
X146116265Y-23899459D01*
X146087134Y-23948420D01*
X146066250Y-23984079D01*
X146055076Y-24003984D01*
X146053625Y-24007079D01*
X146061854Y-24016718D01*
X146087433Y-24033999D01*
X146127127Y-24057283D01*
X146177703Y-24084934D01*
X146235926Y-24115315D01*
X146298563Y-24146790D01*
X146362379Y-24177722D01*
X146424140Y-24206473D01*
X146480612Y-24231408D01*
X146528562Y-24250889D01*
X146552014Y-24259318D01*
X146685779Y-24297133D01*
X146823673Y-24322136D01*
X146971378Y-24335140D01*
X147098167Y-24337468D01*
X147166122Y-24336373D01*
X147231723Y-24334275D01*
X147289153Y-24331434D01*
X147332597Y-24328106D01*
X147346702Y-24326422D01*
X147485716Y-24297587D01*
X147627243Y-24252468D01*
X147764725Y-24193750D01*
X147891606Y-24124120D01*
X147969111Y-24071441D01*
X148096519Y-23963239D01*
X148214822Y-23836671D01*
X148321828Y-23694866D01*
X148415348Y-23540951D01*
X148493190Y-23378053D01*
X148537044Y-23260756D01*
X148587292Y-23077128D01*
X148620791Y-22882581D01*
X148637551Y-22681325D01*
X148637584Y-22477568D01*
X148620899Y-22275521D01*
X148587507Y-22079392D01*
X148537420Y-21893391D01*
X148533603Y-21881803D01*
X148470719Y-21719750D01*
X148393972Y-21571832D01*
X148300758Y-21433865D01*
X148188473Y-21301661D01*
X148144608Y-21256399D01*
X148008466Y-21132457D01*
X147868509Y-21029915D01*
X147722589Y-20947656D01*
X147568558Y-20884564D01*
X147404268Y-20839523D01*
X147308711Y-20822033D01*
X147149977Y-20806466D01*
X146991571Y-20809071D01*
G36*
X144646426Y-21726552D02*
G01*
X144494508Y-21746567D01*
X144359244Y-21780202D01*
X144239761Y-21827725D01*
X144135185Y-21889405D01*
X144057576Y-21952965D01*
X143988735Y-22027099D01*
X143934994Y-22106871D01*
X143892090Y-22199091D01*
X143876616Y-22242161D01*
X143863756Y-22281142D01*
X143852554Y-22317289D01*
X143842880Y-22352434D01*
X143834604Y-22388410D01*
X143827597Y-22427050D01*
X143821728Y-22470185D01*
X143816869Y-22519649D01*
X143812890Y-22577273D01*
X143809660Y-22644891D01*
X143807051Y-22724334D01*
X143804933Y-22817436D01*
X143803176Y-22926027D01*
X143801651Y-23051942D01*
X143800228Y-23197012D01*
X143798975Y-23339778D01*
X143797649Y-23495968D01*
X143796444Y-23631239D01*
X143795234Y-23747246D01*
X143793894Y-23845645D01*
X143792300Y-23928093D01*
X143790325Y-23996246D01*
X143787844Y-24051760D01*
X143784731Y-24096292D01*
X143780862Y-24131498D01*
X143776111Y-24159034D01*
X143770352Y-24180556D01*
X143763461Y-24197722D01*
X143755311Y-24212186D01*
X143745777Y-24225606D01*
X143734734Y-24239638D01*
X143730434Y-24245071D01*
X143714614Y-24267910D01*
X143707578Y-24283463D01*
X143707556Y-24283922D01*
X143718433Y-24286121D01*
X143749418Y-24288147D01*
X143798043Y-24289942D01*
X143861837Y-24291451D01*
X143938331Y-24292616D01*
X144025056Y-24293380D01*
X144119543Y-24293686D01*
X144130450Y-24293689D01*
X144553343Y-24293689D01*
X144556605Y-24197622D01*
X144559867Y-24101556D01*
X144621956Y-24152543D01*
X144719286Y-24220057D01*
X144829187Y-24274749D01*
X144915651Y-24304978D01*
X144984722Y-24319666D01*
X145068075Y-24329659D01*
X145157841Y-24334646D01*
X145246155Y-24334313D01*
X145325149Y-24328351D01*
X145361378Y-24322638D01*
X145501397Y-24284776D01*
X145627822Y-24229932D01*
X145739740Y-24158924D01*
X145836238Y-24072568D01*
X145916400Y-23971679D01*
X145979313Y-23857076D01*
X146023688Y-23730984D01*
X146036022Y-23674401D01*
X146043632Y-23612202D01*
X146047261Y-23537363D01*
X146047755Y-23503467D01*
X146047690Y-23500282D01*
X145287752Y-23500282D01*
X145278459Y-23575333D01*
X145250272Y-23639160D01*
X145201803Y-23694798D01*
X145196746Y-23699211D01*
X145148452Y-23734037D01*
X145096743Y-23756620D01*
X145036011Y-23768540D01*
X144960648Y-23771383D01*
X144942541Y-23770978D01*
X144888722Y-23768325D01*
X144848692Y-23762909D01*
X144813676Y-23752745D01*
X144774897Y-23735850D01*
X144764255Y-23730672D01*
X144703604Y-23694844D01*
X144656785Y-23652212D01*
X144644048Y-23636973D01*
X144599378Y-23580462D01*
X144599378Y-23384586D01*
X144599914Y-23305939D01*
X144601604Y-23247988D01*
X144604572Y-23208875D01*
X144608943Y-23186741D01*
X144613028Y-23180274D01*
X144628953Y-23177111D01*
X144662736Y-23174488D01*
X144709660Y-23172655D01*
X144765007Y-23171857D01*
X144773894Y-23171842D01*
X144894670Y-23177096D01*
X144997340Y-23193263D01*
X145083894Y-23220961D01*
X145156319Y-23260808D01*
X145211249Y-23307758D01*
X145255796Y-23365645D01*
X145280520Y-23428693D01*
X145287752Y-23500282D01*
X146047690Y-23500282D01*
X146045822Y-23409712D01*
X146037478Y-23330812D01*
X146021232Y-23259590D01*
X145995595Y-23188864D01*
X145971599Y-23136493D01*
X145912980Y-23041196D01*
X145834883Y-22953170D01*
X145739685Y-22874017D01*
X145629762Y-22805340D01*
X145507490Y-22748741D01*
X145375245Y-22705821D01*
X145310578Y-22690882D01*
X145174396Y-22668777D01*
X145025951Y-22654194D01*
X144874495Y-22647813D01*
X144747936Y-22649445D01*
X144586050Y-22656224D01*
X144593470Y-22597245D01*
X144612762Y-22498092D01*
X144643896Y-22417372D01*
X144687731Y-22354466D01*
X144745129Y-22308756D01*
X144816952Y-22279622D01*
X144904059Y-22266447D01*
X145007314Y-22268611D01*
X145045289Y-22272612D01*
X145186480Y-22297780D01*
X145323293Y-22338814D01*
X145417822Y-22376815D01*
X145462982Y-22396190D01*
X145501415Y-22411760D01*
X145527766Y-22421405D01*
X145535454Y-22423452D01*
X145545198Y-22414374D01*
X145561917Y-22385405D01*
X145585768Y-22336217D01*
X145616907Y-22266484D01*
X145655493Y-22175879D01*
X145662090Y-22160089D01*
X145692147Y-22087772D01*
X145719126Y-22022425D01*
X145741864Y-21966906D01*
X145759194Y-21924072D01*
X145769952Y-21896781D01*
X145773059Y-21887942D01*
X145763060Y-21883187D01*
X145736783Y-21877910D01*
X145708511Y-21874231D01*
X145678354Y-21869474D01*
X145630567Y-21860028D01*
X145569388Y-21846820D01*
X145499054Y-21830776D01*
X145423806Y-21812820D01*
X145395245Y-21805797D01*
X145290184Y-21780209D01*
X145202520Y-21760147D01*
X145127932Y-21744969D01*
X145062097Y-21734035D01*
X145000693Y-21726704D01*
X144939398Y-21722335D01*
X144873890Y-21720287D01*
X144815872Y-21719889D01*
X144646426Y-21726552D01*
X144646426Y-21726552D01*
G37*
X144646426Y-21726552D02*
X144494508Y-21746567D01*
X144359244Y-21780202D01*
X144239761Y-21827725D01*
X144135185Y-21889405D01*
X144057576Y-21952965D01*
X143988735Y-22027099D01*
X143934994Y-22106871D01*
X143892090Y-22199091D01*
X143876616Y-22242161D01*
X143863756Y-22281142D01*
X143852554Y-22317289D01*
X143842880Y-22352434D01*
X143834604Y-22388410D01*
X143827597Y-22427050D01*
X143821728Y-22470185D01*
X143816869Y-22519649D01*
X143812890Y-22577273D01*
X143809660Y-22644891D01*
X143807051Y-22724334D01*
X143804933Y-22817436D01*
X143803176Y-22926027D01*
X143801651Y-23051942D01*
X143800228Y-23197012D01*
X143798975Y-23339778D01*
X143797649Y-23495968D01*
X143796444Y-23631239D01*
X143795234Y-23747246D01*
X143793894Y-23845645D01*
X143792300Y-23928093D01*
X143790325Y-23996246D01*
X143787844Y-24051760D01*
X143784731Y-24096292D01*
X143780862Y-24131498D01*
X143776111Y-24159034D01*
X143770352Y-24180556D01*
X143763461Y-24197722D01*
X143755311Y-24212186D01*
X143745777Y-24225606D01*
X143734734Y-24239638D01*
X143730434Y-24245071D01*
X143714614Y-24267910D01*
X143707578Y-24283463D01*
X143707556Y-24283922D01*
X143718433Y-24286121D01*
X143749418Y-24288147D01*
X143798043Y-24289942D01*
X143861837Y-24291451D01*
X143938331Y-24292616D01*
X144025056Y-24293380D01*
X144119543Y-24293686D01*
X144130450Y-24293689D01*
X144553343Y-24293689D01*
X144556605Y-24197622D01*
X144559867Y-24101556D01*
X144621956Y-24152543D01*
X144719286Y-24220057D01*
X144829187Y-24274749D01*
X144915651Y-24304978D01*
X144984722Y-24319666D01*
X145068075Y-24329659D01*
X145157841Y-24334646D01*
X145246155Y-24334313D01*
X145325149Y-24328351D01*
X145361378Y-24322638D01*
X145501397Y-24284776D01*
X145627822Y-24229932D01*
X145739740Y-24158924D01*
X145836238Y-24072568D01*
X145916400Y-23971679D01*
X145979313Y-23857076D01*
X146023688Y-23730984D01*
X146036022Y-23674401D01*
X146043632Y-23612202D01*
X146047261Y-23537363D01*
X146047755Y-23503467D01*
X146047690Y-23500282D01*
X145287752Y-23500282D01*
X145278459Y-23575333D01*
X145250272Y-23639160D01*
X145201803Y-23694798D01*
X145196746Y-23699211D01*
X145148452Y-23734037D01*
X145096743Y-23756620D01*
X145036011Y-23768540D01*
X144960648Y-23771383D01*
X144942541Y-23770978D01*
X144888722Y-23768325D01*
X144848692Y-23762909D01*
X144813676Y-23752745D01*
X144774897Y-23735850D01*
X144764255Y-23730672D01*
X144703604Y-23694844D01*
X144656785Y-23652212D01*
X144644048Y-23636973D01*
X144599378Y-23580462D01*
X144599378Y-23384586D01*
X144599914Y-23305939D01*
X144601604Y-23247988D01*
X144604572Y-23208875D01*
X144608943Y-23186741D01*
X144613028Y-23180274D01*
X144628953Y-23177111D01*
X144662736Y-23174488D01*
X144709660Y-23172655D01*
X144765007Y-23171857D01*
X144773894Y-23171842D01*
X144894670Y-23177096D01*
X144997340Y-23193263D01*
X145083894Y-23220961D01*
X145156319Y-23260808D01*
X145211249Y-23307758D01*
X145255796Y-23365645D01*
X145280520Y-23428693D01*
X145287752Y-23500282D01*
X146047690Y-23500282D01*
X146045822Y-23409712D01*
X146037478Y-23330812D01*
X146021232Y-23259590D01*
X145995595Y-23188864D01*
X145971599Y-23136493D01*
X145912980Y-23041196D01*
X145834883Y-22953170D01*
X145739685Y-22874017D01*
X145629762Y-22805340D01*
X145507490Y-22748741D01*
X145375245Y-22705821D01*
X145310578Y-22690882D01*
X145174396Y-22668777D01*
X145025951Y-22654194D01*
X144874495Y-22647813D01*
X144747936Y-22649445D01*
X144586050Y-22656224D01*
X144593470Y-22597245D01*
X144612762Y-22498092D01*
X144643896Y-22417372D01*
X144687731Y-22354466D01*
X144745129Y-22308756D01*
X144816952Y-22279622D01*
X144904059Y-22266447D01*
X145007314Y-22268611D01*
X145045289Y-22272612D01*
X145186480Y-22297780D01*
X145323293Y-22338814D01*
X145417822Y-22376815D01*
X145462982Y-22396190D01*
X145501415Y-22411760D01*
X145527766Y-22421405D01*
X145535454Y-22423452D01*
X145545198Y-22414374D01*
X145561917Y-22385405D01*
X145585768Y-22336217D01*
X145616907Y-22266484D01*
X145655493Y-22175879D01*
X145662090Y-22160089D01*
X145692147Y-22087772D01*
X145719126Y-22022425D01*
X145741864Y-21966906D01*
X145759194Y-21924072D01*
X145769952Y-21896781D01*
X145773059Y-21887942D01*
X145763060Y-21883187D01*
X145736783Y-21877910D01*
X145708511Y-21874231D01*
X145678354Y-21869474D01*
X145630567Y-21860028D01*
X145569388Y-21846820D01*
X145499054Y-21830776D01*
X145423806Y-21812820D01*
X145395245Y-21805797D01*
X145290184Y-21780209D01*
X145202520Y-21760147D01*
X145127932Y-21744969D01*
X145062097Y-21734035D01*
X145000693Y-21726704D01*
X144939398Y-21722335D01*
X144873890Y-21720287D01*
X144815872Y-21719889D01*
X144646426Y-21726552D01*
G36*
X141133493Y-22332245D02*
G01*
X141133474Y-22566662D01*
X141133448Y-22779603D01*
X141133375Y-22972168D01*
X141133218Y-23145459D01*
X141132936Y-23300576D01*
X141132491Y-23438620D01*
X141131844Y-23560692D01*
X141130955Y-23667894D01*
X141129787Y-23761326D01*
X141128299Y-23842090D01*
X141126454Y-23911286D01*
X141124211Y-23970015D01*
X141121531Y-24019379D01*
X141118377Y-24060478D01*
X141114708Y-24094413D01*
X141110487Y-24122286D01*
X141105673Y-24145198D01*
X141100227Y-24164249D01*
X141094112Y-24180540D01*
X141087288Y-24195173D01*
X141079715Y-24209249D01*
X141071355Y-24223868D01*
X141066161Y-24232974D01*
X141031896Y-24293689D01*
X141890045Y-24293689D01*
X141890045Y-24197733D01*
X141890776Y-24154370D01*
X141892728Y-24121205D01*
X141895537Y-24103424D01*
X141896779Y-24101778D01*
X141908201Y-24108662D01*
X141930916Y-24126505D01*
X141953615Y-24145879D01*
X142008200Y-24186614D01*
X142077679Y-24227617D01*
X142154730Y-24265123D01*
X142232035Y-24295364D01*
X142262887Y-24305012D01*
X142331384Y-24319578D01*
X142414236Y-24329539D01*
X142503629Y-24334583D01*
X142591752Y-24334396D01*
X142670793Y-24328666D01*
X142708489Y-24322858D01*
X142846586Y-24284797D01*
X142973887Y-24227073D01*
X143089708Y-24150211D01*
X143193363Y-24054739D01*
X143284167Y-23941179D01*
X143350969Y-23830381D01*
X143405836Y-23713625D01*
X143447837Y-23594276D01*
X143477833Y-23468283D01*
X143496689Y-23331594D01*
X143505268Y-23180158D01*
X143505994Y-23102711D01*
X143503900Y-23045934D01*
X142674783Y-23045934D01*
X142674576Y-23139002D01*
X142671663Y-23226692D01*
X142666000Y-23303772D01*
X142657545Y-23365009D01*
X142654962Y-23377350D01*
X142623160Y-23484633D01*
X142581502Y-23571658D01*
X142529637Y-23638642D01*
X142467219Y-23685805D01*
X142393900Y-23713365D01*
X142309331Y-23721541D01*
X142213165Y-23710551D01*
X142149689Y-23694829D01*
X142100546Y-23676639D01*
X142046417Y-23650791D01*
X142005756Y-23627089D01*
X141935200Y-23580721D01*
X141935200Y-22430530D01*
X142002608Y-22386962D01*
X142081133Y-22346040D01*
X142165319Y-22319389D01*
X142250443Y-22307465D01*
X142331784Y-22310722D01*
X142404620Y-22329615D01*
X142436574Y-22345184D01*
X142494499Y-22388181D01*
X142543456Y-22444953D01*
X142584610Y-22517575D01*
X142619126Y-22608121D01*
X142648167Y-22718666D01*
X142649448Y-22724533D01*
X142659619Y-22786788D01*
X142667261Y-22864594D01*
X142672330Y-22952720D01*
X142674783Y-23045934D01*
X143503900Y-23045934D01*
X143498143Y-22889895D01*
X143476198Y-22694059D01*
X143440214Y-22515332D01*
X143390241Y-22353845D01*
X143326332Y-22209726D01*
X143248538Y-22083106D01*
X143156911Y-21974115D01*
X143051503Y-21882883D01*
X143006338Y-21851932D01*
X142905389Y-21795785D01*
X142802099Y-21756174D01*
X142692011Y-21732014D01*
X142570670Y-21722219D01*
X142478164Y-21723265D01*
X142348510Y-21734231D01*
X142235916Y-21756046D01*
X142137125Y-21789714D01*
X142048879Y-21836236D01*
X142000014Y-21870448D01*
X141970647Y-21892362D01*
X141948957Y-21907333D01*
X141940747Y-21911733D01*
X141939132Y-21900904D01*
X141937841Y-21870251D01*
X141936862Y-21822526D01*
X141936183Y-21760479D01*
X141935790Y-21686862D01*
X141935670Y-21604427D01*
X141935812Y-21515925D01*
X141936203Y-21424107D01*
X141936829Y-21331724D01*
X141937680Y-21241528D01*
X141938740Y-21156271D01*
X141939999Y-21078703D01*
X141941444Y-21011576D01*
X141943062Y-20957641D01*
X141944839Y-20919650D01*
X141945331Y-20912667D01*
X141952908Y-20842251D01*
X141964469Y-20787102D01*
X141982208Y-20739981D01*
X142008318Y-20693647D01*
X142014585Y-20684067D01*
X142039017Y-20647378D01*
X141133689Y-20647378D01*
X141133493Y-22332245D01*
X141133493Y-22332245D01*
G37*
X141133493Y-22332245D02*
X141133474Y-22566662D01*
X141133448Y-22779603D01*
X141133375Y-22972168D01*
X141133218Y-23145459D01*
X141132936Y-23300576D01*
X141132491Y-23438620D01*
X141131844Y-23560692D01*
X141130955Y-23667894D01*
X141129787Y-23761326D01*
X141128299Y-23842090D01*
X141126454Y-23911286D01*
X141124211Y-23970015D01*
X141121531Y-24019379D01*
X141118377Y-24060478D01*
X141114708Y-24094413D01*
X141110487Y-24122286D01*
X141105673Y-24145198D01*
X141100227Y-24164249D01*
X141094112Y-24180540D01*
X141087288Y-24195173D01*
X141079715Y-24209249D01*
X141071355Y-24223868D01*
X141066161Y-24232974D01*
X141031896Y-24293689D01*
X141890045Y-24293689D01*
X141890045Y-24197733D01*
X141890776Y-24154370D01*
X141892728Y-24121205D01*
X141895537Y-24103424D01*
X141896779Y-24101778D01*
X141908201Y-24108662D01*
X141930916Y-24126505D01*
X141953615Y-24145879D01*
X142008200Y-24186614D01*
X142077679Y-24227617D01*
X142154730Y-24265123D01*
X142232035Y-24295364D01*
X142262887Y-24305012D01*
X142331384Y-24319578D01*
X142414236Y-24329539D01*
X142503629Y-24334583D01*
X142591752Y-24334396D01*
X142670793Y-24328666D01*
X142708489Y-24322858D01*
X142846586Y-24284797D01*
X142973887Y-24227073D01*
X143089708Y-24150211D01*
X143193363Y-24054739D01*
X143284167Y-23941179D01*
X143350969Y-23830381D01*
X143405836Y-23713625D01*
X143447837Y-23594276D01*
X143477833Y-23468283D01*
X143496689Y-23331594D01*
X143505268Y-23180158D01*
X143505994Y-23102711D01*
X143503900Y-23045934D01*
X142674783Y-23045934D01*
X142674576Y-23139002D01*
X142671663Y-23226692D01*
X142666000Y-23303772D01*
X142657545Y-23365009D01*
X142654962Y-23377350D01*
X142623160Y-23484633D01*
X142581502Y-23571658D01*
X142529637Y-23638642D01*
X142467219Y-23685805D01*
X142393900Y-23713365D01*
X142309331Y-23721541D01*
X142213165Y-23710551D01*
X142149689Y-23694829D01*
X142100546Y-23676639D01*
X142046417Y-23650791D01*
X142005756Y-23627089D01*
X141935200Y-23580721D01*
X141935200Y-22430530D01*
X142002608Y-22386962D01*
X142081133Y-22346040D01*
X142165319Y-22319389D01*
X142250443Y-22307465D01*
X142331784Y-22310722D01*
X142404620Y-22329615D01*
X142436574Y-22345184D01*
X142494499Y-22388181D01*
X142543456Y-22444953D01*
X142584610Y-22517575D01*
X142619126Y-22608121D01*
X142648167Y-22718666D01*
X142649448Y-22724533D01*
X142659619Y-22786788D01*
X142667261Y-22864594D01*
X142672330Y-22952720D01*
X142674783Y-23045934D01*
X143503900Y-23045934D01*
X143498143Y-22889895D01*
X143476198Y-22694059D01*
X143440214Y-22515332D01*
X143390241Y-22353845D01*
X143326332Y-22209726D01*
X143248538Y-22083106D01*
X143156911Y-21974115D01*
X143051503Y-21882883D01*
X143006338Y-21851932D01*
X142905389Y-21795785D01*
X142802099Y-21756174D01*
X142692011Y-21732014D01*
X142570670Y-21722219D01*
X142478164Y-21723265D01*
X142348510Y-21734231D01*
X142235916Y-21756046D01*
X142137125Y-21789714D01*
X142048879Y-21836236D01*
X142000014Y-21870448D01*
X141970647Y-21892362D01*
X141948957Y-21907333D01*
X141940747Y-21911733D01*
X141939132Y-21900904D01*
X141937841Y-21870251D01*
X141936862Y-21822526D01*
X141936183Y-21760479D01*
X141935790Y-21686862D01*
X141935670Y-21604427D01*
X141935812Y-21515925D01*
X141936203Y-21424107D01*
X141936829Y-21331724D01*
X141937680Y-21241528D01*
X141938740Y-21156271D01*
X141939999Y-21078703D01*
X141941444Y-21011576D01*
X141943062Y-20957641D01*
X141944839Y-20919650D01*
X141945331Y-20912667D01*
X141952908Y-20842251D01*
X141964469Y-20787102D01*
X141982208Y-20739981D01*
X142008318Y-20693647D01*
X142014585Y-20684067D01*
X142039017Y-20647378D01*
X141133689Y-20647378D01*
X141133493Y-22332245D01*
G36*
X149593043Y-19886571D02*
G01*
X149496768Y-19910809D01*
X149410184Y-19953641D01*
X149335373Y-20013419D01*
X149274418Y-20088494D01*
X149229399Y-20177220D01*
X149203136Y-20273530D01*
X149197286Y-20370795D01*
X149212140Y-20464654D01*
X149245840Y-20552511D01*
X149296528Y-20631770D01*
X149362345Y-20699836D01*
X149441434Y-20754112D01*
X149531934Y-20792002D01*
X149583200Y-20804426D01*
X149627698Y-20811947D01*
X149661999Y-20814919D01*
X149694960Y-20813094D01*
X149735434Y-20806225D01*
X149768531Y-20799250D01*
X149861947Y-20767741D01*
X149945619Y-20716617D01*
X150017665Y-20647429D01*
X150076200Y-20561728D01*
X150090148Y-20534489D01*
X150106586Y-20498122D01*
X150116894Y-20467582D01*
X150122460Y-20435450D01*
X150124669Y-20394307D01*
X150124948Y-20348222D01*
X150120861Y-20263865D01*
X150107446Y-20194586D01*
X150082256Y-20133961D01*
X150042846Y-20075567D01*
X150004298Y-20031302D01*
X149932406Y-19965484D01*
X149857313Y-19920053D01*
X149774562Y-19892850D01*
X149696928Y-19882576D01*
X149593043Y-19886571D01*
X149593043Y-19886571D01*
G37*
X149593043Y-19886571D02*
X149496768Y-19910809D01*
X149410184Y-19953641D01*
X149335373Y-20013419D01*
X149274418Y-20088494D01*
X149229399Y-20177220D01*
X149203136Y-20273530D01*
X149197286Y-20370795D01*
X149212140Y-20464654D01*
X149245840Y-20552511D01*
X149296528Y-20631770D01*
X149362345Y-20699836D01*
X149441434Y-20754112D01*
X149531934Y-20792002D01*
X149583200Y-20804426D01*
X149627698Y-20811947D01*
X149661999Y-20814919D01*
X149694960Y-20813094D01*
X149735434Y-20806225D01*
X149768531Y-20799250D01*
X149861947Y-20767741D01*
X149945619Y-20716617D01*
X150017665Y-20647429D01*
X150076200Y-20561728D01*
X150090148Y-20534489D01*
X150106586Y-20498122D01*
X150116894Y-20467582D01*
X150122460Y-20435450D01*
X150124669Y-20394307D01*
X150124948Y-20348222D01*
X150120861Y-20263865D01*
X150107446Y-20194586D01*
X150082256Y-20133961D01*
X150042846Y-20075567D01*
X150004298Y-20031302D01*
X149932406Y-19965484D01*
X149857313Y-19920053D01*
X149774562Y-19892850D01*
X149696928Y-19882576D01*
X149593043Y-19886571D01*
M02*
